<svg width="107" height="118" viewBox="0 0 107 118" fill="none" xmlns="http://www.w3.org/2000/svg">
<path d="M2.5 2.5H104.052V54.6004C104.052 74.4302 93.3779 92.7246 76.1147 102.482L53.7288 115.134L30.7933 102.395C13.3307 92.695 2.5 74.2897 2.5 54.314V2.5Z" fill="#D9D9D9" stroke="#9E0FE5" stroke-width="5"/>
<path d="M4.14258 4.58203H102.411V52.6375C102.411 72.8855 91.4811 91.5565 73.8252 101.469L53.7109 112.761L33.0902 101.384C15.2318 91.5311 4.14258 72.7478 4.14258 52.3517V4.58203Z" fill="url(#paint0_linear_537_464)" stroke="#FEEA53" stroke-width="3"/>
<path d="M30.3932 51.2622L40.2268 50.2397L51.3138 49.0869L42.8757 56.3704L34.5155 63.5868L31.1882 79.1261C31.1886 79.1377 31.1912 79.1497 31.1963 79.1621C31.2046 79.1821 31.2213 79.2065 31.2511 79.2279C31.2814 79.2495 31.322 79.2656 31.3689 79.269C31.4152 79.2723 31.4595 79.2626 31.4958 79.2441C31.4962 79.2439 31.4966 79.2437 31.497 79.2435L50.3448 69.4717L51.9558 68.6365L53.5667 69.4717L72.4192 79.2459L72.4265 79.2496C72.4565 79.2654 72.4926 79.2752 72.5314 79.2761C72.5695 79.2753 72.6052 79.2661 72.6304 79.2545C72.6599 79.241 72.682 79.2232 72.6972 79.2053C72.7123 79.1877 72.7205 79.1703 72.7246 79.1555C72.7286 79.141 72.7292 79.1268 72.7269 79.1128L30.3932 51.2622ZM30.3932 51.2622L18.4978 40.6128C18.4845 40.5958 18.4772 40.5793 18.4737 40.5653C18.4692 40.5471 18.4697 40.5286 18.4759 40.5097C18.4822 40.4905 18.4961 40.4666 18.5227 40.4445C18.5496 40.4221 18.5875 40.4035 18.6334 40.3969C18.6335 40.3968 18.6336 40.3968 18.6338 40.3968L39.71 37.3774L41.5234 37.1177L42.3434 35.4796L51.6809 16.8269C51.7037 16.8014 51.7323 16.7777 51.7671 16.7581C51.822 16.7271 51.8879 16.709 51.9576 16.709C52.0274 16.709 52.0932 16.7271 52.1482 16.7581C52.1829 16.7777 52.2115 16.8014 52.2342 16.8269L61.5679 35.4791L62.3878 37.1176L64.2016 37.3774L85.2778 40.3968C85.2779 40.3968 85.278 40.3968 85.2781 40.3968C85.324 40.4035 85.3619 40.4221 85.3889 40.4445C85.4155 40.4666 85.4293 40.4905 85.4356 40.5097L88.7598 39.4143L85.4357 40.5097C85.4419 40.5286 85.4424 40.5471 85.4379 40.5653C85.4333 40.5836 85.4222 40.6065 85.3992 40.6289C85.399 40.629 85.3988 40.6292 85.3986 40.6294L70.1471 55.2886L68.8052 56.5784L69.1243 58.4121L72.7268 79.1124L30.3932 51.2622Z" fill="url(#paint1_linear_537_464)" stroke="#F5B900" stroke-width="7"/>
<defs>
<linearGradient id="paint0_linear_537_464" x1="45.3515" y1="-38.306" x2="53.7172" y2="150.582" gradientUnits="userSpaceOnUse">
<stop stop-color="#B542EF"/>
<stop offset="0.5" stop-color="#DF39DA"/>
<stop offset="1" stop-color="#3360E9"/>
</linearGradient>
<linearGradient id="paint1_linear_537_464" x1="51.9558" y1="13.209" x2="51.9558" y2="139.476" gradientUnits="userSpaceOnUse">
<stop stop-color="#FEEC67"/>
<stop offset="1" stop-color="#FDE200"/>
</linearGradient>
</defs>
</svg>
