<svg width="112" height="123" viewBox="0 0 112 123" fill="none" xmlns="http://www.w3.org/2000/svg">
<path d="M2.5 2.5H108.567V58.3356C108.567 78.1653 97.8928 96.4598 80.6297 106.217L56.0059 120.134L30.7934 106.13C13.3307 96.4302 2.5 78.0249 2.5 58.0492V2.5Z" fill="#D9D9D9" stroke="#768BFE" stroke-width="5"/>
<path d="M4.25391 4.71289H106.814V56.2945C106.814 76.5425 95.8835 95.2135 78.2276 105.126L55.9864 117.612L33.2016 105.041C15.3431 95.1881 4.25391 76.4048 4.25391 56.0086V4.71289Z" fill="url(#paint0_linear_537_433)" stroke="white" stroke-width="3"/>
<path d="M80.7154 51.7962C80.6291 51.429 80.4537 51.0886 80.2046 50.8053C79.9554 50.522 79.6403 50.3044 79.287 50.1719L62.756 43.9728L66.9629 22.9386C67.0608 22.449 66.9963 21.9409 66.7793 21.4912C66.5623 21.0416 66.2046 20.675 65.7604 20.447C65.3162 20.2191 64.8097 20.1422 64.3179 20.228C63.8261 20.3139 63.3757 20.5578 63.035 20.9228L30.9082 55.3444C30.6508 55.6202 30.4653 55.9553 30.3683 56.3198C30.2712 56.6844 30.2655 57.0673 30.3517 57.4346C30.4379 57.8019 30.6134 58.1423 30.8625 58.4256C31.1117 58.7089 31.4268 58.9264 31.7801 59.0589L48.3111 65.258L44.1042 86.2922C44.0063 86.7818 44.0707 87.29 44.2877 87.7397C44.5047 88.1894 44.8624 88.556 45.3067 88.784C45.7509 89.012 46.2573 89.0888 46.7492 89.0029C47.2411 88.917 47.6915 88.673 48.0321 88.308L80.1589 53.8864C80.4163 53.6106 80.6018 53.2756 80.6988 52.911C80.7959 52.5464 80.8016 52.1635 80.7154 51.7962Z" fill="#EBF8FE"/>
<defs>
<linearGradient id="paint0_linear_537_433" x1="55.5338" y1="3.21289" x2="55.5338" y2="119.329" gradientUnits="userSpaceOnUse">
<stop stop-color="#6291FB"/>
<stop offset="1" stop-color="#738EFF"/>
</linearGradient>
</defs>
</svg>
