<svg width="110" height="122" viewBox="0 0 110 122" fill="none" xmlns="http://www.w3.org/2000/svg">
<path d="M1.5 1.5H108.5V57.4528C108.5 77.643 97.6316 96.2701 80.0546 106.205L55.4719 120.099L30.3078 106.121C12.5276 96.2452 1.5 77.5052 1.5 57.1663V1.5Z" fill="#D9D9D9" stroke="#0097EB" stroke-width="3"/>
<path d="M4.22656 4.68164H105.772V55.4299C105.772 75.6779 94.8419 94.3488 77.186 104.261L55.4475 116.465L33.1742 104.176C15.3158 94.3234 4.22656 75.5401 4.22656 55.1439V4.68164Z" fill="url(#paint0_linear_528_337)" stroke="white" stroke-width="3"/>
<path d="M43.9982 76.7406C42.0186 76.7406 42.3739 75.9793 41.6633 74.1012L35.877 55.0164L71.8133 32.5815L76.0262 33.6982L72.5239 43.2406L43.9982 76.7406Z" fill="#C8DAEA"/>
<path d="M44 76.7408C45.5227 76.7408 46.1826 76.0302 47.0455 75.2181C48.3652 73.9491 65.3182 57.4529 65.3182 57.4529L54.9129 54.915L45.2689 61.0059L44 76.2332V76.7408Z" fill="#A9C9DD"/>
<path d="M45.0136 61.2089L69.5802 79.3293C72.3719 80.8521 74.4022 80.0907 75.1128 76.7407L85.112 29.6376C86.1272 25.5263 83.5386 23.699 80.8484 24.9172L22.1727 47.5551C18.1628 49.1793 18.2136 51.4127 21.462 52.377L36.5371 57.0975L71.4075 35.1195C73.0317 34.1043 74.5545 34.6627 73.3363 35.7793L45.0136 61.2089Z" fill="url(#paint1_linear_528_337)"/>
<defs>
<linearGradient id="paint0_linear_528_337" x1="54.9993" y1="3.18164" x2="54.9993" y2="118.182" gradientUnits="userSpaceOnUse">
<stop stop-color="#00A1EB"/>
<stop offset="1" stop-color="#008AD5"/>
</linearGradient>
<linearGradient id="paint1_linear_528_337" x1="59.7287" y1="50.73" x2="72.4181" y2="71.033" gradientUnits="userSpaceOnUse">
<stop stop-color="#EFF7FC"/>
<stop offset="1" stop-color="white"/>
</linearGradient>
</defs>
</svg>
