<svg width="103" height="114" viewBox="0 0 103 114" fill="none" xmlns="http://www.w3.org/2000/svg">
<path d="M2.5 2.5H100.44V51.6123C100.44 71.4421 89.766 89.7365 72.5028 99.4936L51.9071 111.134L30.7934 99.4066C13.3307 89.7069 2.5 71.3016 2.5 51.3259V2.5Z" fill="#D9D9D9" stroke="black" stroke-width="5"/>
<path d="M4.05273 4.47754H98.8886V49.7122C98.8886 69.9602 87.9584 88.6312 70.3025 98.5433L51.8897 108.88L33.0004 98.4586C15.142 88.6057 4.05273 69.8224 4.05273 49.4263V4.47754Z" fill="black" stroke="white" stroke-width="3"/>
<path fill-rule="evenodd" clip-rule="evenodd" d="M76.5872 25.259C77.6946 24.1516 77.6946 22.356 76.5872 21.2486C75.4798 20.1411 73.6842 20.1411 72.5768 21.2486L55.7181 38.1072L43.5962 21.5768C43.062 20.8484 42.2127 20.418 41.3093 20.418H29.2089C28.1402 20.418 27.1623 21.0187 26.6793 21.9719C26.1963 22.9252 26.2901 24.069 26.922 24.9308L44.6794 49.146L27.2036 66.6217C26.0962 67.7291 26.0962 69.5247 27.2036 70.6321C28.3111 71.7395 30.1066 71.7395 31.2141 70.6321L48.0728 53.7735L60.1948 70.304C60.729 71.0323 61.5783 71.4627 62.4816 71.4627H74.582C75.6505 71.4627 76.6286 70.8621 77.1116 69.9087C77.5945 68.9556 77.5009 67.8116 76.8688 66.9498L59.1115 42.7347L76.5872 25.259ZM52.9455 43.917C53.0332 44.063 53.135 44.2026 53.2512 44.3341L68.9858 65.7911H63.9188L34.805 26.0896H39.8723L52.9455 43.917Z" fill="white"/>
</svg>
