<svg width="58" height="60" viewBox="0 0 58 60" fill="none" xmlns="http://www.w3.org/2000/svg">
<mask id="path-1-outside-1_581_28" maskUnits="userSpaceOnUse" x="0" y="0.199219" width="58" height="60" fill="black">
<rect fill="white" y="0.199219" width="58" height="60"/>
<path fill-rule="evenodd" clip-rule="evenodd" d="M15.888 4.78338C12.8969 1.53154 7.836 1.32018 4.58416 4.31129C1.33232 7.3024 1.12096 12.3633 4.11207 15.6151L17.6832 30.3692L5.16522 43.9783C2.17411 47.2301 2.38547 52.291 5.63731 55.2822C8.88915 58.2733 13.9501 58.0619 16.9412 54.8101L28.5528 42.1863L40.1644 54.8101C43.1555 58.0619 48.2164 58.2733 51.4682 55.2822C54.7201 52.291 54.9314 47.2301 51.9403 43.9783L39.4224 30.3692L52.9935 15.6151C55.9846 12.3633 55.7732 7.3024 52.5214 4.31129C49.2696 1.32018 44.2086 1.53154 41.2175 4.78338L28.5528 18.5521L15.888 4.78338Z"/>
</mask>
<path fill-rule="evenodd" clip-rule="evenodd" d="M15.888 4.78338C12.8969 1.53154 7.836 1.32018 4.58416 4.31129C1.33232 7.3024 1.12096 12.3633 4.11207 15.6151L17.6832 30.3692L5.16522 43.9783C2.17411 47.2301 2.38547 52.291 5.63731 55.2822C8.88915 58.2733 13.9501 58.0619 16.9412 54.8101L28.5528 42.1863L40.1644 54.8101C43.1555 58.0619 48.2164 58.2733 51.4682 55.2822C54.7201 52.291 54.9314 47.2301 51.9403 43.9783L39.4224 30.3692L52.9935 15.6151C55.9846 12.3633 55.7732 7.3024 52.5214 4.31129C49.2696 1.32018 44.2086 1.53154 41.2175 4.78338L28.5528 18.5521L15.888 4.78338Z" fill="#AD611A"/>
<path fill-rule="evenodd" clip-rule="evenodd" d="M15.888 4.78338C12.8969 1.53154 7.836 1.32018 4.58416 4.31129C1.33232 7.3024 1.12096 12.3633 4.11207 15.6151L17.6832 30.3692L5.16522 43.9783C2.17411 47.2301 2.38547 52.291 5.63731 55.2822C8.88915 58.2733 13.9501 58.0619 16.9412 54.8101L28.5528 42.1863L40.1644 54.8101C43.1555 58.0619 48.2164 58.2733 51.4682 55.2822C54.7201 52.291 54.9314 47.2301 51.9403 43.9783L39.4224 30.3692L52.9935 15.6151C55.9846 12.3633 55.7732 7.3024 52.5214 4.31129C49.2696 1.32018 44.2086 1.53154 41.2175 4.78338L28.5528 18.5521L15.888 4.78338Z" fill="#A96523"/>
<path d="M4.58416 4.31129L3.23019 2.8393L3.23019 2.8393L4.58416 4.31129ZM15.888 4.78338L14.416 6.13735L15.888 4.78338ZM4.11207 15.6151L2.64008 16.9691H2.64008L4.11207 15.6151ZM17.6832 30.3692L19.1552 31.7232L20.4006 30.3692L19.1552 29.0152L17.6832 30.3692ZM5.16522 43.9783L3.69323 42.6243H3.69323L5.16522 43.9783ZM16.9412 54.8101L15.4692 53.4561L16.9412 54.8101ZM28.5528 42.1863L30.0248 40.8323L28.5528 39.232L27.0808 40.8323L28.5528 42.1863ZM40.1644 54.8101L41.6364 53.4561L40.1644 54.8101ZM51.9403 43.9783L50.4683 45.3323L51.9403 43.9783ZM39.4224 30.3692L37.9504 29.0152L36.705 30.3692L37.9504 31.7232L39.4224 30.3692ZM52.9935 15.6151L54.4655 16.9691V16.9691L52.9935 15.6151ZM52.5214 4.31129L53.8754 2.8393V2.8393L52.5214 4.31129ZM41.2175 4.78338L39.7455 3.42941V3.42941L41.2175 4.78338ZM28.5528 18.5521L27.0808 19.9061L28.5528 21.5064L30.0248 19.9061L28.5528 18.5521ZM5.93813 5.78328C8.37701 3.53995 12.1727 3.69847 14.416 6.13735L17.36 3.42941C13.6211 -0.635387 7.29499 -0.89959 3.23019 2.8393L5.93813 5.78328ZM5.58406 14.2612C3.34073 11.8223 3.49925 8.02661 5.93813 5.78328L3.23019 2.8393C-0.834606 6.57818 -1.09881 12.9043 2.64008 16.9691L5.58406 14.2612ZM19.1552 29.0152L5.58406 14.2612L2.64008 16.9691L16.2112 31.7232L19.1552 29.0152ZM16.2112 29.0152L3.69323 42.6243L6.63722 45.3323L19.1552 31.7232L16.2112 29.0152ZM3.69323 42.6243C-0.0456562 46.6891 0.218545 53.0153 4.28334 56.7541L6.99128 53.8102C4.5524 51.5668 4.39388 47.7711 6.63722 45.3323L3.69323 42.6243ZM4.28334 56.7541C8.34814 60.493 14.6743 60.2288 18.4132 56.164L15.4692 53.4561C13.2258 55.895 9.43016 56.0535 6.99128 53.8102L4.28334 56.7541ZM18.4132 56.164L30.0248 43.5403L27.0808 40.8323L15.4692 53.4561L18.4132 56.164ZM41.6364 53.4561L30.0248 40.8323L27.0808 43.5403L38.6924 56.164L41.6364 53.4561ZM50.1143 53.8102C47.6754 56.0535 43.8797 55.895 41.6364 53.4561L38.6924 56.164C42.4313 60.2288 48.7574 60.493 52.8222 56.7541L50.1143 53.8102ZM50.4683 45.3323C52.7117 47.7711 52.5532 51.5668 50.1143 53.8102L52.8222 56.7541C56.887 53.0153 57.1512 46.6891 53.4123 42.6243L50.4683 45.3323ZM37.9504 31.7232L50.4683 45.3323L53.4123 42.6243L40.8944 29.0152L37.9504 31.7232ZM40.8944 31.7232L54.4655 16.9691L51.5215 14.2612L37.9504 29.0152L40.8944 31.7232ZM54.4655 16.9691C58.2044 12.9043 57.9402 6.57818 53.8754 2.8393L51.1674 5.78328C53.6063 8.02661 53.7648 11.8223 51.5215 14.2612L54.4655 16.9691ZM53.8754 2.8393C49.8106 -0.89959 43.4844 -0.635387 39.7455 3.42941L42.6895 6.13735C44.9329 3.69847 48.7285 3.53995 51.1674 5.78328L53.8754 2.8393ZM39.7455 3.42941L27.0808 17.1981L30.0248 19.9061L42.6895 6.13735L39.7455 3.42941ZM14.416 6.13735L27.0808 19.9061L30.0248 17.1981L17.36 3.42941L14.416 6.13735Z" fill="#783F0A" mask="url(#path-1-outside-1_581_28)"/>
</svg>
