<svg width="97" height="110" viewBox="0 0 97 110" fill="none" xmlns="http://www.w3.org/2000/svg">
<path fill-rule="evenodd" clip-rule="evenodd" d="M25.7136 103.504C25.8335 103.827 26.139 104.175 26.6269 104.546C28.7718 106.179 32.6768 106.723 34.0225 105.942C34.8369 105.038 38.7489 100.667 42.6358 96.2033C46.6226 91.6312 52.7965 89.7214 58.3599 91.3469C61.9766 92.4404 71.0841 94.1402 77.9372 86.5065C84.9552 78.6802 85.7678 69.0622 85.6275 64.0239C85.5031 60.3891 85.9957 56.7595 87.0844 53.2893L87.3917 52.3076C87.5117 51.9252 87.7526 51.592 88.0782 51.3583C88.1271 51.3232 88.1778 51.2905 88.2301 51.2599C89.2102 50.6871 91.5343 50.8799 93.1823 51.0167C93.6906 51.0588 94.1345 51.0957 94.4549 51.1031C94.6979 51.1086 94.9373 51.1619 95.1597 51.26C95.382 51.3581 95.5828 51.499 95.7507 51.6747C95.9186 51.8504 96.0502 52.0575 96.1381 52.284C96.2259 52.5106 96.2683 52.7523 96.2628 52.9952C96.2572 53.2381 96.2039 53.4776 96.1058 53.6999C96.0077 53.9223 95.8668 54.1231 95.6911 54.291C95.5154 54.4589 95.3084 54.5905 95.0818 54.6783C94.8552 54.7662 94.6136 54.8086 94.3706 54.803L90.5064 54.7446C89.6154 57.7267 89.2166 60.8086 89.3227 63.9129C89.4804 69.515 88.5657 80.2022 80.6897 88.9852C72.4144 98.2016 61.5772 96.193 57.3015 94.9009C53.1337 93.6852 48.4673 95.1519 45.424 98.6428C41.0407 103.676 36.6202 108.593 36.6202 108.593C36.5373 108.687 36.4447 108.771 36.3439 108.844C34.376 110.287 31.0292 110.251 28.1017 109.335C26.7068 108.898 25.4053 108.262 24.3929 107.495C23.3057 106.67 22.5685 105.718 22.2059 104.709C19.0698 104.929 15.5054 103.049 13.5253 100.506C12.5268 99.2238 12.0412 97.8891 12.0653 96.648C8.72738 96.0761 6.06899 93.7548 4.78239 91.3744C3.88349 89.7125 3.61088 87.9947 3.95935 86.5102C1.46833 84.9547 0.100966 81.6805 0.0415851 78.7615C-0.0343178 74.9415 1.98797 72.0616 5.19362 71.4211C5.36134 71.3877 5.53285 71.3775 5.70335 71.3907C16.1012 72.2264 40.8868 75.88 45.9215 76.6303L48.4892 74.3244C48.4995 74.3155 48.5127 74.3036 48.5287 74.2889C31.9845 71.0897 21.8053 63.328 16.5224 55.3757C13.7769 51.2429 12.3454 47.0401 12.0784 43.4166C11.8465 40.2692 12.4893 37.2227 14.3183 35.2519L14.2667 35.2019C14.209 35.1444 14.1536 35.0847 14.1006 35.023C11.0844 32.1574 9.79115 27.851 10.6467 23.4912C11.2011 20.6674 12.5996 18.2319 14.3893 16.838C13.7456 14.2866 14.1986 11.2915 15.7234 8.217C17.6906 4.2496 21.0708 0.871901 23.5941 0.355133C24.0242 0.266884 24.4718 0.334523 24.8567 0.545955C25.2416 0.757388 25.5387 1.09883 25.695 1.50923C29.3857 11.2234 35.1552 18.2142 41.3956 23.9302C41.3647 20.9903 42.0591 16.6474 45.2655 13.0878C47.1317 11.0159 50.1824 9.01245 52.4011 9.18361C53.3117 9.24766 54.0188 9.96151 54.1009 10.8635C55.0993 22.1215 60.9306 29.8097 66.0779 36.5961L66.0849 36.6053C66.4638 37.1047 66.8846 37.6469 67.3275 38.2176L67.3279 38.2181C69.4964 41.0122 72.1941 44.4882 73.0967 46.9569L76.8299 41.311C77.88 39.7491 79.4049 38.5666 81.179 37.9384C82.9532 37.3102 84.8825 37.2697 86.6814 37.8229C88.8835 38.5154 90.7211 40.0529 91.7911 42.0983C92.8611 44.1438 93.3861 45.9175 92.6992 48.1214C92.5525 48.5897 92.2259 48.9805 91.7911 49.208C91.3563 49.4355 90.8489 49.4809 90.3806 49.3343C89.9123 49.1876 89.5215 48.861 89.294 48.4262C89.0665 47.9914 89.0211 47.484 89.1677 47.0157C90.0058 44.3389 88.2562 42.1935 85.5758 41.3543C83.4711 40.6953 81.1419 41.521 79.9105 43.3612L71.6329 55.8827C71.8174 57.0684 71.9032 58.3085 71.8801 59.6112C71.8757 59.8992 71.804 60.1823 71.6709 60.4377C71.5377 60.6932 71.3468 60.914 71.1132 61.0827C70.8797 61.2513 70.61 61.3631 70.3256 61.4091C70.0412 61.4551 69.75 61.4341 69.4752 61.3477C69.0941 61.2284 68.7619 60.9887 68.5284 60.6647C68.295 60.3406 68.173 59.9496 68.1806 59.5503C68.3567 49.5625 60.6125 43.7063 50.8069 36.2973C40.7948 28.7306 29.5008 20.1926 23.0076 4.75484C21.8184 5.70477 20.2194 7.48031 19.04 9.86027C18.2863 11.3794 17.2009 14.237 18.2004 16.6233C18.2144 16.6421 18.2281 16.6612 18.2415 16.6806C18.2664 16.7132 18.2901 16.7465 18.3127 16.7805C21.5397 21.182 30.0274 30.9509 34.705 31.7326C34.9447 31.7735 35.1741 31.8613 35.3799 31.9909C35.5857 32.1204 35.764 32.2893 35.9046 32.4878C36.0452 32.6862 36.1453 32.9105 36.1992 33.1476C36.2531 33.3848 36.2598 33.6303 36.2189 33.87C36.1779 34.1098 36.0901 34.3391 35.9606 34.5449C35.831 34.7508 35.6621 34.9291 35.4637 35.0696C35.2652 35.2102 35.041 35.3103 34.8038 35.3643C34.5666 35.4182 34.3211 35.4249 34.0814 35.3839C33.7274 35.319 33.3778 35.2316 33.035 35.1222C26.82 33.1764 18.9144 23.587 16.2229 20.133C15.3419 21.0323 14.6066 22.5302 14.2785 24.2017C13.9856 25.6901 13.6373 29.4367 16.6028 32.2977C16.6982 32.3769 16.786 32.4661 16.8646 32.5642L16.9692 32.6642C18.4604 34.0925 27.7963 43.0344 35.7498 44.4299C35.996 44.4641 36.2327 44.5476 36.4459 44.6754C36.6591 44.8031 36.8444 44.9725 36.9907 45.1735C37.137 45.3744 37.2413 45.6027 37.2974 45.8449C37.3535 46.087 37.3602 46.3379 37.3172 46.5827C37.2742 46.8275 37.1823 47.0611 37.047 47.2696C36.9117 47.4781 36.7358 47.6572 36.5297 47.7962C36.3237 47.9353 36.0918 48.0313 35.8478 48.0787C35.6038 48.1261 35.3528 48.1239 35.1097 48.0722C34.0772 47.892 33.058 47.6429 32.0588 47.3264C26.5558 45.6035 20.7039 40.9988 17.2558 37.9703C16.4885 38.8068 15.8743 40.4986 16.0676 43.1227C16.2768 45.9614 17.4301 49.5133 19.8542 53.1623C24.674 60.4175 34.4885 67.9895 51.4325 70.7428C51.6634 70.7803 51.8786 70.856 52.0727 70.9623C52.7468 70.3694 53.2909 69.9408 53.4489 69.9506C53.9331 69.9807 54.3862 70.1997 54.7105 70.5606C55.0348 70.9214 55.2044 71.3952 55.1827 71.8799C55.1611 72.3645 54.95 72.8213 54.5948 73.1518L47.7465 79.9664C47.5428 80.1486 47.3016 80.2836 47.0398 80.3618C46.778 80.4401 46.5023 80.4596 46.2321 80.419C45.9398 80.3741 17.123 76.0594 5.693 75.1022C3.87792 75.6235 3.71939 77.7647 3.73634 78.689C3.78106 80.8164 4.89561 83.2824 6.63647 83.6696L7.62174 83.6468C7.80224 83.6426 8.0046 83.6382 8.22609 83.6334C11.3883 83.5648 18.45 83.4116 21.4626 82.6553C21.9388 82.5354 22.443 82.6096 22.8644 82.8616C23.2859 83.1135 23.59 83.5225 23.7098 83.9986C23.8297 84.4748 23.7555 84.979 23.5036 85.4005C23.2516 85.8219 22.8426 86.126 22.3665 86.2458C18.9748 87.0999 11.6386 87.263 8.3319 87.3365L8.33177 87.3365C8.10494 87.3416 7.89706 87.3462 7.71073 87.3506L7.55108 87.355C7.3871 88.0407 7.65542 88.9157 8.033 89.6119C9.10057 91.5917 11.5857 93.3747 14.3212 93.0328C14.7038 92.9099 15.1928 92.7677 15.7655 92.6012L15.995 92.5345C16.6776 92.3371 17.46 92.1625 18.2954 91.9761L18.2955 91.9761C20.1944 91.5524 22.3669 91.0677 24.2619 90.1153C24.4792 90.0038 24.7163 89.9364 24.9598 89.917C25.2032 89.8976 25.448 89.9266 25.6802 90.0022C25.9123 90.0779 26.1272 90.1988 26.3124 90.3579C26.4977 90.517 26.6496 90.7112 26.7594 90.9293C26.8692 91.1474 26.9347 91.3851 26.9522 91.6287C26.9697 91.8722 26.9389 92.1168 26.8614 92.3484C26.7839 92.58 26.6614 92.7939 26.5009 92.9779C26.3403 93.1619 26.1449 93.3123 25.926 93.4204C23.7786 94.4999 21.3994 95.0463 19.3532 95.5162C18.5053 95.711 17.7146 95.8926 17.0211 96.0935C16.5813 96.2187 16.1886 96.3328 15.856 96.4346C15.7133 96.7286 15.6888 97.2657 16.44 98.2309C17.9369 100.15 21.2289 101.686 22.9019 100.763C22.9526 100.726 23.0053 100.691 23.0598 100.66C23.6621 100.314 24.359 100.019 25.0685 99.7181C26.1969 99.2401 27.3571 98.7487 28.2189 98.0187C28.4037 97.8564 28.619 97.7325 28.8522 97.6544C29.0854 97.5762 29.3319 97.5454 29.5772 97.5636C29.8225 97.5819 30.0617 97.6488 30.2808 97.7606C30.4999 97.8724 30.6945 98.0267 30.8532 98.2146C31.012 98.4025 31.1317 98.6201 31.2053 98.8548C31.279 99.0895 31.3051 99.3365 31.2821 99.5814C31.2592 99.8263 31.1876 100.064 31.0717 100.281C30.9557 100.498 30.7977 100.69 30.6068 100.845C29.1795 102.052 27.0454 102.946 25.8029 103.467L25.7136 103.504ZM69.8402 48.7137C70.0683 49.1392 70.4546 49.4579 70.9156 49.601C71.0406 49.6402 71.1687 49.6657 71.2978 49.6776L70.2995 51.1873C67.3349 44.1479 60.5643 39.031 53.0392 33.3438L53.0392 33.3438L53.0385 33.3433L53.0159 33.3262C50.4022 31.3502 47.6977 29.3056 45.0221 27.0846C45.1424 26.8878 45.2251 26.6701 45.2654 26.4426C45.3092 26.196 45.3025 25.9431 45.2456 25.6991C44.9811 24.2281 47.1643 16.5595 47.8139 15.7973C48.6228 14.8459 49.593 14.0444 50.6801 13.4297C52.3038 24.5549 58.278 32.4356 63.1391 38.8433C63.6633 39.5347 64.1247 40.0919 64.5734 40.6337L64.5737 40.634L64.5737 40.6341C65.9594 42.3072 67.2235 43.8336 69.8402 48.7137Z" fill="url(#paint0_linear_728_67)"/>
<path fill-rule="evenodd" clip-rule="evenodd" d="M25.7136 103.504C25.8335 103.827 26.139 104.175 26.6269 104.546C28.7718 106.179 32.6768 106.723 34.0225 105.942C34.8369 105.038 38.7489 100.667 42.6358 96.2033C46.6226 91.6312 52.7965 89.7214 58.3599 91.3469C61.9766 92.4404 71.0841 94.1402 77.9372 86.5065C84.9552 78.6802 85.7678 69.0622 85.6275 64.0239C85.5031 60.3891 85.9957 56.7595 87.0844 53.2893L87.3917 52.3076C87.5117 51.9252 87.7526 51.592 88.0782 51.3583C88.1271 51.3232 88.1778 51.2905 88.2301 51.2599C89.2102 50.6871 91.5343 50.8799 93.1823 51.0167C93.6906 51.0588 94.1345 51.0957 94.4549 51.1031C94.6979 51.1086 94.9373 51.1619 95.1597 51.26C95.382 51.3581 95.5828 51.499 95.7507 51.6747C95.9186 51.8504 96.0502 52.0575 96.1381 52.284C96.2259 52.5106 96.2683 52.7523 96.2628 52.9952C96.2572 53.2381 96.2039 53.4776 96.1058 53.6999C96.0077 53.9223 95.8668 54.1231 95.6911 54.291C95.5154 54.4589 95.3084 54.5905 95.0818 54.6783C94.8552 54.7662 94.6136 54.8086 94.3706 54.803L90.5064 54.7446C89.6154 57.7267 89.2166 60.8086 89.3227 63.9129C89.4804 69.515 88.5657 80.2022 80.6897 88.9852C72.4144 98.2016 61.5772 96.193 57.3015 94.9009C53.1337 93.6852 48.4673 95.1519 45.424 98.6428C41.0407 103.676 36.6202 108.593 36.6202 108.593C36.5373 108.687 36.4447 108.771 36.3439 108.844C34.376 110.287 31.0292 110.251 28.1017 109.335C26.7068 108.898 25.4053 108.262 24.3929 107.495C23.3057 106.67 22.5685 105.718 22.2059 104.709C19.0698 104.929 15.5054 103.049 13.5253 100.506C12.5268 99.2238 12.0412 97.8891 12.0653 96.648C8.72738 96.0761 6.06899 93.7548 4.78239 91.3744C3.88349 89.7125 3.61088 87.9947 3.95935 86.5102C1.46833 84.9547 0.100966 81.6805 0.0415851 78.7615C-0.0343178 74.9415 1.98797 72.0616 5.19362 71.4211C5.36134 71.3877 5.53285 71.3775 5.70335 71.3907C16.1012 72.2264 40.8868 75.88 45.9215 76.6303L48.4892 74.3244C48.4995 74.3155 48.5127 74.3036 48.5287 74.2889C31.9845 71.0897 21.8053 63.328 16.5224 55.3757C13.7769 51.2429 12.3454 47.0401 12.0784 43.4166C11.8465 40.2692 12.4893 37.2227 14.3183 35.2519L14.2667 35.2019C14.209 35.1444 14.1536 35.0847 14.1006 35.023C11.0844 32.1574 9.79115 27.851 10.6467 23.4912C11.2011 20.6674 12.5996 18.2319 14.3893 16.838C13.7456 14.2866 14.1986 11.2915 15.7234 8.217C17.6906 4.2496 21.0708 0.871901 23.5941 0.355133C24.0242 0.266884 24.4718 0.334523 24.8567 0.545955C25.2416 0.757388 25.5387 1.09883 25.695 1.50923C29.3857 11.2234 35.1552 18.2142 41.3956 23.9302C41.3647 20.9903 42.0591 16.6474 45.2655 13.0878C47.1317 11.0159 50.1824 9.01245 52.4011 9.18361C53.3117 9.24766 54.0188 9.96151 54.1009 10.8635C55.0993 22.1215 60.9306 29.8097 66.0779 36.5961L66.0849 36.6053C66.4638 37.1047 66.8846 37.6469 67.3275 38.2176L67.3279 38.2181C69.4964 41.0122 72.1941 44.4882 73.0967 46.9569L76.8299 41.311C77.88 39.7491 79.4049 38.5666 81.179 37.9384C82.9532 37.3102 84.8825 37.2697 86.6814 37.8229C88.8835 38.5154 90.7211 40.0529 91.7911 42.0983C92.8611 44.1438 93.3861 45.9175 92.6992 48.1214C92.5525 48.5897 92.2259 48.9805 91.7911 49.208C91.3563 49.4355 90.8489 49.4809 90.3806 49.3343C89.9123 49.1876 89.5215 48.861 89.294 48.4262C89.0665 47.9914 89.0211 47.484 89.1677 47.0157C90.0058 44.3389 88.2562 42.1935 85.5758 41.3543C83.4711 40.6953 81.1419 41.521 79.9105 43.3612L71.6329 55.8827C71.8174 57.0684 71.9032 58.3085 71.8801 59.6112C71.8757 59.8992 71.804 60.1823 71.6709 60.4377C71.5377 60.6932 71.3468 60.914 71.1132 61.0827C70.8797 61.2513 70.61 61.3631 70.3256 61.4091C70.0412 61.4551 69.75 61.4341 69.4752 61.3477C69.0941 61.2284 68.7619 60.9887 68.5284 60.6647C68.295 60.3406 68.173 59.9496 68.1806 59.5503C68.3567 49.5625 60.6125 43.7063 50.8069 36.2973C40.7948 28.7306 29.5008 20.1926 23.0076 4.75484C21.8184 5.70477 20.2194 7.48031 19.04 9.86027C18.2863 11.3794 17.2009 14.237 18.2004 16.6233C18.2144 16.6421 18.2281 16.6612 18.2415 16.6806C18.2664 16.7132 18.2901 16.7465 18.3127 16.7805C21.5397 21.182 30.0274 30.9509 34.705 31.7326C34.9447 31.7735 35.1741 31.8613 35.3799 31.9909C35.5857 32.1204 35.764 32.2893 35.9046 32.4878C36.0452 32.6862 36.1453 32.9105 36.1992 33.1476C36.2531 33.3848 36.2598 33.6303 36.2189 33.87C36.1779 34.1098 36.0901 34.3391 35.9606 34.5449C35.831 34.7508 35.6621 34.9291 35.4637 35.0696C35.2652 35.2102 35.041 35.3103 34.8038 35.3643C34.5666 35.4182 34.3211 35.4249 34.0814 35.3839C33.7274 35.319 33.3778 35.2316 33.035 35.1222C26.82 33.1764 18.9144 23.587 16.2229 20.133C15.3419 21.0323 14.6066 22.5302 14.2785 24.2017C13.9856 25.6901 13.6373 29.4367 16.6028 32.2977C16.6982 32.3769 16.786 32.4661 16.8646 32.5642L16.9692 32.6642C18.4604 34.0925 27.7963 43.0344 35.7498 44.4299C35.996 44.4641 36.2327 44.5476 36.4459 44.6754C36.6591 44.8031 36.8444 44.9725 36.9907 45.1735C37.137 45.3744 37.2413 45.6027 37.2974 45.8449C37.3535 46.087 37.3602 46.3379 37.3172 46.5827C37.2742 46.8275 37.1823 47.0611 37.047 47.2696C36.9117 47.4781 36.7358 47.6572 36.5297 47.7962C36.3237 47.9353 36.0918 48.0313 35.8478 48.0787C35.6038 48.1261 35.3528 48.1239 35.1097 48.0722C34.0772 47.892 33.058 47.6429 32.0588 47.3264C26.5558 45.6035 20.7039 40.9988 17.2558 37.9703C16.4885 38.8068 15.8743 40.4986 16.0676 43.1227C16.2768 45.9614 17.4301 49.5133 19.8542 53.1623C24.674 60.4175 34.4885 67.9895 51.4325 70.7428C51.6634 70.7803 51.8786 70.856 52.0727 70.9623C52.7468 70.3694 53.2909 69.9408 53.4489 69.9506C53.9331 69.9807 54.3862 70.1997 54.7105 70.5606C55.0348 70.9214 55.2044 71.3952 55.1827 71.8799C55.1611 72.3645 54.95 72.8213 54.5948 73.1518L47.7465 79.9664C47.5428 80.1486 47.3016 80.2836 47.0398 80.3618C46.778 80.4401 46.5023 80.4596 46.2321 80.419C45.9398 80.3741 17.123 76.0594 5.693 75.1022C3.87792 75.6235 3.71939 77.7647 3.73634 78.689C3.78106 80.8164 4.89561 83.2824 6.63647 83.6696L7.62174 83.6468C7.80224 83.6426 8.0046 83.6382 8.22609 83.6334C11.3883 83.5648 18.45 83.4116 21.4626 82.6553C21.9388 82.5354 22.443 82.6096 22.8644 82.8616C23.2859 83.1135 23.59 83.5225 23.7098 83.9986C23.8297 84.4748 23.7555 84.979 23.5036 85.4005C23.2516 85.8219 22.8426 86.126 22.3665 86.2458C18.9748 87.0999 11.6386 87.263 8.3319 87.3365L8.33177 87.3365C8.10494 87.3416 7.89706 87.3462 7.71073 87.3506L7.55108 87.355C7.3871 88.0407 7.65542 88.9157 8.033 89.6119C9.10057 91.5917 11.5857 93.3747 14.3212 93.0328C14.7038 92.9099 15.1928 92.7677 15.7655 92.6012L15.995 92.5345C16.6776 92.3371 17.46 92.1625 18.2954 91.9761L18.2955 91.9761C20.1944 91.5524 22.3669 91.0677 24.2619 90.1153C24.4792 90.0038 24.7163 89.9364 24.9598 89.917C25.2032 89.8976 25.448 89.9266 25.6802 90.0022C25.9123 90.0779 26.1272 90.1988 26.3124 90.3579C26.4977 90.517 26.6496 90.7112 26.7594 90.9293C26.8692 91.1474 26.9347 91.3851 26.9522 91.6287C26.9697 91.8722 26.9389 92.1168 26.8614 92.3484C26.7839 92.58 26.6614 92.7939 26.5009 92.9779C26.3403 93.1619 26.1449 93.3123 25.926 93.4204C23.7786 94.4999 21.3994 95.0463 19.3532 95.5162C18.5053 95.711 17.7146 95.8926 17.0211 96.0935C16.5813 96.2187 16.1886 96.3328 15.856 96.4346C15.7133 96.7286 15.6888 97.2657 16.44 98.2309C17.9369 100.15 21.2289 101.686 22.9019 100.763C22.9526 100.726 23.0053 100.691 23.0598 100.66C23.6621 100.314 24.359 100.019 25.0685 99.7181C26.1969 99.2401 27.3571 98.7487 28.2189 98.0187C28.4037 97.8564 28.619 97.7325 28.8522 97.6544C29.0854 97.5762 29.3319 97.5454 29.5772 97.5636C29.8225 97.5819 30.0617 97.6488 30.2808 97.7606C30.4999 97.8724 30.6945 98.0267 30.8532 98.2146C31.012 98.4025 31.1317 98.6201 31.2053 98.8548C31.279 99.0895 31.3051 99.3365 31.2821 99.5814C31.2592 99.8263 31.1876 100.064 31.0717 100.281C30.9557 100.498 30.7977 100.69 30.6068 100.845C29.1795 102.052 27.0454 102.946 25.8029 103.467L25.7136 103.504ZM69.8402 48.7137C70.0683 49.1392 70.4546 49.4579 70.9156 49.601C71.0406 49.6402 71.1687 49.6657 71.2978 49.6776L70.2995 51.1873C67.3349 44.1479 60.5643 39.031 53.0392 33.3438L53.0392 33.3438L53.0385 33.3433L53.0159 33.3262C50.4022 31.3502 47.6977 29.3056 45.0221 27.0846C45.1424 26.8878 45.2251 26.6701 45.2654 26.4426C45.3092 26.196 45.3025 25.9431 45.2456 25.6991C44.9811 24.2281 47.1643 16.5595 47.8139 15.7973C48.6228 14.8459 49.593 14.0444 50.6801 13.4297C52.3038 24.5549 58.278 32.4356 63.1391 38.8433C63.6633 39.5347 64.1247 40.0919 64.5734 40.6337L64.5737 40.634L64.5737 40.6341C65.9594 42.3072 67.2235 43.8336 69.8402 48.7137Z" fill="#0078AB"/>
<path fill-rule="evenodd" clip-rule="evenodd" d="M25.7136 103.504C25.8335 103.827 26.139 104.175 26.6269 104.546C28.7718 106.179 32.6768 106.723 34.0225 105.942C34.8369 105.038 38.7489 100.667 42.6358 96.2033C46.6226 91.6312 52.7965 89.7214 58.3599 91.3469C61.9766 92.4404 71.0841 94.1402 77.9372 86.5065C84.9552 78.6802 85.7678 69.0622 85.6275 64.0239C85.5031 60.3891 85.9957 56.7595 87.0844 53.2893L87.3917 52.3076C87.5117 51.9252 87.7526 51.592 88.0782 51.3583C88.1271 51.3232 88.1778 51.2905 88.2301 51.2599C89.2102 50.6871 91.5343 50.8799 93.1823 51.0167C93.6906 51.0588 94.1345 51.0957 94.4549 51.1031C94.6979 51.1086 94.9373 51.1619 95.1597 51.26C95.382 51.3581 95.5828 51.499 95.7507 51.6747C95.9186 51.8504 96.0502 52.0575 96.1381 52.284C96.2259 52.5106 96.2683 52.7523 96.2628 52.9952C96.2572 53.2381 96.2039 53.4776 96.1058 53.6999C96.0077 53.9223 95.8668 54.1231 95.6911 54.291C95.5154 54.4589 95.3084 54.5905 95.0818 54.6783C94.8552 54.7662 94.6136 54.8086 94.3706 54.803L90.5064 54.7446C89.6154 57.7267 89.2166 60.8086 89.3227 63.9129C89.4804 69.515 88.5657 80.2022 80.6897 88.9852C72.4144 98.2016 61.5772 96.193 57.3015 94.9009C53.1337 93.6852 48.4673 95.1519 45.424 98.6428C41.0407 103.676 36.6202 108.593 36.6202 108.593C36.5373 108.687 36.4447 108.771 36.3439 108.844C34.376 110.287 31.0292 110.251 28.1017 109.335C26.7068 108.898 25.4053 108.262 24.3929 107.495C23.3057 106.67 22.5685 105.718 22.2059 104.709C19.0698 104.929 15.5054 103.049 13.5253 100.506C12.5268 99.2238 12.0412 97.8891 12.0653 96.648C8.72738 96.0761 6.06899 93.7548 4.78239 91.3744C3.88349 89.7125 3.61088 87.9947 3.95935 86.5102C1.46833 84.9547 0.100966 81.6805 0.0415851 78.7615C-0.0343178 74.9415 1.98797 72.0616 5.19362 71.4211C5.36134 71.3877 5.53285 71.3775 5.70335 71.3907C16.1012 72.2264 40.8868 75.88 45.9215 76.6303L48.4892 74.3244C48.4995 74.3155 48.5127 74.3036 48.5287 74.2889C31.9845 71.0897 21.8053 63.328 16.5224 55.3757C13.7769 51.2429 12.3454 47.0401 12.0784 43.4166C11.8465 40.2692 12.4893 37.2227 14.3183 35.2519L14.2667 35.2019C14.209 35.1444 14.1536 35.0847 14.1006 35.023C11.0844 32.1574 9.79115 27.851 10.6467 23.4912C11.2011 20.6674 12.5996 18.2319 14.3893 16.838C13.7456 14.2866 14.1986 11.2915 15.7234 8.217C17.6906 4.2496 21.0708 0.871901 23.5941 0.355133C24.0242 0.266884 24.4718 0.334523 24.8567 0.545955C25.2416 0.757388 25.5387 1.09883 25.695 1.50923C29.3857 11.2234 35.1552 18.2142 41.3956 23.9302C41.3647 20.9903 42.0591 16.6474 45.2655 13.0878C47.1317 11.0159 50.1824 9.01245 52.4011 9.18361C53.3117 9.24766 54.0188 9.96151 54.1009 10.8635C55.0993 22.1215 60.9306 29.8097 66.0779 36.5961L66.0849 36.6053C66.4638 37.1047 66.8846 37.6469 67.3275 38.2176L67.3279 38.2181C69.4964 41.0122 72.1941 44.4882 73.0967 46.9569L76.8299 41.311C77.88 39.7491 79.4049 38.5666 81.179 37.9384C82.9532 37.3102 84.8825 37.2697 86.6814 37.8229C88.8835 38.5154 90.7211 40.0529 91.7911 42.0983C92.8611 44.1438 93.3861 45.9175 92.6992 48.1214C92.5525 48.5897 92.2259 48.9805 91.7911 49.208C91.3563 49.4355 90.8489 49.4809 90.3806 49.3343C89.9123 49.1876 89.5215 48.861 89.294 48.4262C89.0665 47.9914 89.0211 47.484 89.1677 47.0157C90.0058 44.3389 88.2562 42.1935 85.5758 41.3543C83.4711 40.6953 81.1419 41.521 79.9105 43.3612L71.6329 55.8827C71.8174 57.0684 71.9032 58.3085 71.8801 59.6112C71.8757 59.8992 71.804 60.1823 71.6709 60.4377C71.5377 60.6932 71.3468 60.914 71.1132 61.0827C70.8797 61.2513 70.61 61.3631 70.3256 61.4091C70.0412 61.4551 69.75 61.4341 69.4752 61.3477C69.0941 61.2284 68.7619 60.9887 68.5284 60.6647C68.295 60.3406 68.173 59.9496 68.1806 59.5503C68.3567 49.5625 60.6125 43.7063 50.8069 36.2973C40.7948 28.7306 29.5008 20.1926 23.0076 4.75484C21.8184 5.70477 20.2194 7.48031 19.04 9.86027C18.2863 11.3794 17.2009 14.237 18.2004 16.6233C18.2144 16.6421 18.2281 16.6612 18.2415 16.6806C18.2664 16.7132 18.2901 16.7465 18.3127 16.7805C21.5397 21.182 30.0274 30.9509 34.705 31.7326C34.9447 31.7735 35.1741 31.8613 35.3799 31.9909C35.5857 32.1204 35.764 32.2893 35.9046 32.4878C36.0452 32.6862 36.1453 32.9105 36.1992 33.1476C36.2531 33.3848 36.2598 33.6303 36.2189 33.87C36.1779 34.1098 36.0901 34.3391 35.9606 34.5449C35.831 34.7508 35.6621 34.9291 35.4637 35.0696C35.2652 35.2102 35.041 35.3103 34.8038 35.3643C34.5666 35.4182 34.3211 35.4249 34.0814 35.3839C33.7274 35.319 33.3778 35.2316 33.035 35.1222C26.82 33.1764 18.9144 23.587 16.2229 20.133C15.3419 21.0323 14.6066 22.5302 14.2785 24.2017C13.9856 25.6901 13.6373 29.4367 16.6028 32.2977C16.6982 32.3769 16.786 32.4661 16.8646 32.5642L16.9692 32.6642C18.4604 34.0925 27.7963 43.0344 35.7498 44.4299C35.996 44.4641 36.2327 44.5476 36.4459 44.6754C36.6591 44.8031 36.8444 44.9725 36.9907 45.1735C37.137 45.3744 37.2413 45.6027 37.2974 45.8449C37.3535 46.087 37.3602 46.3379 37.3172 46.5827C37.2742 46.8275 37.1823 47.0611 37.047 47.2696C36.9117 47.4781 36.7358 47.6572 36.5297 47.7962C36.3237 47.9353 36.0918 48.0313 35.8478 48.0787C35.6038 48.1261 35.3528 48.1239 35.1097 48.0722C34.0772 47.892 33.058 47.6429 32.0588 47.3264C26.5558 45.6035 20.7039 40.9988 17.2558 37.9703C16.4885 38.8068 15.8743 40.4986 16.0676 43.1227C16.2768 45.9614 17.4301 49.5133 19.8542 53.1623C24.674 60.4175 34.4885 67.9895 51.4325 70.7428C51.6634 70.7803 51.8786 70.856 52.0727 70.9623C52.7468 70.3694 53.2909 69.9408 53.4489 69.9506C53.9331 69.9807 54.3862 70.1997 54.7105 70.5606C55.0348 70.9214 55.2044 71.3952 55.1827 71.8799C55.1611 72.3645 54.95 72.8213 54.5948 73.1518L47.7465 79.9664C47.5428 80.1486 47.3016 80.2836 47.0398 80.3618C46.778 80.4401 46.5023 80.4596 46.2321 80.419C45.9398 80.3741 17.123 76.0594 5.693 75.1022C3.87792 75.6235 3.71939 77.7647 3.73634 78.689C3.78106 80.8164 4.89561 83.2824 6.63647 83.6696L7.62174 83.6468C7.80224 83.6426 8.0046 83.6382 8.22609 83.6334C11.3883 83.5648 18.45 83.4116 21.4626 82.6553C21.9388 82.5354 22.443 82.6096 22.8644 82.8616C23.2859 83.1135 23.59 83.5225 23.7098 83.9986C23.8297 84.4748 23.7555 84.979 23.5036 85.4005C23.2516 85.8219 22.8426 86.126 22.3665 86.2458C18.9748 87.0999 11.6386 87.263 8.3319 87.3365L8.33177 87.3365C8.10494 87.3416 7.89706 87.3462 7.71073 87.3506L7.55108 87.355C7.3871 88.0407 7.65542 88.9157 8.033 89.6119C9.10057 91.5917 11.5857 93.3747 14.3212 93.0328C14.7038 92.9099 15.1928 92.7677 15.7655 92.6012L15.995 92.5345C16.6776 92.3371 17.46 92.1625 18.2954 91.9761L18.2955 91.9761C20.1944 91.5524 22.3669 91.0677 24.2619 90.1153C24.4792 90.0038 24.7163 89.9364 24.9598 89.917C25.2032 89.8976 25.448 89.9266 25.6802 90.0022C25.9123 90.0779 26.1272 90.1988 26.3124 90.3579C26.4977 90.517 26.6496 90.7112 26.7594 90.9293C26.8692 91.1474 26.9347 91.3851 26.9522 91.6287C26.9697 91.8722 26.9389 92.1168 26.8614 92.3484C26.7839 92.58 26.6614 92.7939 26.5009 92.9779C26.3403 93.1619 26.1449 93.3123 25.926 93.4204C23.7786 94.4999 21.3994 95.0463 19.3532 95.5162C18.5053 95.711 17.7146 95.8926 17.0211 96.0935C16.5813 96.2187 16.1886 96.3328 15.856 96.4346C15.7133 96.7286 15.6888 97.2657 16.44 98.2309C17.9369 100.15 21.2289 101.686 22.9019 100.763C22.9526 100.726 23.0053 100.691 23.0598 100.66C23.6621 100.314 24.359 100.019 25.0685 99.7181C26.1969 99.2401 27.3571 98.7487 28.2189 98.0187C28.4037 97.8564 28.619 97.7325 28.8522 97.6544C29.0854 97.5762 29.3319 97.5454 29.5772 97.5636C29.8225 97.5819 30.0617 97.6488 30.2808 97.7606C30.4999 97.8724 30.6945 98.0267 30.8532 98.2146C31.012 98.4025 31.1317 98.6201 31.2053 98.8548C31.279 99.0895 31.3051 99.3365 31.2821 99.5814C31.2592 99.8263 31.1876 100.064 31.0717 100.281C30.9557 100.498 30.7977 100.69 30.6068 100.845C29.1795 102.052 27.0454 102.946 25.8029 103.467L25.7136 103.504ZM69.8402 48.7137C70.0683 49.1392 70.4546 49.4579 70.9156 49.601C71.0406 49.6402 71.1687 49.6657 71.2978 49.6776L70.2995 51.1873C67.3349 44.1479 60.5643 39.031 53.0392 33.3438L53.0392 33.3438L53.0385 33.3433L53.0159 33.3262C50.4022 31.3502 47.6977 29.3056 45.0221 27.0846C45.1424 26.8878 45.2251 26.6701 45.2654 26.4426C45.3092 26.196 45.3025 25.9431 45.2456 25.6991C44.9811 24.2281 47.1643 16.5595 47.8139 15.7973C48.6228 14.8459 49.593 14.0444 50.6801 13.4297C52.3038 24.5549 58.278 32.4356 63.1391 38.8433C63.6633 39.5347 64.1247 40.0919 64.5734 40.6337L64.5737 40.634L64.5737 40.6341C65.9594 42.3072 67.2235 43.8336 69.8402 48.7137Z" fill="#8C8695"/>
<defs>
<linearGradient id="paint0_linear_728_67" x1="61.657" y1="12.0288" x2="30.9165" y2="110.216" gradientUnits="userSpaceOnUse">
<stop stop-color="#00B3E6"/>
<stop offset="1" stop-color="#008FCC"/>
</linearGradient>
</defs>
</svg>
