<svg width="103" height="92" viewBox="0 0 103 92" fill="none" xmlns="http://www.w3.org/2000/svg">
<g filter="url(#filter0_d_728_55)">
<path d="M98.4203 84.2086H99.4203V83.2086V20.6917C99.4203 17.7155 96.7356 15.2109 93.3876 15.2109H88.3549C84.9761 15.2109 82.3223 17.7443 82.3223 20.905V83.2086V84.2086H83.3223H98.4203Z" fill="#CCC7D7" stroke="#8C8695" stroke-width="2"/>
<path d="M75.7719 84.2089H76.7719V83.2089V34.9324C76.7719 31.9284 74.1057 29.3657 70.7392 29.3657H65.7065C62.5807 29.3657 59.6738 31.9274 59.6738 35.1499V83.2089V84.2089H60.6738H75.7719Z" fill="#CCC7D7" stroke="#8C8695" stroke-width="2"/>
<path d="M53.1996 84.2087H54.1996V83.2087V50.9004C54.1996 47.9345 51.5667 45.4072 48.2456 45.4072H43.2915C40.0025 45.4072 37.1016 47.9049 37.1016 51.1144V83.2087V84.2087H38.1016H53.1996Z" fill="#CCC7D7" stroke="#8C8695" stroke-width="2"/>
<path d="M30.4777 83.5199H31.4777V82.5199V63.5163C31.4777 60.5666 29.0155 57.9292 25.7647 57.9292H21.0517C17.9344 57.9292 15.0818 60.2381 15.3387 63.5569V82.5199V83.5199H16.3387H30.4777Z" fill="#CCC7D7" stroke="#8C8695" stroke-width="2"/>
<path d="M5 46.0695C5 46.0695 45.6588 38.7553 75.3287 3L5 46.0695Z" fill="#CCC7D7"/>
<path d="M4.55737 43.609C3.19847 43.8535 2.29504 45.1533 2.5395 46.5122C2.78395 47.8711 4.08373 48.7745 5.44263 48.53L4.55737 43.609ZM75.3287 3L77.8267 3.10128C77.8559 2.38162 77.5732 1.68434 77.0512 1.18809C76.5292 0.691844 75.8185 0.444841 75.1013 0.510368L75.3287 3ZM72.3417 14.9619L72.2404 17.4598L77.2363 17.6624L77.3376 15.1644L72.3417 14.9619ZM63.0974 1.60702L60.6077 1.83446L61.0626 6.81373L63.5523 6.58628L63.0974 1.60702ZM5 46.0695C5.44263 48.53 5.44365 48.5299 5.44483 48.5296C5.44544 48.5295 5.44677 48.5293 5.44797 48.5291C5.45038 48.5286 5.4534 48.5281 5.45704 48.5274C5.46432 48.5261 5.47407 48.5243 5.48626 48.522C5.51063 48.5175 5.54478 48.5111 5.5885 48.5027C5.67594 48.4859 5.80168 48.4613 5.96413 48.4281C6.28902 48.3618 6.76085 48.2613 7.36696 48.1214C8.57904 47.8418 10.3289 47.4047 12.5152 46.7684C16.8863 45.4961 23.01 43.4251 30.0715 40.2194C44.1864 33.8119 62.113 22.8413 77.2526 4.59645L73.4048 1.40355C58.8746 18.914 41.6367 29.4782 28.0047 35.6666C21.1928 38.7589 15.2974 40.7511 11.1179 41.9676C9.02877 42.5757 7.3704 42.9893 6.24306 43.2494C5.67945 43.3794 5.24878 43.471 4.96359 43.5292C4.82101 43.5584 4.71481 43.5791 4.64658 43.5922C4.61246 43.5988 4.58784 43.6034 4.57291 43.6062C4.56544 43.6076 4.5604 43.6085 4.5578 43.609C4.5565 43.6092 4.55581 43.6093 4.55574 43.6093C4.55571 43.6093 4.55611 43.6093 4.5561 43.6093C4.55666 43.6092 4.55737 43.609 5 46.0695ZM72.8308 2.89872L72.3417 14.9619L77.3376 15.1644L77.8267 3.10128L72.8308 2.89872ZM75.1013 0.510368L63.0974 1.60702L63.5523 6.58628L75.5562 5.48963L75.1013 0.510368Z" fill="#00A4D7"/>
<path d="M4.55737 43.609C3.19847 43.8535 2.29504 45.1533 2.5395 46.5122C2.78395 47.8711 4.08373 48.7745 5.44263 48.53L4.55737 43.609ZM75.3287 3L77.8267 3.10128C77.8559 2.38162 77.5732 1.68434 77.0512 1.18809C76.5292 0.691844 75.8185 0.444841 75.1013 0.510368L75.3287 3ZM72.3417 14.9619L72.2404 17.4598L77.2363 17.6624L77.3376 15.1644L72.3417 14.9619ZM63.0974 1.60702L60.6077 1.83446L61.0626 6.81373L63.5523 6.58628L63.0974 1.60702ZM5 46.0695C5.44263 48.53 5.44365 48.5299 5.44483 48.5296C5.44544 48.5295 5.44677 48.5293 5.44797 48.5291C5.45038 48.5286 5.4534 48.5281 5.45704 48.5274C5.46432 48.5261 5.47407 48.5243 5.48626 48.522C5.51063 48.5175 5.54478 48.5111 5.5885 48.5027C5.67594 48.4859 5.80168 48.4613 5.96413 48.4281C6.28902 48.3618 6.76085 48.2613 7.36696 48.1214C8.57904 47.8418 10.3289 47.4047 12.5152 46.7684C16.8863 45.4961 23.01 43.4251 30.0715 40.2194C44.1864 33.8119 62.113 22.8413 77.2526 4.59645L73.4048 1.40355C58.8746 18.914 41.6367 29.4782 28.0047 35.6666C21.1928 38.7589 15.2974 40.7511 11.1179 41.9676C9.02877 42.5757 7.3704 42.9893 6.24306 43.2494C5.67945 43.3794 5.24878 43.471 4.96359 43.5292C4.82101 43.5584 4.71481 43.5791 4.64658 43.5922C4.61246 43.5988 4.58784 43.6034 4.57291 43.6062C4.56544 43.6076 4.5604 43.6085 4.5578 43.609C4.5565 43.6092 4.55581 43.6093 4.55574 43.6093C4.55571 43.6093 4.55611 43.6093 4.5561 43.6093C4.55666 43.6092 4.55737 43.609 5 46.0695ZM72.8308 2.89872L72.3417 14.9619L77.3376 15.1644L77.8267 3.10128L72.8308 2.89872ZM75.1013 0.510368L63.0974 1.60702L63.5523 6.58628L75.5562 5.48963L75.1013 0.510368Z" fill="#8C8695"/>
</g>
<defs>
<filter id="filter0_d_728_55" x="0.2" y="0.5" width="102.52" height="91.009" filterUnits="userSpaceOnUse" color-interpolation-filters="sRGB">
<feFlood flood-opacity="0" result="BackgroundImageFix"/>
<feColorMatrix in="SourceAlpha" type="matrix" values="0 0 0 0 0 0 0 0 0 0 0 0 0 0 0 0 0 0 127 0" result="hardAlpha"/>
<feOffset dy="4"/>
<feGaussianBlur stdDeviation="1.15"/>
<feComposite in2="hardAlpha" operator="out"/>
<feColorMatrix type="matrix" values="0 0 0 0 0 0 0 0 0 0 0 0 0 0 0 0 0 0 0.25 0"/>
<feBlend mode="normal" in2="BackgroundImageFix" result="effect1_dropShadow_728_55"/>
<feBlend mode="normal" in="SourceGraphic" in2="effect1_dropShadow_728_55" result="shape"/>
</filter>
</defs>
</svg>
