<svg width="97" height="110" viewBox="0 0 97 110" fill="none" xmlns="http://www.w3.org/2000/svg">
<path fill-rule="evenodd" clip-rule="evenodd" d="M25.7126 103.504C25.8325 103.827 26.138 104.175 26.626 104.546C28.7708 106.179 32.6758 106.723 34.0215 105.942C34.8359 105.038 38.7479 100.667 42.6349 96.2033C46.6216 91.6312 52.7955 89.7214 58.3589 91.3469C61.9756 92.4404 71.0831 94.1402 77.9362 86.5065C84.9543 78.6802 85.7669 69.0622 85.6265 64.0239C85.5022 60.3891 85.9948 56.7595 87.0834 53.2893L87.3908 52.3076C87.5107 51.9252 87.7517 51.592 88.0773 51.3583C88.1261 51.3232 88.1768 51.2905 88.2292 51.2599C89.2093 50.6871 91.5333 50.8799 93.1813 51.0167C93.6896 51.0588 94.1336 51.0957 94.4539 51.1031C94.6969 51.1086 94.9364 51.1619 95.1587 51.26C95.381 51.3581 95.5819 51.499 95.7497 51.6747C95.9176 51.8504 96.0492 52.0575 96.1371 52.284C96.2249 52.5106 96.2673 52.7523 96.2618 52.9952C96.2562 53.2381 96.2029 53.4776 96.1048 53.6999C96.0067 53.9223 95.8658 54.1231 95.6901 54.291C95.5144 54.4589 95.3074 54.5905 95.0808 54.6783C94.8542 54.7662 94.6126 54.8086 94.3696 54.803L90.5054 54.7446C89.6144 57.7267 89.2156 60.8086 89.3217 63.9129C89.4795 69.515 88.5647 80.2022 80.6887 88.9852C72.4134 98.2016 61.5762 96.193 57.3005 94.9009C53.1327 93.6852 48.4664 95.1519 45.423 98.6428C41.0397 103.676 36.6192 108.593 36.6192 108.593C36.5364 108.687 36.4437 108.771 36.3429 108.844C34.3751 110.287 31.0283 110.251 28.1007 109.335C26.7058 108.898 25.4043 108.262 24.3919 107.495C23.3047 106.67 22.5675 105.718 22.2049 104.709C19.0688 104.929 15.5044 103.049 13.5243 100.506C12.5259 99.2238 12.0402 97.8891 12.0643 96.648C8.7264 96.0761 6.06801 93.7548 4.78141 91.3744C3.88251 89.7125 3.60991 87.9947 3.95838 86.5102C1.46736 84.9547 0.0999898 81.6805 0.0406085 78.7615C-0.0352944 74.9415 1.98699 72.0616 5.19264 71.4211C5.36036 71.3877 5.53187 71.3775 5.70238 71.3907C16.1002 72.2264 40.8858 75.88 45.9205 76.6303L48.4882 74.3244C48.4985 74.3155 48.5117 74.3036 48.5277 74.2889C31.9835 71.0897 21.8043 63.328 16.5214 55.3757C13.7759 51.2429 12.3444 47.0401 12.0775 43.4166C11.8456 40.2692 12.4883 37.2227 14.3173 35.2519L14.2658 35.2019C14.208 35.1444 14.1526 35.0847 14.0996 35.023C11.0835 32.1574 9.79018 27.851 10.6457 23.4912C11.2002 20.6674 12.5986 18.2319 14.3883 16.838C13.7446 14.2866 14.1976 11.2915 15.7224 8.217C17.6897 4.2496 21.0698 0.871901 23.5931 0.355133C24.0233 0.266884 24.4708 0.334523 24.8557 0.545955C25.2406 0.757388 25.5378 1.09883 25.694 1.50923C29.3848 11.2234 35.1542 18.2142 41.3946 23.9302C41.3637 20.9903 42.0582 16.6474 45.2645 13.0878C47.1307 11.0159 50.1814 9.01245 52.4001 9.18361C53.3107 9.24766 54.0178 9.96151 54.0999 10.8635C55.0983 22.1215 60.9296 29.8097 66.0769 36.5961L66.0839 36.6053C66.4628 37.1047 66.8837 37.6469 67.3266 38.2176L67.3269 38.2181C69.4955 41.0122 72.1931 44.4882 73.0958 46.9569L76.8289 41.311C77.879 39.7491 79.4039 38.5666 81.1781 37.9384C82.9522 37.3102 84.8815 37.2697 86.6805 37.8229C88.8825 38.5154 90.7201 40.0529 91.7901 42.0983C92.8601 44.1438 93.3851 45.9175 92.6982 48.1214C92.5516 48.5897 92.2249 48.9805 91.7901 49.208C91.3553 49.4355 90.8479 49.4809 90.3797 49.3343C89.9114 49.1876 89.5205 48.861 89.293 48.4262C89.0655 47.9914 89.0201 47.484 89.1667 47.0157C90.0048 44.3389 88.2552 42.1935 85.5748 41.3543C83.4701 40.6953 81.141 41.521 79.9095 43.3612L71.6319 55.8827C71.8165 57.0684 71.9022 58.3085 71.8791 59.6112C71.8747 59.8992 71.803 60.1823 71.6699 60.4377C71.5367 60.6932 71.3458 60.914 71.1122 61.0827C70.8787 61.2513 70.609 61.3631 70.3246 61.4091C70.0402 61.4551 69.749 61.4341 69.4742 61.3477C69.0931 61.2284 68.7609 60.9887 68.5275 60.6647C68.294 60.3406 68.172 59.9496 68.1796 59.5503C68.3557 49.5625 60.6116 43.7063 50.806 36.2973C40.7938 28.7306 29.4998 20.1926 23.0066 4.75484C21.8174 5.70477 20.2184 7.48031 19.039 9.86027C18.2853 11.3794 17.2 14.237 18.1994 16.6233C18.2135 16.6421 18.2272 16.6612 18.2405 16.6806C18.2654 16.7132 18.2891 16.7465 18.3117 16.7805C21.5387 21.182 30.0264 30.9509 34.704 31.7326C34.9437 31.7735 35.1731 31.8613 35.3789 31.9909C35.5847 32.1204 35.763 32.2893 35.9036 32.4878C36.0442 32.6862 36.1443 32.9105 36.1982 33.1476C36.2521 33.3848 36.2588 33.6303 36.2179 33.87C36.1769 34.1098 36.0892 34.3391 35.9596 34.5449C35.83 34.7508 35.6612 34.9291 35.4627 35.0696C35.2642 35.2102 35.04 35.3103 34.8028 35.3643C34.5656 35.4182 34.3202 35.4249 34.0804 35.3839C33.7264 35.319 33.3769 35.2316 33.034 35.1222C26.819 33.1764 18.9134 23.587 16.2219 20.133C15.3409 21.0323 14.6056 22.5302 14.2775 24.2017C13.9846 25.6901 13.6364 29.4367 16.6018 32.2977C16.6972 32.3769 16.785 32.4661 16.8636 32.5642L16.9682 32.6642C18.4594 34.0925 27.7954 43.0344 35.7488 44.4299C35.995 44.4641 36.2317 44.5476 36.4449 44.6754C36.6581 44.8031 36.8434 44.9725 36.9897 45.1735C37.136 45.3744 37.2403 45.6027 37.2964 45.8449C37.3525 46.087 37.3592 46.3379 37.3162 46.5827C37.2732 46.8275 37.1813 47.0611 37.046 47.2696C36.9107 47.4781 36.7348 47.6572 36.5288 47.7962C36.3227 47.9353 36.0908 48.0313 35.8468 48.0787C35.6028 48.1261 35.3518 48.1239 35.1087 48.0722C34.0762 47.892 33.057 47.6429 32.0579 47.3264C26.5548 45.6035 20.703 40.9988 17.2548 37.9703C16.4875 38.8068 15.8733 40.4986 16.0666 43.1227C16.2758 45.9614 17.4291 49.5133 19.8532 53.1623C24.673 60.4175 34.4875 67.9895 51.4315 70.7428C51.6624 70.7803 51.8776 70.856 52.0717 70.9623C52.7458 70.3694 53.2899 69.9408 53.4479 69.9506C53.9322 69.9807 54.3852 70.1997 54.7095 70.5606C55.0338 70.9214 55.2034 71.3952 55.1818 71.8799C55.1601 72.3645 54.949 72.8213 54.5938 73.1518L47.7455 79.9664C47.5419 80.1486 47.3006 80.2836 47.0388 80.3618C46.7771 80.4401 46.5013 80.4596 46.2311 80.419C45.9389 80.3741 17.122 76.0594 5.69202 75.1022C3.87695 75.6235 3.71842 77.7647 3.73537 78.689C3.78009 80.8164 4.89463 83.2824 6.6355 83.6696L7.62076 83.6468C7.80126 83.6426 8.00362 83.6382 8.22511 83.6334C11.3873 83.5648 18.449 83.4116 21.4616 82.6553C21.9378 82.5354 22.442 82.6096 22.8635 82.8616C23.2849 83.1135 23.589 83.5225 23.7088 83.9986C23.8287 84.4748 23.7545 84.979 23.5026 85.4005C23.2506 85.8219 22.8416 86.126 22.3655 86.2458C18.9739 87.0999 11.6376 87.263 8.33093 87.3365L8.3308 87.3365C8.10396 87.3416 7.89608 87.3462 7.70975 87.3506L7.55011 87.355C7.38612 88.0407 7.65444 88.9157 8.03203 89.6119C9.0996 91.5917 11.5847 93.3747 14.3203 93.0328C14.7029 92.9099 15.1918 92.7677 15.7645 92.6012L15.994 92.5345C16.6766 92.3371 17.4591 92.1625 18.2945 91.9761L18.2945 91.9761C20.1935 91.5524 22.3659 91.0677 24.261 90.1153C24.4782 90.0038 24.7154 89.9364 24.9588 89.917C25.2022 89.8976 25.447 89.9266 25.6792 90.0022C25.9114 90.0779 26.1262 90.1988 26.3115 90.3579C26.4967 90.517 26.6486 90.7112 26.7584 90.9293C26.8682 91.1474 26.9337 91.3851 26.9513 91.6287C26.9688 91.8722 26.9379 92.1168 26.8604 92.3484C26.783 92.58 26.6604 92.7939 26.4999 92.9779C26.3393 93.1619 26.144 93.3123 25.925 93.4204C23.7776 94.4999 21.3984 95.0463 19.3522 95.5162C18.5043 95.711 17.7136 95.8926 17.0202 96.0935C16.5804 96.2187 16.1877 96.3328 15.855 96.4346C15.7123 96.7286 15.6879 97.2657 16.439 98.2309C17.936 100.15 21.2279 101.686 22.9009 100.763C22.9516 100.726 23.0043 100.691 23.0588 100.66C23.6611 100.314 24.358 100.019 25.0676 99.7181C26.1959 99.2401 27.3561 98.7487 28.2179 98.0187C28.4027 97.8564 28.618 97.7325 28.8512 97.6544C29.0845 97.5762 29.3309 97.5454 29.5762 97.5636C29.8215 97.5819 30.0607 97.6488 30.2798 97.7606C30.4989 97.8724 30.6935 98.0267 30.8522 98.2146C31.011 98.4025 31.1307 98.6201 31.2043 98.8548C31.278 99.0895 31.3041 99.3365 31.2811 99.5814C31.2582 99.8263 31.1867 100.064 31.0707 100.281C30.9548 100.498 30.7967 100.69 30.6058 100.845C29.1785 102.052 27.0444 102.946 25.8019 103.467L25.7126 103.504ZM69.8392 48.7137C70.0673 49.1392 70.4536 49.4579 70.9147 49.601C71.0396 49.6402 71.1677 49.6657 71.2968 49.6776L70.2986 51.1873C67.3339 44.1479 60.5633 39.031 53.0382 33.3438L53.0382 33.3438L53.0375 33.3433L53.0149 33.3262C50.4012 31.3502 47.6967 29.3056 45.0211 27.0846C45.1415 26.8878 45.2241 26.6701 45.2645 26.4426C45.3083 26.196 45.3015 25.9431 45.2447 25.6991C44.9801 24.2281 47.1633 16.5595 47.8129 15.7973C48.6218 14.8459 49.592 14.0444 50.6791 13.4297C52.3028 24.5549 58.277 32.4356 63.1381 38.8433C63.6623 39.5347 64.1238 40.0919 64.5724 40.6337L64.5727 40.634L64.5728 40.6341C65.9584 42.3072 67.2225 43.8336 69.8392 48.7137Z" fill="url(#paint0_linear_728_26)"/>
<path fill-rule="evenodd" clip-rule="evenodd" d="M25.7126 103.504C25.8325 103.827 26.138 104.175 26.626 104.546C28.7708 106.179 32.6758 106.723 34.0215 105.942C34.8359 105.038 38.7479 100.667 42.6349 96.2033C46.6216 91.6312 52.7955 89.7214 58.3589 91.3469C61.9756 92.4404 71.0831 94.1402 77.9362 86.5065C84.9543 78.6802 85.7669 69.0622 85.6265 64.0239C85.5022 60.3891 85.9948 56.7595 87.0834 53.2893L87.3908 52.3076C87.5107 51.9252 87.7517 51.592 88.0773 51.3583C88.1261 51.3232 88.1768 51.2905 88.2292 51.2599C89.2093 50.6871 91.5333 50.8799 93.1813 51.0167C93.6896 51.0588 94.1336 51.0957 94.4539 51.1031C94.6969 51.1086 94.9364 51.1619 95.1587 51.26C95.381 51.3581 95.5819 51.499 95.7497 51.6747C95.9176 51.8504 96.0492 52.0575 96.1371 52.284C96.2249 52.5106 96.2673 52.7523 96.2618 52.9952C96.2562 53.2381 96.2029 53.4776 96.1048 53.6999C96.0067 53.9223 95.8658 54.1231 95.6901 54.291C95.5144 54.4589 95.3074 54.5905 95.0808 54.6783C94.8542 54.7662 94.6126 54.8086 94.3696 54.803L90.5054 54.7446C89.6144 57.7267 89.2156 60.8086 89.3217 63.9129C89.4795 69.515 88.5647 80.2022 80.6887 88.9852C72.4134 98.2016 61.5762 96.193 57.3005 94.9009C53.1327 93.6852 48.4664 95.1519 45.423 98.6428C41.0397 103.676 36.6192 108.593 36.6192 108.593C36.5364 108.687 36.4437 108.771 36.3429 108.844C34.3751 110.287 31.0283 110.251 28.1007 109.335C26.7058 108.898 25.4043 108.262 24.3919 107.495C23.3047 106.67 22.5675 105.718 22.2049 104.709C19.0688 104.929 15.5044 103.049 13.5243 100.506C12.5259 99.2238 12.0402 97.8891 12.0643 96.648C8.7264 96.0761 6.06801 93.7548 4.78141 91.3744C3.88251 89.7125 3.60991 87.9947 3.95838 86.5102C1.46736 84.9547 0.0999898 81.6805 0.0406085 78.7615C-0.0352944 74.9415 1.98699 72.0616 5.19264 71.4211C5.36036 71.3877 5.53187 71.3775 5.70238 71.3907C16.1002 72.2264 40.8858 75.88 45.9205 76.6303L48.4882 74.3244C48.4985 74.3155 48.5117 74.3036 48.5277 74.2889C31.9835 71.0897 21.8043 63.328 16.5214 55.3757C13.7759 51.2429 12.3444 47.0401 12.0775 43.4166C11.8456 40.2692 12.4883 37.2227 14.3173 35.2519L14.2658 35.2019C14.208 35.1444 14.1526 35.0847 14.0996 35.023C11.0835 32.1574 9.79018 27.851 10.6457 23.4912C11.2002 20.6674 12.5986 18.2319 14.3883 16.838C13.7446 14.2866 14.1976 11.2915 15.7224 8.217C17.6897 4.2496 21.0698 0.871901 23.5931 0.355133C24.0233 0.266884 24.4708 0.334523 24.8557 0.545955C25.2406 0.757388 25.5378 1.09883 25.694 1.50923C29.3848 11.2234 35.1542 18.2142 41.3946 23.9302C41.3637 20.9903 42.0582 16.6474 45.2645 13.0878C47.1307 11.0159 50.1814 9.01245 52.4001 9.18361C53.3107 9.24766 54.0178 9.96151 54.0999 10.8635C55.0983 22.1215 60.9296 29.8097 66.0769 36.5961L66.0839 36.6053C66.4628 37.1047 66.8837 37.6469 67.3266 38.2176L67.3269 38.2181C69.4955 41.0122 72.1931 44.4882 73.0958 46.9569L76.8289 41.311C77.879 39.7491 79.4039 38.5666 81.1781 37.9384C82.9522 37.3102 84.8815 37.2697 86.6805 37.8229C88.8825 38.5154 90.7201 40.0529 91.7901 42.0983C92.8601 44.1438 93.3851 45.9175 92.6982 48.1214C92.5516 48.5897 92.2249 48.9805 91.7901 49.208C91.3553 49.4355 90.8479 49.4809 90.3797 49.3343C89.9114 49.1876 89.5205 48.861 89.293 48.4262C89.0655 47.9914 89.0201 47.484 89.1667 47.0157C90.0048 44.3389 88.2552 42.1935 85.5748 41.3543C83.4701 40.6953 81.141 41.521 79.9095 43.3612L71.6319 55.8827C71.8165 57.0684 71.9022 58.3085 71.8791 59.6112C71.8747 59.8992 71.803 60.1823 71.6699 60.4377C71.5367 60.6932 71.3458 60.914 71.1122 61.0827C70.8787 61.2513 70.609 61.3631 70.3246 61.4091C70.0402 61.4551 69.749 61.4341 69.4742 61.3477C69.0931 61.2284 68.7609 60.9887 68.5275 60.6647C68.294 60.3406 68.172 59.9496 68.1796 59.5503C68.3557 49.5625 60.6116 43.7063 50.806 36.2973C40.7938 28.7306 29.4998 20.1926 23.0066 4.75484C21.8174 5.70477 20.2184 7.48031 19.039 9.86027C18.2853 11.3794 17.2 14.237 18.1994 16.6233C18.2135 16.6421 18.2272 16.6612 18.2405 16.6806C18.2654 16.7132 18.2891 16.7465 18.3117 16.7805C21.5387 21.182 30.0264 30.9509 34.704 31.7326C34.9437 31.7735 35.1731 31.8613 35.3789 31.9909C35.5847 32.1204 35.763 32.2893 35.9036 32.4878C36.0442 32.6862 36.1443 32.9105 36.1982 33.1476C36.2521 33.3848 36.2588 33.6303 36.2179 33.87C36.1769 34.1098 36.0892 34.3391 35.9596 34.5449C35.83 34.7508 35.6612 34.9291 35.4627 35.0696C35.2642 35.2102 35.04 35.3103 34.8028 35.3643C34.5656 35.4182 34.3202 35.4249 34.0804 35.3839C33.7264 35.319 33.3769 35.2316 33.034 35.1222C26.819 33.1764 18.9134 23.587 16.2219 20.133C15.3409 21.0323 14.6056 22.5302 14.2775 24.2017C13.9846 25.6901 13.6364 29.4367 16.6018 32.2977C16.6972 32.3769 16.785 32.4661 16.8636 32.5642L16.9682 32.6642C18.4594 34.0925 27.7954 43.0344 35.7488 44.4299C35.995 44.4641 36.2317 44.5476 36.4449 44.6754C36.6581 44.8031 36.8434 44.9725 36.9897 45.1735C37.136 45.3744 37.2403 45.6027 37.2964 45.8449C37.3525 46.087 37.3592 46.3379 37.3162 46.5827C37.2732 46.8275 37.1813 47.0611 37.046 47.2696C36.9107 47.4781 36.7348 47.6572 36.5288 47.7962C36.3227 47.9353 36.0908 48.0313 35.8468 48.0787C35.6028 48.1261 35.3518 48.1239 35.1087 48.0722C34.0762 47.892 33.057 47.6429 32.0579 47.3264C26.5548 45.6035 20.703 40.9988 17.2548 37.9703C16.4875 38.8068 15.8733 40.4986 16.0666 43.1227C16.2758 45.9614 17.4291 49.5133 19.8532 53.1623C24.673 60.4175 34.4875 67.9895 51.4315 70.7428C51.6624 70.7803 51.8776 70.856 52.0717 70.9623C52.7458 70.3694 53.2899 69.9408 53.4479 69.9506C53.9322 69.9807 54.3852 70.1997 54.7095 70.5606C55.0338 70.9214 55.2034 71.3952 55.1818 71.8799C55.1601 72.3645 54.949 72.8213 54.5938 73.1518L47.7455 79.9664C47.5419 80.1486 47.3006 80.2836 47.0388 80.3618C46.7771 80.4401 46.5013 80.4596 46.2311 80.419C45.9389 80.3741 17.122 76.0594 5.69202 75.1022C3.87695 75.6235 3.71842 77.7647 3.73537 78.689C3.78009 80.8164 4.89463 83.2824 6.6355 83.6696L7.62076 83.6468C7.80126 83.6426 8.00362 83.6382 8.22511 83.6334C11.3873 83.5648 18.449 83.4116 21.4616 82.6553C21.9378 82.5354 22.442 82.6096 22.8635 82.8616C23.2849 83.1135 23.589 83.5225 23.7088 83.9986C23.8287 84.4748 23.7545 84.979 23.5026 85.4005C23.2506 85.8219 22.8416 86.126 22.3655 86.2458C18.9739 87.0999 11.6376 87.263 8.33093 87.3365L8.3308 87.3365C8.10396 87.3416 7.89608 87.3462 7.70975 87.3506L7.55011 87.355C7.38612 88.0407 7.65444 88.9157 8.03203 89.6119C9.0996 91.5917 11.5847 93.3747 14.3203 93.0328C14.7029 92.9099 15.1918 92.7677 15.7645 92.6012L15.994 92.5345C16.6766 92.3371 17.4591 92.1625 18.2945 91.9761L18.2945 91.9761C20.1935 91.5524 22.3659 91.0677 24.261 90.1153C24.4782 90.0038 24.7154 89.9364 24.9588 89.917C25.2022 89.8976 25.447 89.9266 25.6792 90.0022C25.9114 90.0779 26.1262 90.1988 26.3115 90.3579C26.4967 90.517 26.6486 90.7112 26.7584 90.9293C26.8682 91.1474 26.9337 91.3851 26.9513 91.6287C26.9688 91.8722 26.9379 92.1168 26.8604 92.3484C26.783 92.58 26.6604 92.7939 26.4999 92.9779C26.3393 93.1619 26.144 93.3123 25.925 93.4204C23.7776 94.4999 21.3984 95.0463 19.3522 95.5162C18.5043 95.711 17.7136 95.8926 17.0202 96.0935C16.5804 96.2187 16.1877 96.3328 15.855 96.4346C15.7123 96.7286 15.6879 97.2657 16.439 98.2309C17.936 100.15 21.2279 101.686 22.9009 100.763C22.9516 100.726 23.0043 100.691 23.0588 100.66C23.6611 100.314 24.358 100.019 25.0676 99.7181C26.1959 99.2401 27.3561 98.7487 28.2179 98.0187C28.4027 97.8564 28.618 97.7325 28.8512 97.6544C29.0845 97.5762 29.3309 97.5454 29.5762 97.5636C29.8215 97.5819 30.0607 97.6488 30.2798 97.7606C30.4989 97.8724 30.6935 98.0267 30.8522 98.2146C31.011 98.4025 31.1307 98.6201 31.2043 98.8548C31.278 99.0895 31.3041 99.3365 31.2811 99.5814C31.2582 99.8263 31.1867 100.064 31.0707 100.281C30.9548 100.498 30.7967 100.69 30.6058 100.845C29.1785 102.052 27.0444 102.946 25.8019 103.467L25.7126 103.504ZM69.8392 48.7137C70.0673 49.1392 70.4536 49.4579 70.9147 49.601C71.0396 49.6402 71.1677 49.6657 71.2968 49.6776L70.2986 51.1873C67.3339 44.1479 60.5633 39.031 53.0382 33.3438L53.0382 33.3438L53.0375 33.3433L53.0149 33.3262C50.4012 31.3502 47.6967 29.3056 45.0211 27.0846C45.1415 26.8878 45.2241 26.6701 45.2645 26.4426C45.3083 26.196 45.3015 25.9431 45.2447 25.6991C44.9801 24.2281 47.1633 16.5595 47.8129 15.7973C48.6218 14.8459 49.592 14.0444 50.6791 13.4297C52.3028 24.5549 58.277 32.4356 63.1381 38.8433C63.6623 39.5347 64.1238 40.0919 64.5724 40.6337L64.5727 40.634L64.5728 40.6341C65.9584 42.3072 67.2225 43.8336 69.8392 48.7137Z" fill="#0078AB"/>
<path fill-rule="evenodd" clip-rule="evenodd" d="M25.7126 103.504C25.8325 103.827 26.138 104.175 26.626 104.546C28.7708 106.179 32.6758 106.723 34.0215 105.942C34.8359 105.038 38.7479 100.667 42.6349 96.2033C46.6216 91.6312 52.7955 89.7214 58.3589 91.3469C61.9756 92.4404 71.0831 94.1402 77.9362 86.5065C84.9543 78.6802 85.7669 69.0622 85.6265 64.0239C85.5022 60.3891 85.9948 56.7595 87.0834 53.2893L87.3908 52.3076C87.5107 51.9252 87.7517 51.592 88.0773 51.3583C88.1261 51.3232 88.1768 51.2905 88.2292 51.2599C89.2093 50.6871 91.5333 50.8799 93.1813 51.0167C93.6896 51.0588 94.1336 51.0957 94.4539 51.1031C94.6969 51.1086 94.9364 51.1619 95.1587 51.26C95.381 51.3581 95.5819 51.499 95.7497 51.6747C95.9176 51.8504 96.0492 52.0575 96.1371 52.284C96.2249 52.5106 96.2673 52.7523 96.2618 52.9952C96.2562 53.2381 96.2029 53.4776 96.1048 53.6999C96.0067 53.9223 95.8658 54.1231 95.6901 54.291C95.5144 54.4589 95.3074 54.5905 95.0808 54.6783C94.8542 54.7662 94.6126 54.8086 94.3696 54.803L90.5054 54.7446C89.6144 57.7267 89.2156 60.8086 89.3217 63.9129C89.4795 69.515 88.5647 80.2022 80.6887 88.9852C72.4134 98.2016 61.5762 96.193 57.3005 94.9009C53.1327 93.6852 48.4664 95.1519 45.423 98.6428C41.0397 103.676 36.6192 108.593 36.6192 108.593C36.5364 108.687 36.4437 108.771 36.3429 108.844C34.3751 110.287 31.0283 110.251 28.1007 109.335C26.7058 108.898 25.4043 108.262 24.3919 107.495C23.3047 106.67 22.5675 105.718 22.2049 104.709C19.0688 104.929 15.5044 103.049 13.5243 100.506C12.5259 99.2238 12.0402 97.8891 12.0643 96.648C8.7264 96.0761 6.06801 93.7548 4.78141 91.3744C3.88251 89.7125 3.60991 87.9947 3.95838 86.5102C1.46736 84.9547 0.0999898 81.6805 0.0406085 78.7615C-0.0352944 74.9415 1.98699 72.0616 5.19264 71.4211C5.36036 71.3877 5.53187 71.3775 5.70238 71.3907C16.1002 72.2264 40.8858 75.88 45.9205 76.6303L48.4882 74.3244C48.4985 74.3155 48.5117 74.3036 48.5277 74.2889C31.9835 71.0897 21.8043 63.328 16.5214 55.3757C13.7759 51.2429 12.3444 47.0401 12.0775 43.4166C11.8456 40.2692 12.4883 37.2227 14.3173 35.2519L14.2658 35.2019C14.208 35.1444 14.1526 35.0847 14.0996 35.023C11.0835 32.1574 9.79018 27.851 10.6457 23.4912C11.2002 20.6674 12.5986 18.2319 14.3883 16.838C13.7446 14.2866 14.1976 11.2915 15.7224 8.217C17.6897 4.2496 21.0698 0.871901 23.5931 0.355133C24.0233 0.266884 24.4708 0.334523 24.8557 0.545955C25.2406 0.757388 25.5378 1.09883 25.694 1.50923C29.3848 11.2234 35.1542 18.2142 41.3946 23.9302C41.3637 20.9903 42.0582 16.6474 45.2645 13.0878C47.1307 11.0159 50.1814 9.01245 52.4001 9.18361C53.3107 9.24766 54.0178 9.96151 54.0999 10.8635C55.0983 22.1215 60.9296 29.8097 66.0769 36.5961L66.0839 36.6053C66.4628 37.1047 66.8837 37.6469 67.3266 38.2176L67.3269 38.2181C69.4955 41.0122 72.1931 44.4882 73.0958 46.9569L76.8289 41.311C77.879 39.7491 79.4039 38.5666 81.1781 37.9384C82.9522 37.3102 84.8815 37.2697 86.6805 37.8229C88.8825 38.5154 90.7201 40.0529 91.7901 42.0983C92.8601 44.1438 93.3851 45.9175 92.6982 48.1214C92.5516 48.5897 92.2249 48.9805 91.7901 49.208C91.3553 49.4355 90.8479 49.4809 90.3797 49.3343C89.9114 49.1876 89.5205 48.861 89.293 48.4262C89.0655 47.9914 89.0201 47.484 89.1667 47.0157C90.0048 44.3389 88.2552 42.1935 85.5748 41.3543C83.4701 40.6953 81.141 41.521 79.9095 43.3612L71.6319 55.8827C71.8165 57.0684 71.9022 58.3085 71.8791 59.6112C71.8747 59.8992 71.803 60.1823 71.6699 60.4377C71.5367 60.6932 71.3458 60.914 71.1122 61.0827C70.8787 61.2513 70.609 61.3631 70.3246 61.4091C70.0402 61.4551 69.749 61.4341 69.4742 61.3477C69.0931 61.2284 68.7609 60.9887 68.5275 60.6647C68.294 60.3406 68.172 59.9496 68.1796 59.5503C68.3557 49.5625 60.6116 43.7063 50.806 36.2973C40.7938 28.7306 29.4998 20.1926 23.0066 4.75484C21.8174 5.70477 20.2184 7.48031 19.039 9.86027C18.2853 11.3794 17.2 14.237 18.1994 16.6233C18.2135 16.6421 18.2272 16.6612 18.2405 16.6806C18.2654 16.7132 18.2891 16.7465 18.3117 16.7805C21.5387 21.182 30.0264 30.9509 34.704 31.7326C34.9437 31.7735 35.1731 31.8613 35.3789 31.9909C35.5847 32.1204 35.763 32.2893 35.9036 32.4878C36.0442 32.6862 36.1443 32.9105 36.1982 33.1476C36.2521 33.3848 36.2588 33.6303 36.2179 33.87C36.1769 34.1098 36.0892 34.3391 35.9596 34.5449C35.83 34.7508 35.6612 34.9291 35.4627 35.0696C35.2642 35.2102 35.04 35.3103 34.8028 35.3643C34.5656 35.4182 34.3202 35.4249 34.0804 35.3839C33.7264 35.319 33.3769 35.2316 33.034 35.1222C26.819 33.1764 18.9134 23.587 16.2219 20.133C15.3409 21.0323 14.6056 22.5302 14.2775 24.2017C13.9846 25.6901 13.6364 29.4367 16.6018 32.2977C16.6972 32.3769 16.785 32.4661 16.8636 32.5642L16.9682 32.6642C18.4594 34.0925 27.7954 43.0344 35.7488 44.4299C35.995 44.4641 36.2317 44.5476 36.4449 44.6754C36.6581 44.8031 36.8434 44.9725 36.9897 45.1735C37.136 45.3744 37.2403 45.6027 37.2964 45.8449C37.3525 46.087 37.3592 46.3379 37.3162 46.5827C37.2732 46.8275 37.1813 47.0611 37.046 47.2696C36.9107 47.4781 36.7348 47.6572 36.5288 47.7962C36.3227 47.9353 36.0908 48.0313 35.8468 48.0787C35.6028 48.1261 35.3518 48.1239 35.1087 48.0722C34.0762 47.892 33.057 47.6429 32.0579 47.3264C26.5548 45.6035 20.703 40.9988 17.2548 37.9703C16.4875 38.8068 15.8733 40.4986 16.0666 43.1227C16.2758 45.9614 17.4291 49.5133 19.8532 53.1623C24.673 60.4175 34.4875 67.9895 51.4315 70.7428C51.6624 70.7803 51.8776 70.856 52.0717 70.9623C52.7458 70.3694 53.2899 69.9408 53.4479 69.9506C53.9322 69.9807 54.3852 70.1997 54.7095 70.5606C55.0338 70.9214 55.2034 71.3952 55.1818 71.8799C55.1601 72.3645 54.949 72.8213 54.5938 73.1518L47.7455 79.9664C47.5419 80.1486 47.3006 80.2836 47.0388 80.3618C46.7771 80.4401 46.5013 80.4596 46.2311 80.419C45.9389 80.3741 17.122 76.0594 5.69202 75.1022C3.87695 75.6235 3.71842 77.7647 3.73537 78.689C3.78009 80.8164 4.89463 83.2824 6.6355 83.6696L7.62076 83.6468C7.80126 83.6426 8.00362 83.6382 8.22511 83.6334C11.3873 83.5648 18.449 83.4116 21.4616 82.6553C21.9378 82.5354 22.442 82.6096 22.8635 82.8616C23.2849 83.1135 23.589 83.5225 23.7088 83.9986C23.8287 84.4748 23.7545 84.979 23.5026 85.4005C23.2506 85.8219 22.8416 86.126 22.3655 86.2458C18.9739 87.0999 11.6376 87.263 8.33093 87.3365L8.3308 87.3365C8.10396 87.3416 7.89608 87.3462 7.70975 87.3506L7.55011 87.355C7.38612 88.0407 7.65444 88.9157 8.03203 89.6119C9.0996 91.5917 11.5847 93.3747 14.3203 93.0328C14.7029 92.9099 15.1918 92.7677 15.7645 92.6012L15.994 92.5345C16.6766 92.3371 17.4591 92.1625 18.2945 91.9761L18.2945 91.9761C20.1935 91.5524 22.3659 91.0677 24.261 90.1153C24.4782 90.0038 24.7154 89.9364 24.9588 89.917C25.2022 89.8976 25.447 89.9266 25.6792 90.0022C25.9114 90.0779 26.1262 90.1988 26.3115 90.3579C26.4967 90.517 26.6486 90.7112 26.7584 90.9293C26.8682 91.1474 26.9337 91.3851 26.9513 91.6287C26.9688 91.8722 26.9379 92.1168 26.8604 92.3484C26.783 92.58 26.6604 92.7939 26.4999 92.9779C26.3393 93.1619 26.144 93.3123 25.925 93.4204C23.7776 94.4999 21.3984 95.0463 19.3522 95.5162C18.5043 95.711 17.7136 95.8926 17.0202 96.0935C16.5804 96.2187 16.1877 96.3328 15.855 96.4346C15.7123 96.7286 15.6879 97.2657 16.439 98.2309C17.936 100.15 21.2279 101.686 22.9009 100.763C22.9516 100.726 23.0043 100.691 23.0588 100.66C23.6611 100.314 24.358 100.019 25.0676 99.7181C26.1959 99.2401 27.3561 98.7487 28.2179 98.0187C28.4027 97.8564 28.618 97.7325 28.8512 97.6544C29.0845 97.5762 29.3309 97.5454 29.5762 97.5636C29.8215 97.5819 30.0607 97.6488 30.2798 97.7606C30.4989 97.8724 30.6935 98.0267 30.8522 98.2146C31.011 98.4025 31.1307 98.6201 31.2043 98.8548C31.278 99.0895 31.3041 99.3365 31.2811 99.5814C31.2582 99.8263 31.1867 100.064 31.0707 100.281C30.9548 100.498 30.7967 100.69 30.6058 100.845C29.1785 102.052 27.0444 102.946 25.8019 103.467L25.7126 103.504ZM69.8392 48.7137C70.0673 49.1392 70.4536 49.4579 70.9147 49.601C71.0396 49.6402 71.1677 49.6657 71.2968 49.6776L70.2986 51.1873C67.3339 44.1479 60.5633 39.031 53.0382 33.3438L53.0382 33.3438L53.0375 33.3433L53.0149 33.3262C50.4012 31.3502 47.6967 29.3056 45.0211 27.0846C45.1415 26.8878 45.2241 26.6701 45.2645 26.4426C45.3083 26.196 45.3015 25.9431 45.2447 25.6991C44.9801 24.2281 47.1633 16.5595 47.8129 15.7973C48.6218 14.8459 49.592 14.0444 50.6791 13.4297C52.3028 24.5549 58.277 32.4356 63.1381 38.8433C63.6623 39.5347 64.1238 40.0919 64.5724 40.6337L64.5727 40.634L64.5728 40.6341C65.9584 42.3072 67.2225 43.8336 69.8392 48.7137Z" fill="#8C8695"/>
<defs>
<linearGradient id="paint0_linear_728_26" x1="61.6561" y1="12.0288" x2="30.9155" y2="110.216" gradientUnits="userSpaceOnUse">
<stop stop-color="#00B3E6"/>
<stop offset="1" stop-color="#008FCC"/>
</linearGradient>
</defs>
</svg>
