<svg width="155" height="160" viewBox="0 0 155 160" fill="none" xmlns="http://www.w3.org/2000/svg">
<g filter="url(#filter0_d_704_28)">
<path d="M87.9493 117.178C91.4321 116.829 94.3344 117.613 95.3502 118.048L99.7037 118.048L104.928 114.566L111.458 108.905L115.812 98.457L117.118 88.0086L117.553 77.9956C117.553 77.9956 121.036 76.6895 121.907 76.6895C122.603 76.6895 124.228 76.1096 124.954 75.8197C123.358 74.5136 120.078 71.6403 119.73 70.5955C119.294 69.2894 119.294 68.4187 119.294 67.548C119.294 66.6773 117.988 65.3713 117.553 64.5006C117.118 63.6299 113.635 62.7592 113.2 62.7592C112.851 62.7592 109.281 63.3397 107.54 63.6299L102.751 72.3369L101.01 70.5955L88.82 55.7936L82.2898 39.2503L80.113 34.8968L77.0656 36.2029L74.0181 40.121L72.2767 45.7806L70.9707 50.1341L68.3586 47.522L60.9577 40.121L53.1214 27.0605L51.38 27.0605C50.9446 27.0605 47.4618 30.5433 47.0265 30.9787C46.6782 31.327 45.4302 36.0578 44.8497 38.3796L43.979 43.6038L41.3669 48.828C41.0187 49.5246 41.2218 52.601 41.3669 54.0522L44.8497 59.7117L42.673 65.3713L43.979 73.6429C46.5911 77.2708 51.9024 84.6137 52.2507 84.962C52.686 85.3974 61.8284 90.1862 62.2637 90.1862C62.612 90.1862 69.3744 93.3788 72.7121 94.975L80.5484 97.1518L76.1949 101.941L69.2293 102.376L41.8023 97.1518L32.6599 97.1518C31.9634 97.1518 30.6283 101.215 30.0479 103.247C30.7734 104.262 32.2246 106.381 32.2246 106.729C32.2246 107.165 33.966 109.777 34.4013 110.212C34.8367 110.648 34.8367 114.13 35.272 114.566C35.6203 114.914 39.7707 118.194 41.8023 119.79C44.2693 121.967 49.3774 126.407 50.0739 126.756C50.9446 127.191 53.5567 128.932 53.9921 128.932C54.4274 128.932 60.087 131.98 60.5223 132.415C60.9577 132.85 67.9232 127.626 68.7939 127.191C69.6646 126.756 73.1474 120.66 79.6777 118.048C86.2079 115.436 83.5958 117.613 87.9493 117.178Z" fill="url(#paint0_linear_704_28)"/>
<path d="M87.9493 117.178C91.4321 116.829 94.3344 117.613 95.3502 118.048L99.7037 118.048L104.928 114.566L111.458 108.905L115.812 98.457L117.118 88.0086L117.553 77.9956C117.553 77.9956 121.036 76.6895 121.907 76.6895C122.603 76.6895 124.228 76.1096 124.954 75.8197C123.358 74.5136 120.078 71.6403 119.73 70.5955C119.294 69.2894 119.294 68.4187 119.294 67.548C119.294 66.6773 117.988 65.3713 117.553 64.5006C117.118 63.6299 113.635 62.7592 113.2 62.7592C112.851 62.7592 109.281 63.3397 107.54 63.6299L102.751 72.3369L101.01 70.5955L88.82 55.7936L82.2898 39.2503L80.113 34.8968L77.0656 36.2029L74.0181 40.121L72.2767 45.7806L70.9707 50.1341L68.3586 47.522L60.9577 40.121L53.1214 27.0605L51.38 27.0605C50.9446 27.0605 47.4618 30.5433 47.0265 30.9787C46.6782 31.327 45.4302 36.0578 44.8497 38.3796L43.979 43.6038L41.3669 48.828C41.0187 49.5246 41.2218 52.601 41.3669 54.0522L44.8497 59.7117L42.673 65.3713L43.979 73.6429C46.5911 77.2708 51.9024 84.6137 52.2507 84.962C52.686 85.3974 61.8284 90.1862 62.2637 90.1862C62.612 90.1862 69.3744 93.3788 72.7121 94.975L80.5484 97.1518L76.1949 101.941L69.2293 102.376L41.8023 97.1518L32.6599 97.1518C31.9634 97.1518 30.6283 101.215 30.0479 103.247C30.7734 104.262 32.2246 106.381 32.2246 106.729C32.2246 107.165 33.966 109.777 34.4013 110.212C34.8367 110.648 34.8367 114.13 35.272 114.566C35.6203 114.914 39.7707 118.194 41.8023 119.79C44.2693 121.967 49.3774 126.407 50.0739 126.756C50.9446 127.191 53.5567 128.932 53.9921 128.932C54.4274 128.932 60.087 131.98 60.5223 132.415C60.9577 132.85 67.9232 127.626 68.7939 127.191C69.6646 126.756 73.1474 120.66 79.6777 118.048C86.2079 115.436 83.5958 117.613 87.9493 117.178Z" fill="white"/>
<path fill-rule="evenodd" clip-rule="evenodd" d="M54.7126 127.503C54.8325 127.826 55.138 128.174 55.626 128.545C57.7708 130.178 61.6758 130.722 63.0215 129.942C63.8359 129.037 67.7479 124.667 71.6349 120.203C75.6216 115.631 81.7955 113.721 87.3589 115.346C90.9756 116.44 100.083 118.14 106.936 110.506C113.954 102.68 114.767 93.0617 114.626 88.0235C114.502 84.3886 114.995 80.759 116.083 77.2889L116.391 76.3071C116.511 75.9247 116.752 75.5916 117.077 75.3578C117.126 75.3228 117.177 75.29 117.229 75.2594C118.209 74.6866 120.533 74.8794 122.181 75.0162C122.69 75.0583 123.134 75.0952 123.454 75.1026C123.697 75.1081 123.936 75.1614 124.159 75.2595C124.381 75.3576 124.582 75.4985 124.75 75.6742C124.918 75.8499 125.049 76.057 125.137 76.2835C125.225 76.5101 125.267 76.7518 125.262 76.9947C125.256 77.2377 125.203 77.4771 125.105 77.6995C125.007 77.9218 124.866 78.1226 124.69 78.2905C124.514 78.4584 124.307 78.59 124.081 78.6779C123.854 78.7657 123.613 78.8081 123.37 78.8025L119.505 78.7441C118.614 81.7262 118.216 84.8081 118.322 87.9124C118.479 93.5145 117.565 104.202 109.689 112.985C101.413 122.201 90.5762 120.193 86.3005 118.9C82.1327 117.685 77.4664 119.151 74.423 122.642C70.0397 127.676 65.6192 132.593 65.6192 132.593C65.5364 132.686 65.4437 132.77 65.3429 132.844C63.3751 134.287 60.0283 134.251 57.1007 133.334C55.7058 132.898 54.4043 132.261 53.3919 131.495C52.3047 130.669 51.5675 129.717 51.2049 128.708C48.0688 128.928 44.5044 127.049 42.5243 124.505C41.5259 123.223 41.0402 121.889 41.0643 120.648C37.7264 120.076 35.068 117.754 33.7814 115.374C32.8825 113.712 32.6099 111.994 32.9584 110.51C30.4674 108.954 29.1 105.68 29.0406 102.761C28.9647 98.941 30.987 96.0611 34.1926 95.4206C34.3604 95.3872 34.5319 95.377 34.7024 95.3902C45.1002 96.226 69.8858 99.8795 74.9205 100.63L77.4882 98.3239C77.4985 98.315 77.5117 98.3031 77.5277 98.2884C60.9835 95.0892 50.8043 87.3275 45.5214 79.3752C42.7759 75.2424 41.3444 71.0396 41.0775 67.4161C40.8456 64.2687 41.4883 61.2222 43.3173 59.2514L43.2658 59.2014C43.208 59.1439 43.1526 59.0842 43.0996 59.0225C40.0835 56.1569 38.7902 51.8505 39.6457 47.4907C40.2002 44.6669 41.5986 42.2315 43.3883 40.8375C42.7446 38.2861 43.1976 35.291 44.7224 32.2165C46.6897 28.2491 50.0698 24.8714 52.5931 24.3546C53.0233 24.2664 53.4708 24.334 53.8557 24.5455C54.2406 24.7569 54.5378 25.0983 54.694 25.5087C58.3848 35.2229 64.1542 42.2137 70.3946 47.9297C70.3637 44.9898 71.0582 40.6469 74.2645 37.0873C76.1307 35.0154 79.1814 33.012 81.4001 33.1831C82.3107 33.2472 83.0178 33.961 83.0999 34.8631C84.0983 46.121 89.9296 53.8092 95.0769 60.5956L95.0839 60.6048C95.4628 61.1042 95.8837 61.6465 96.3266 62.2171L96.3269 62.2176C98.4955 65.0118 101.193 68.4877 102.096 70.9564L105.829 65.3105C106.879 63.7486 108.404 62.5661 110.178 61.9379C111.952 61.3097 113.881 61.2692 115.68 61.8224C117.883 62.5149 119.72 64.0524 120.79 66.0979C121.86 68.1433 122.385 69.917 121.698 72.1209C121.552 72.5892 121.225 72.98 120.79 73.2075C120.355 73.435 119.848 73.4804 119.38 73.3338C118.911 73.1872 118.52 72.8605 118.293 72.4257C118.066 71.9909 118.02 71.4835 118.167 71.0152C119.005 68.3384 117.255 66.193 114.575 65.3538C112.47 64.6949 110.141 65.5206 108.91 67.3607L100.632 79.8822C100.816 81.068 100.902 82.308 100.879 83.6107C100.875 83.8988 100.803 84.1818 100.67 84.4372C100.537 84.6927 100.346 84.9135 100.112 85.0822C99.8787 85.2508 99.609 85.3626 99.3246 85.4086C99.0402 85.4546 98.749 85.4336 98.4742 85.3472C98.0931 85.2279 97.7609 84.9882 97.5275 84.6642C97.294 84.3401 97.172 83.9491 97.1796 83.5498C97.3557 73.562 89.6116 67.7058 79.806 60.2968C69.7938 52.7301 58.4998 44.1921 52.0066 28.7544C50.8174 29.7043 49.2184 31.4798 48.039 33.8598C47.2853 35.3789 46.2 38.2365 47.1994 40.6228C47.2135 40.6416 47.2272 40.6607 47.2405 40.6801C47.2654 40.7127 47.2891 40.746 47.3117 40.78C50.5387 45.1815 59.0264 54.9504 63.704 55.7321C63.9437 55.773 64.1731 55.8608 64.3789 55.9904C64.5847 56.1199 64.763 56.2888 64.9036 56.4873C65.0442 56.6857 65.1443 56.91 65.1982 57.1471C65.2521 57.3843 65.2588 57.6298 65.2179 57.8695C65.1769 58.1093 65.0892 58.3386 64.9596 58.5445C64.83 58.7503 64.6612 58.9286 64.4627 59.0692C64.2642 59.2097 64.04 59.3098 63.8028 59.3638C63.5656 59.4177 63.3202 59.4244 63.0804 59.3834C62.7264 59.3185 62.3769 59.2311 62.034 59.1217C55.819 57.1759 47.9134 47.5865 45.2219 44.1325C44.3409 45.0318 43.6056 46.5297 43.2775 48.2012C42.9846 49.6896 42.6364 53.4362 45.6018 56.2972C45.6972 56.3764 45.785 56.4656 45.8636 56.5637L45.9682 56.6637C47.4594 58.092 56.7954 67.0339 64.7488 68.4294C64.995 68.4636 65.2317 68.5471 65.4449 68.6749C65.6581 68.8026 65.8434 68.972 65.9897 69.173C66.136 69.3739 66.2403 69.6022 66.2964 69.8444C66.3525 70.0865 66.3592 70.3375 66.3162 70.5822C66.2732 70.827 66.1813 71.0607 66.046 71.2692C65.9107 71.4776 65.7348 71.6567 65.5288 71.7958C65.3227 71.9348 65.0908 72.0308 64.8468 72.0782C64.6028 72.1257 64.3518 72.1234 64.1087 72.0717C63.0762 71.8915 62.057 71.6424 61.0579 71.3259C55.5548 69.603 49.703 64.9983 46.2548 61.9698C45.4875 62.8063 44.8733 64.4981 45.0666 67.1222C45.2758 69.9609 46.4291 73.5128 48.8532 77.1618C53.673 84.417 63.4875 91.989 80.4315 94.7423C80.6624 94.7799 80.8776 94.8555 81.0717 94.9618C81.7458 94.3689 82.2899 93.9403 82.4479 93.9501C82.9322 93.9802 83.3852 94.1992 83.7095 94.5601C84.0338 94.9209 84.2034 95.3947 84.1818 95.8794C84.1601 96.3641 83.949 96.8208 83.5938 97.1513L76.7455 103.966C76.5419 104.148 76.3006 104.283 76.0388 104.361C75.7771 104.44 75.5013 104.459 75.2311 104.419C74.9389 104.374 46.122 100.059 34.692 99.1017C32.8769 99.623 32.7184 101.764 32.7354 102.689C32.7801 104.816 33.8946 107.282 35.6355 107.669L36.6208 107.646C36.8013 107.642 37.0036 107.638 37.2251 107.633C40.3873 107.564 47.449 107.411 50.4616 106.655C50.9378 106.535 51.442 106.609 51.8635 106.861C52.2849 107.113 52.589 107.522 52.7088 107.998C52.8287 108.474 52.7545 108.979 52.5026 109.4C52.2506 109.821 51.8416 110.126 51.3655 110.245C47.9739 111.099 40.6376 111.263 37.3309 111.336L37.3308 111.336C37.104 111.341 36.8961 111.346 36.7097 111.35L36.5501 111.354C36.3861 112.04 36.6544 112.915 37.032 113.611C38.0996 115.591 40.5847 117.374 43.3203 117.032C43.7029 116.909 44.1918 116.767 44.7645 116.601L44.994 116.534C45.6766 116.337 46.4591 116.162 47.2945 115.976L47.2945 115.976C49.1935 115.552 51.3659 115.067 53.261 114.115C53.4782 114.003 53.7154 113.936 53.9588 113.917C54.2022 113.897 54.447 113.926 54.6792 114.002C54.9114 114.077 55.1262 114.198 55.3115 114.357C55.4967 114.517 55.6486 114.711 55.7584 114.929C55.8682 115.147 55.9337 115.385 55.9513 115.628C55.9688 115.872 55.9379 116.116 55.8604 116.348C55.783 116.579 55.6604 116.793 55.4999 116.977C55.3393 117.161 55.144 117.312 54.925 117.42C52.7776 118.499 50.3984 119.046 48.3522 119.516C47.5043 119.71 46.7136 119.892 46.0202 120.093C45.5804 120.218 45.1877 120.332 44.855 120.434C44.7123 120.728 44.6879 121.265 45.439 122.23C46.936 124.15 50.2279 125.685 51.9009 124.762C51.9516 124.725 52.0043 124.691 52.0588 124.659C52.6611 124.313 53.358 124.018 54.0676 123.718C55.1959 123.24 56.3561 122.748 57.2179 122.018C57.4027 121.856 57.618 121.732 57.8512 121.654C58.0845 121.576 58.3309 121.545 58.5762 121.563C58.8215 121.581 59.0607 121.648 59.2798 121.76C59.4989 121.872 59.6935 122.026 59.8522 122.214C60.011 122.402 60.1307 122.62 60.2043 122.854C60.278 123.089 60.3041 123.336 60.2811 123.581C60.2582 123.826 60.1867 124.064 60.0707 124.281C59.9548 124.497 59.7967 124.689 59.6058 124.844C58.1785 126.051 56.0444 126.945 54.8019 127.466L54.7126 127.503ZM98.8392 72.7132C99.0673 73.1387 99.4536 73.4574 99.9147 73.6006C100.04 73.6397 100.168 73.6652 100.297 73.6771L99.2986 75.1868C96.3339 68.1474 89.5633 63.0305 82.0382 57.3433L82.0382 57.3433L82.0375 57.3428L82.0149 57.3257C79.4012 55.3497 76.6967 53.3051 74.0211 51.0842C74.1415 50.8874 74.2241 50.6696 74.2645 50.4421C74.3083 50.1955 74.3015 49.9426 74.2447 49.6986C73.9801 48.2276 76.1633 40.559 76.8129 39.7968C77.6218 38.8454 78.592 38.0439 79.6791 37.4292C81.3028 48.5544 87.277 56.4351 92.1381 62.8428C92.6623 63.5342 93.1238 64.0914 93.5724 64.6332L93.5727 64.6335L93.5728 64.6336C94.9584 66.3067 96.2225 67.8331 98.8392 72.7132Z" fill="url(#paint1_linear_704_28)"/>
<path fill-rule="evenodd" clip-rule="evenodd" d="M54.7126 127.503C54.8325 127.826 55.138 128.174 55.626 128.545C57.7708 130.178 61.6758 130.722 63.0215 129.942C63.8359 129.037 67.7479 124.667 71.6349 120.203C75.6216 115.631 81.7955 113.721 87.3589 115.346C90.9756 116.44 100.083 118.14 106.936 110.506C113.954 102.68 114.767 93.0617 114.626 88.0235C114.502 84.3886 114.995 80.759 116.083 77.2889L116.391 76.3071C116.511 75.9247 116.752 75.5916 117.077 75.3578C117.126 75.3228 117.177 75.29 117.229 75.2594C118.209 74.6866 120.533 74.8794 122.181 75.0162C122.69 75.0583 123.134 75.0952 123.454 75.1026C123.697 75.1081 123.936 75.1614 124.159 75.2595C124.381 75.3576 124.582 75.4985 124.75 75.6742C124.918 75.8499 125.049 76.057 125.137 76.2835C125.225 76.5101 125.267 76.7518 125.262 76.9947C125.256 77.2377 125.203 77.4771 125.105 77.6995C125.007 77.9218 124.866 78.1226 124.69 78.2905C124.514 78.4584 124.307 78.59 124.081 78.6779C123.854 78.7657 123.613 78.8081 123.37 78.8025L119.505 78.7441C118.614 81.7262 118.216 84.8081 118.322 87.9124C118.479 93.5145 117.565 104.202 109.689 112.985C101.413 122.201 90.5762 120.193 86.3005 118.9C82.1327 117.685 77.4664 119.151 74.423 122.642C70.0397 127.676 65.6192 132.593 65.6192 132.593C65.5364 132.686 65.4437 132.77 65.3429 132.844C63.3751 134.287 60.0283 134.251 57.1007 133.334C55.7058 132.898 54.4043 132.261 53.3919 131.495C52.3047 130.669 51.5675 129.717 51.2049 128.708C48.0688 128.928 44.5044 127.049 42.5243 124.505C41.5259 123.223 41.0402 121.889 41.0643 120.648C37.7264 120.076 35.068 117.754 33.7814 115.374C32.8825 113.712 32.6099 111.994 32.9584 110.51C30.4674 108.954 29.1 105.68 29.0406 102.761C28.9647 98.941 30.987 96.0611 34.1926 95.4206C34.3604 95.3872 34.5319 95.377 34.7024 95.3902C45.1002 96.226 69.8858 99.8795 74.9205 100.63L77.4882 98.3239C77.4985 98.315 77.5117 98.3031 77.5277 98.2884C60.9835 95.0892 50.8043 87.3275 45.5214 79.3752C42.7759 75.2424 41.3444 71.0396 41.0775 67.4161C40.8456 64.2687 41.4883 61.2222 43.3173 59.2514L43.2658 59.2014C43.208 59.1439 43.1526 59.0842 43.0996 59.0225C40.0835 56.1569 38.7902 51.8505 39.6457 47.4907C40.2002 44.6669 41.5986 42.2315 43.3883 40.8375C42.7446 38.2861 43.1976 35.291 44.7224 32.2165C46.6897 28.2491 50.0698 24.8714 52.5931 24.3546C53.0233 24.2664 53.4708 24.334 53.8557 24.5455C54.2406 24.7569 54.5378 25.0983 54.694 25.5087C58.3848 35.2229 64.1542 42.2137 70.3946 47.9297C70.3637 44.9898 71.0582 40.6469 74.2645 37.0873C76.1307 35.0154 79.1814 33.012 81.4001 33.1831C82.3107 33.2472 83.0178 33.961 83.0999 34.8631C84.0983 46.121 89.9296 53.8092 95.0769 60.5956L95.0839 60.6048C95.4628 61.1042 95.8837 61.6465 96.3266 62.2171L96.3269 62.2176C98.4955 65.0118 101.193 68.4877 102.096 70.9564L105.829 65.3105C106.879 63.7486 108.404 62.5661 110.178 61.9379C111.952 61.3097 113.881 61.2692 115.68 61.8224C117.883 62.5149 119.72 64.0524 120.79 66.0979C121.86 68.1433 122.385 69.917 121.698 72.1209C121.552 72.5892 121.225 72.98 120.79 73.2075C120.355 73.435 119.848 73.4804 119.38 73.3338C118.911 73.1872 118.52 72.8605 118.293 72.4257C118.066 71.9909 118.02 71.4835 118.167 71.0152C119.005 68.3384 117.255 66.193 114.575 65.3538C112.47 64.6949 110.141 65.5206 108.91 67.3607L100.632 79.8822C100.816 81.068 100.902 82.308 100.879 83.6107C100.875 83.8988 100.803 84.1818 100.67 84.4372C100.537 84.6927 100.346 84.9135 100.112 85.0822C99.8787 85.2508 99.609 85.3626 99.3246 85.4086C99.0402 85.4546 98.749 85.4336 98.4742 85.3472C98.0931 85.2279 97.7609 84.9882 97.5275 84.6642C97.294 84.3401 97.172 83.9491 97.1796 83.5498C97.3557 73.562 89.6116 67.7058 79.806 60.2968C69.7938 52.7301 58.4998 44.1921 52.0066 28.7544C50.8174 29.7043 49.2184 31.4798 48.039 33.8598C47.2853 35.3789 46.2 38.2365 47.1994 40.6228C47.2135 40.6416 47.2272 40.6607 47.2405 40.6801C47.2654 40.7127 47.2891 40.746 47.3117 40.78C50.5387 45.1815 59.0264 54.9504 63.704 55.7321C63.9437 55.773 64.1731 55.8608 64.3789 55.9904C64.5847 56.1199 64.763 56.2888 64.9036 56.4873C65.0442 56.6857 65.1443 56.91 65.1982 57.1471C65.2521 57.3843 65.2588 57.6298 65.2179 57.8695C65.1769 58.1093 65.0892 58.3386 64.9596 58.5445C64.83 58.7503 64.6612 58.9286 64.4627 59.0692C64.2642 59.2097 64.04 59.3098 63.8028 59.3638C63.5656 59.4177 63.3202 59.4244 63.0804 59.3834C62.7264 59.3185 62.3769 59.2311 62.034 59.1217C55.819 57.1759 47.9134 47.5865 45.2219 44.1325C44.3409 45.0318 43.6056 46.5297 43.2775 48.2012C42.9846 49.6896 42.6364 53.4362 45.6018 56.2972C45.6972 56.3764 45.785 56.4656 45.8636 56.5637L45.9682 56.6637C47.4594 58.092 56.7954 67.0339 64.7488 68.4294C64.995 68.4636 65.2317 68.5471 65.4449 68.6749C65.6581 68.8026 65.8434 68.972 65.9897 69.173C66.136 69.3739 66.2403 69.6022 66.2964 69.8444C66.3525 70.0865 66.3592 70.3375 66.3162 70.5822C66.2732 70.827 66.1813 71.0607 66.046 71.2692C65.9107 71.4776 65.7348 71.6567 65.5288 71.7958C65.3227 71.9348 65.0908 72.0308 64.8468 72.0782C64.6028 72.1257 64.3518 72.1234 64.1087 72.0717C63.0762 71.8915 62.057 71.6424 61.0579 71.3259C55.5548 69.603 49.703 64.9983 46.2548 61.9698C45.4875 62.8063 44.8733 64.4981 45.0666 67.1222C45.2758 69.9609 46.4291 73.5128 48.8532 77.1618C53.673 84.417 63.4875 91.989 80.4315 94.7423C80.6624 94.7799 80.8776 94.8555 81.0717 94.9618C81.7458 94.3689 82.2899 93.9403 82.4479 93.9501C82.9322 93.9802 83.3852 94.1992 83.7095 94.5601C84.0338 94.9209 84.2034 95.3947 84.1818 95.8794C84.1601 96.3641 83.949 96.8208 83.5938 97.1513L76.7455 103.966C76.5419 104.148 76.3006 104.283 76.0388 104.361C75.7771 104.44 75.5013 104.459 75.2311 104.419C74.9389 104.374 46.122 100.059 34.692 99.1017C32.8769 99.623 32.7184 101.764 32.7354 102.689C32.7801 104.816 33.8946 107.282 35.6355 107.669L36.6208 107.646C36.8013 107.642 37.0036 107.638 37.2251 107.633C40.3873 107.564 47.449 107.411 50.4616 106.655C50.9378 106.535 51.442 106.609 51.8635 106.861C52.2849 107.113 52.589 107.522 52.7088 107.998C52.8287 108.474 52.7545 108.979 52.5026 109.4C52.2506 109.821 51.8416 110.126 51.3655 110.245C47.9739 111.099 40.6376 111.263 37.3309 111.336L37.3308 111.336C37.104 111.341 36.8961 111.346 36.7097 111.35L36.5501 111.354C36.3861 112.04 36.6544 112.915 37.032 113.611C38.0996 115.591 40.5847 117.374 43.3203 117.032C43.7029 116.909 44.1918 116.767 44.7645 116.601L44.994 116.534C45.6766 116.337 46.4591 116.162 47.2945 115.976L47.2945 115.976C49.1935 115.552 51.3659 115.067 53.261 114.115C53.4782 114.003 53.7154 113.936 53.9588 113.917C54.2022 113.897 54.447 113.926 54.6792 114.002C54.9114 114.077 55.1262 114.198 55.3115 114.357C55.4967 114.517 55.6486 114.711 55.7584 114.929C55.8682 115.147 55.9337 115.385 55.9513 115.628C55.9688 115.872 55.9379 116.116 55.8604 116.348C55.783 116.579 55.6604 116.793 55.4999 116.977C55.3393 117.161 55.144 117.312 54.925 117.42C52.7776 118.499 50.3984 119.046 48.3522 119.516C47.5043 119.71 46.7136 119.892 46.0202 120.093C45.5804 120.218 45.1877 120.332 44.855 120.434C44.7123 120.728 44.6879 121.265 45.439 122.23C46.936 124.15 50.2279 125.685 51.9009 124.762C51.9516 124.725 52.0043 124.691 52.0588 124.659C52.6611 124.313 53.358 124.018 54.0676 123.718C55.1959 123.24 56.3561 122.748 57.2179 122.018C57.4027 121.856 57.618 121.732 57.8512 121.654C58.0845 121.576 58.3309 121.545 58.5762 121.563C58.8215 121.581 59.0607 121.648 59.2798 121.76C59.4989 121.872 59.6935 122.026 59.8522 122.214C60.011 122.402 60.1307 122.62 60.2043 122.854C60.278 123.089 60.3041 123.336 60.2811 123.581C60.2582 123.826 60.1867 124.064 60.0707 124.281C59.9548 124.497 59.7967 124.689 59.6058 124.844C58.1785 126.051 56.0444 126.945 54.8019 127.466L54.7126 127.503ZM98.8392 72.7132C99.0673 73.1387 99.4536 73.4574 99.9147 73.6006C100.04 73.6397 100.168 73.6652 100.297 73.6771L99.2986 75.1868C96.3339 68.1474 89.5633 63.0305 82.0382 57.3433L82.0382 57.3433L82.0375 57.3428L82.0149 57.3257C79.4012 55.3497 76.6967 53.3051 74.0211 51.0842C74.1415 50.8874 74.2241 50.6696 74.2645 50.4421C74.3083 50.1955 74.3015 49.9426 74.2447 49.6986C73.9801 48.2276 76.1633 40.559 76.8129 39.7968C77.6218 38.8454 78.592 38.0439 79.6791 37.4292C81.3028 48.5544 87.277 56.4351 92.1381 62.8428C92.6623 63.5342 93.1238 64.0914 93.5724 64.6332L93.5727 64.6335L93.5728 64.6336C94.9584 66.3067 96.2225 67.8331 98.8392 72.7132Z" fill="#0078AB"/>
<path fill-rule="evenodd" clip-rule="evenodd" d="M54.7126 127.503C54.8325 127.826 55.138 128.174 55.626 128.545C57.7708 130.178 61.6758 130.722 63.0215 129.942C63.8359 129.037 67.7479 124.667 71.6349 120.203C75.6216 115.631 81.7955 113.721 87.3589 115.346C90.9756 116.44 100.083 118.14 106.936 110.506C113.954 102.68 114.767 93.0617 114.626 88.0235C114.502 84.3886 114.995 80.759 116.083 77.2889L116.391 76.3071C116.511 75.9247 116.752 75.5916 117.077 75.3578C117.126 75.3228 117.177 75.29 117.229 75.2594C118.209 74.6866 120.533 74.8794 122.181 75.0162C122.69 75.0583 123.134 75.0952 123.454 75.1026C123.697 75.1081 123.936 75.1614 124.159 75.2595C124.381 75.3576 124.582 75.4985 124.75 75.6742C124.918 75.8499 125.049 76.057 125.137 76.2835C125.225 76.5101 125.267 76.7518 125.262 76.9947C125.256 77.2377 125.203 77.4771 125.105 77.6995C125.007 77.9218 124.866 78.1226 124.69 78.2905C124.514 78.4584 124.307 78.59 124.081 78.6779C123.854 78.7657 123.613 78.8081 123.37 78.8025L119.505 78.7441C118.614 81.7262 118.216 84.8081 118.322 87.9124C118.479 93.5145 117.565 104.202 109.689 112.985C101.413 122.201 90.5762 120.193 86.3005 118.9C82.1327 117.685 77.4664 119.151 74.423 122.642C70.0397 127.676 65.6192 132.593 65.6192 132.593C65.5364 132.686 65.4437 132.77 65.3429 132.844C63.3751 134.287 60.0283 134.251 57.1007 133.334C55.7058 132.898 54.4043 132.261 53.3919 131.495C52.3047 130.669 51.5675 129.717 51.2049 128.708C48.0688 128.928 44.5044 127.049 42.5243 124.505C41.5259 123.223 41.0402 121.889 41.0643 120.648C37.7264 120.076 35.068 117.754 33.7814 115.374C32.8825 113.712 32.6099 111.994 32.9584 110.51C30.4674 108.954 29.1 105.68 29.0406 102.761C28.9647 98.941 30.987 96.0611 34.1926 95.4206C34.3604 95.3872 34.5319 95.377 34.7024 95.3902C45.1002 96.226 69.8858 99.8795 74.9205 100.63L77.4882 98.3239C77.4985 98.315 77.5117 98.3031 77.5277 98.2884C60.9835 95.0892 50.8043 87.3275 45.5214 79.3752C42.7759 75.2424 41.3444 71.0396 41.0775 67.4161C40.8456 64.2687 41.4883 61.2222 43.3173 59.2514L43.2658 59.2014C43.208 59.1439 43.1526 59.0842 43.0996 59.0225C40.0835 56.1569 38.7902 51.8505 39.6457 47.4907C40.2002 44.6669 41.5986 42.2315 43.3883 40.8375C42.7446 38.2861 43.1976 35.291 44.7224 32.2165C46.6897 28.2491 50.0698 24.8714 52.5931 24.3546C53.0233 24.2664 53.4708 24.334 53.8557 24.5455C54.2406 24.7569 54.5378 25.0983 54.694 25.5087C58.3848 35.2229 64.1542 42.2137 70.3946 47.9297C70.3637 44.9898 71.0582 40.6469 74.2645 37.0873C76.1307 35.0154 79.1814 33.012 81.4001 33.1831C82.3107 33.2472 83.0178 33.961 83.0999 34.8631C84.0983 46.121 89.9296 53.8092 95.0769 60.5956L95.0839 60.6048C95.4628 61.1042 95.8837 61.6465 96.3266 62.2171L96.3269 62.2176C98.4955 65.0118 101.193 68.4877 102.096 70.9564L105.829 65.3105C106.879 63.7486 108.404 62.5661 110.178 61.9379C111.952 61.3097 113.881 61.2692 115.68 61.8224C117.883 62.5149 119.72 64.0524 120.79 66.0979C121.86 68.1433 122.385 69.917 121.698 72.1209C121.552 72.5892 121.225 72.98 120.79 73.2075C120.355 73.435 119.848 73.4804 119.38 73.3338C118.911 73.1872 118.52 72.8605 118.293 72.4257C118.066 71.9909 118.02 71.4835 118.167 71.0152C119.005 68.3384 117.255 66.193 114.575 65.3538C112.47 64.6949 110.141 65.5206 108.91 67.3607L100.632 79.8822C100.816 81.068 100.902 82.308 100.879 83.6107C100.875 83.8988 100.803 84.1818 100.67 84.4372C100.537 84.6927 100.346 84.9135 100.112 85.0822C99.8787 85.2508 99.609 85.3626 99.3246 85.4086C99.0402 85.4546 98.749 85.4336 98.4742 85.3472C98.0931 85.2279 97.7609 84.9882 97.5275 84.6642C97.294 84.3401 97.172 83.9491 97.1796 83.5498C97.3557 73.562 89.6116 67.7058 79.806 60.2968C69.7938 52.7301 58.4998 44.1921 52.0066 28.7544C50.8174 29.7043 49.2184 31.4798 48.039 33.8598C47.2853 35.3789 46.2 38.2365 47.1994 40.6228C47.2135 40.6416 47.2272 40.6607 47.2405 40.6801C47.2654 40.7127 47.2891 40.746 47.3117 40.78C50.5387 45.1815 59.0264 54.9504 63.704 55.7321C63.9437 55.773 64.1731 55.8608 64.3789 55.9904C64.5847 56.1199 64.763 56.2888 64.9036 56.4873C65.0442 56.6857 65.1443 56.91 65.1982 57.1471C65.2521 57.3843 65.2588 57.6298 65.2179 57.8695C65.1769 58.1093 65.0892 58.3386 64.9596 58.5445C64.83 58.7503 64.6612 58.9286 64.4627 59.0692C64.2642 59.2097 64.04 59.3098 63.8028 59.3638C63.5656 59.4177 63.3202 59.4244 63.0804 59.3834C62.7264 59.3185 62.3769 59.2311 62.034 59.1217C55.819 57.1759 47.9134 47.5865 45.2219 44.1325C44.3409 45.0318 43.6056 46.5297 43.2775 48.2012C42.9846 49.6896 42.6364 53.4362 45.6018 56.2972C45.6972 56.3764 45.785 56.4656 45.8636 56.5637L45.9682 56.6637C47.4594 58.092 56.7954 67.0339 64.7488 68.4294C64.995 68.4636 65.2317 68.5471 65.4449 68.6749C65.6581 68.8026 65.8434 68.972 65.9897 69.173C66.136 69.3739 66.2403 69.6022 66.2964 69.8444C66.3525 70.0865 66.3592 70.3375 66.3162 70.5822C66.2732 70.827 66.1813 71.0607 66.046 71.2692C65.9107 71.4776 65.7348 71.6567 65.5288 71.7958C65.3227 71.9348 65.0908 72.0308 64.8468 72.0782C64.6028 72.1257 64.3518 72.1234 64.1087 72.0717C63.0762 71.8915 62.057 71.6424 61.0579 71.3259C55.5548 69.603 49.703 64.9983 46.2548 61.9698C45.4875 62.8063 44.8733 64.4981 45.0666 67.1222C45.2758 69.9609 46.4291 73.5128 48.8532 77.1618C53.673 84.417 63.4875 91.989 80.4315 94.7423C80.6624 94.7799 80.8776 94.8555 81.0717 94.9618C81.7458 94.3689 82.2899 93.9403 82.4479 93.9501C82.9322 93.9802 83.3852 94.1992 83.7095 94.5601C84.0338 94.9209 84.2034 95.3947 84.1818 95.8794C84.1601 96.3641 83.949 96.8208 83.5938 97.1513L76.7455 103.966C76.5419 104.148 76.3006 104.283 76.0388 104.361C75.7771 104.44 75.5013 104.459 75.2311 104.419C74.9389 104.374 46.122 100.059 34.692 99.1017C32.8769 99.623 32.7184 101.764 32.7354 102.689C32.7801 104.816 33.8946 107.282 35.6355 107.669L36.6208 107.646C36.8013 107.642 37.0036 107.638 37.2251 107.633C40.3873 107.564 47.449 107.411 50.4616 106.655C50.9378 106.535 51.442 106.609 51.8635 106.861C52.2849 107.113 52.589 107.522 52.7088 107.998C52.8287 108.474 52.7545 108.979 52.5026 109.4C52.2506 109.821 51.8416 110.126 51.3655 110.245C47.9739 111.099 40.6376 111.263 37.3309 111.336L37.3308 111.336C37.104 111.341 36.8961 111.346 36.7097 111.35L36.5501 111.354C36.3861 112.04 36.6544 112.915 37.032 113.611C38.0996 115.591 40.5847 117.374 43.3203 117.032C43.7029 116.909 44.1918 116.767 44.7645 116.601L44.994 116.534C45.6766 116.337 46.4591 116.162 47.2945 115.976L47.2945 115.976C49.1935 115.552 51.3659 115.067 53.261 114.115C53.4782 114.003 53.7154 113.936 53.9588 113.917C54.2022 113.897 54.447 113.926 54.6792 114.002C54.9114 114.077 55.1262 114.198 55.3115 114.357C55.4967 114.517 55.6486 114.711 55.7584 114.929C55.8682 115.147 55.9337 115.385 55.9513 115.628C55.9688 115.872 55.9379 116.116 55.8604 116.348C55.783 116.579 55.6604 116.793 55.4999 116.977C55.3393 117.161 55.144 117.312 54.925 117.42C52.7776 118.499 50.3984 119.046 48.3522 119.516C47.5043 119.71 46.7136 119.892 46.0202 120.093C45.5804 120.218 45.1877 120.332 44.855 120.434C44.7123 120.728 44.6879 121.265 45.439 122.23C46.936 124.15 50.2279 125.685 51.9009 124.762C51.9516 124.725 52.0043 124.691 52.0588 124.659C52.6611 124.313 53.358 124.018 54.0676 123.718C55.1959 123.24 56.3561 122.748 57.2179 122.018C57.4027 121.856 57.618 121.732 57.8512 121.654C58.0845 121.576 58.3309 121.545 58.5762 121.563C58.8215 121.581 59.0607 121.648 59.2798 121.76C59.4989 121.872 59.6935 122.026 59.8522 122.214C60.011 122.402 60.1307 122.62 60.2043 122.854C60.278 123.089 60.3041 123.336 60.2811 123.581C60.2582 123.826 60.1867 124.064 60.0707 124.281C59.9548 124.497 59.7967 124.689 59.6058 124.844C58.1785 126.051 56.0444 126.945 54.8019 127.466L54.7126 127.503ZM98.8392 72.7132C99.0673 73.1387 99.4536 73.4574 99.9147 73.6006C100.04 73.6397 100.168 73.6652 100.297 73.6771L99.2986 75.1868C96.3339 68.1474 89.5633 63.0305 82.0382 57.3433L82.0382 57.3433L82.0375 57.3428L82.0149 57.3257C79.4012 55.3497 76.6967 53.3051 74.0211 51.0842C74.1415 50.8874 74.2241 50.6696 74.2645 50.4421C74.3083 50.1955 74.3015 49.9426 74.2447 49.6986C73.9801 48.2276 76.1633 40.559 76.8129 39.7968C77.6218 38.8454 78.592 38.0439 79.6791 37.4292C81.3028 48.5544 87.277 56.4351 92.1381 62.8428C92.6623 63.5342 93.1238 64.0914 93.5724 64.6332L93.5727 64.6335L93.5728 64.6336C94.9584 66.3067 96.2225 67.8331 98.8392 72.7132Z" fill="#8C8695"/>
</g>
<defs>
<filter id="filter0_d_704_28" x="27.0381" y="24.3169" width="100.225" height="113.665" filterUnits="userSpaceOnUse" color-interpolation-filters="sRGB">
<feFlood flood-opacity="0" result="BackgroundImageFix"/>
<feColorMatrix in="SourceAlpha" type="matrix" values="0 0 0 0 0 0 0 0 0 0 0 0 0 0 0 0 0 0 127 0" result="hardAlpha"/>
<feOffset dy="2"/>
<feGaussianBlur stdDeviation="1"/>
<feComposite in2="hardAlpha" operator="out"/>
<feColorMatrix type="matrix" values="0 0 0 0 0 0 0 0 0 0 0 0 0 0 0 0 0 0 0.11 0"/>
<feBlend mode="normal" in2="BackgroundImageFix" result="effect1_dropShadow_704_28"/>
<feBlend mode="normal" in="SourceGraphic" in2="effect1_dropShadow_704_28" result="shape"/>
</filter>
<linearGradient id="paint0_linear_704_28" x1="77.5009" y1="27.0605" x2="73.4034" y2="154.832" gradientUnits="userSpaceOnUse">
<stop stop-color="#2BD0FF"/>
<stop offset="1" stop-color="#008FCC"/>
</linearGradient>
<linearGradient id="paint1_linear_704_28" x1="90.6561" y1="36.0283" x2="59.9155" y2="134.215" gradientUnits="userSpaceOnUse">
<stop stop-color="#00B3E6"/>
<stop offset="1" stop-color="#008FCC"/>
</linearGradient>
</defs>
</svg>
