<svg width="155" height="160" viewBox="0 0 155 160" fill="none" xmlns="http://www.w3.org/2000/svg">
<g filter="url(#filter0_d_728_64)">
<path d="M87.9513 117.177C91.4341 116.829 94.3364 117.612 95.3522 118.048L99.7057 118.048L104.93 114.565L111.46 108.905L115.814 98.4565L117.12 88.0081L117.555 77.9951C117.555 77.9951 121.038 76.689 121.909 76.689C122.605 76.689 124.23 76.1091 124.956 75.8192C123.36 74.5131 120.08 71.6398 119.732 70.595C119.296 69.2889 119.296 68.4182 119.296 67.5475C119.296 66.6768 117.99 65.3708 117.555 64.5001C117.12 63.6294 113.637 62.7587 113.202 62.7587C112.853 62.7587 109.283 63.3392 107.542 63.6294L102.753 72.3364L101.012 70.595L88.822 55.7931L82.2917 39.2498L80.115 34.8963L77.0675 36.2024L74.0201 40.1205L72.2787 45.7801L70.9726 50.1336L68.3605 47.5215L60.9596 40.1205L53.1233 27.0601L51.3819 27.0601C50.9466 27.0601 47.4638 30.5429 47.0284 30.9782C46.6801 31.3265 45.4321 36.0573 44.8517 38.3791L43.981 43.6033L41.3689 48.8275C41.0206 49.5241 41.2238 52.6005 41.3689 54.0517L44.8517 59.7113L42.6749 65.3708L43.981 73.6424C46.5931 77.2703 51.9043 84.6132 52.2526 84.9615C52.688 85.3969 61.8303 90.1857 62.2657 90.1857C62.6139 90.1857 69.3764 93.3783 72.714 94.9745L80.5503 97.1513L76.1968 101.94L69.2312 102.375L41.8042 97.1513L32.6619 97.1513C31.9653 97.1513 30.6303 101.215 30.0498 103.246C30.7754 104.262 32.2266 106.381 32.2266 106.729C32.2266 107.164 33.9679 109.776 34.4033 110.212C34.8386 110.647 34.8386 114.13 35.274 114.565C35.6223 114.914 39.7726 118.193 41.8042 119.789C44.2712 121.966 49.3793 126.407 50.0759 126.755C50.9466 127.19 53.5587 128.932 53.994 128.932C54.4294 128.932 60.0889 131.979 60.5243 132.415C60.9596 132.85 67.9252 127.626 68.7959 127.19C69.6666 126.755 73.1494 120.66 79.6796 118.048C86.2099 115.436 83.5978 117.612 87.9513 117.177Z" fill="url(#paint0_linear_728_64)"/>
<path d="M87.9513 117.177C91.4341 116.829 94.3364 117.612 95.3522 118.048L99.7057 118.048L104.93 114.565L111.46 108.905L115.814 98.4565L117.12 88.0081L117.555 77.9951C117.555 77.9951 121.038 76.689 121.909 76.689C122.605 76.689 124.23 76.1091 124.956 75.8192C123.36 74.5131 120.08 71.6398 119.732 70.595C119.296 69.2889 119.296 68.4182 119.296 67.5475C119.296 66.6768 117.99 65.3708 117.555 64.5001C117.12 63.6294 113.637 62.7587 113.202 62.7587C112.853 62.7587 109.283 63.3392 107.542 63.6294L102.753 72.3364L101.012 70.595L88.822 55.7931L82.2917 39.2498L80.115 34.8963L77.0675 36.2024L74.0201 40.1205L72.2787 45.7801L70.9726 50.1336L68.3605 47.5215L60.9596 40.1205L53.1233 27.0601L51.3819 27.0601C50.9466 27.0601 47.4638 30.5429 47.0284 30.9782C46.6801 31.3265 45.4321 36.0573 44.8517 38.3791L43.981 43.6033L41.3689 48.8275C41.0206 49.5241 41.2238 52.6005 41.3689 54.0517L44.8517 59.7113L42.6749 65.3708L43.981 73.6424C46.5931 77.2703 51.9043 84.6132 52.2526 84.9615C52.688 85.3969 61.8303 90.1857 62.2657 90.1857C62.6139 90.1857 69.3764 93.3783 72.714 94.9745L80.5503 97.1513L76.1968 101.94L69.2312 102.375L41.8042 97.1513L32.6619 97.1513C31.9653 97.1513 30.6303 101.215 30.0498 103.246C30.7754 104.262 32.2266 106.381 32.2266 106.729C32.2266 107.164 33.9679 109.776 34.4033 110.212C34.8386 110.647 34.8386 114.13 35.274 114.565C35.6223 114.914 39.7726 118.193 41.8042 119.789C44.2712 121.966 49.3793 126.407 50.0759 126.755C50.9466 127.19 53.5587 128.932 53.994 128.932C54.4294 128.932 60.0889 131.979 60.5243 132.415C60.9596 132.85 67.9252 127.626 68.7959 127.19C69.6666 126.755 73.1494 120.66 79.6796 118.048C86.2099 115.436 83.5978 117.612 87.9513 117.177Z" fill="#CCC7D7"/>
<path fill-rule="evenodd" clip-rule="evenodd" d="M54.7136 127.504C54.8335 127.827 55.139 128.175 55.6269 128.546C57.7718 130.179 61.6768 130.723 63.0225 129.942C63.8369 129.038 67.7489 124.667 71.6358 120.203C75.6226 115.631 81.7965 113.721 87.3599 115.347C90.9766 116.44 100.084 118.14 106.937 110.506C113.955 102.68 114.768 93.0622 114.627 88.0239C114.503 84.3891 114.996 80.7595 116.084 77.2893L116.392 76.3076C116.512 75.9252 116.753 75.592 117.078 75.3583C117.127 75.3232 117.178 75.2905 117.23 75.2599C118.21 74.6871 120.534 74.8799 122.182 75.0167C122.691 75.0588 123.135 75.0957 123.455 75.1031C123.698 75.1086 123.937 75.1619 124.16 75.26C124.382 75.3581 124.583 75.499 124.751 75.6747C124.919 75.8504 125.05 76.0575 125.138 76.284C125.226 76.5106 125.268 76.7523 125.263 76.9952C125.257 77.2381 125.204 77.4776 125.106 77.6999C125.008 77.9223 124.867 78.1231 124.691 78.291C124.515 78.4589 124.308 78.5905 124.082 78.6783C123.855 78.7662 123.614 78.8086 123.371 78.803L119.506 78.7446C118.615 81.7267 118.217 84.8086 118.323 87.9129C118.48 93.515 117.566 104.202 109.69 112.985C101.414 122.202 90.5772 120.193 86.3015 118.901C82.1337 117.685 77.4673 119.152 74.424 122.643C70.0407 127.676 65.6202 132.593 65.6202 132.593C65.5373 132.687 65.4447 132.771 65.3439 132.844C63.376 134.287 60.0292 134.251 57.1017 133.335C55.7068 132.898 54.4053 132.262 53.3929 131.495C52.3057 130.67 51.5685 129.718 51.2059 128.709C48.0698 128.929 44.5054 127.049 42.5253 124.506C41.5268 123.224 41.0412 121.889 41.0653 120.648C37.7274 120.076 35.069 117.755 33.7824 115.374C32.8835 113.713 32.6109 111.995 32.9594 110.51C30.4683 108.955 29.101 105.68 29.0416 102.761C28.9657 98.9415 30.988 96.0616 34.1936 95.4211C34.3613 95.3877 34.5329 95.3775 34.7034 95.3907C45.1012 96.2264 69.8868 99.88 74.9215 100.63L77.4892 98.3244C77.4995 98.3155 77.5127 98.3036 77.5287 98.2889C60.9845 95.0897 50.8053 87.328 45.5224 79.3757C42.7769 75.2429 41.3454 71.0401 41.0784 67.4166C40.8465 64.2692 41.4893 61.2227 43.3183 59.2519L43.2667 59.2019C43.209 59.1444 43.1536 59.0847 43.1006 59.023C40.0844 56.1574 38.7912 51.851 39.6467 47.4912C40.2011 44.6674 41.5996 42.2319 43.3893 40.838C42.7456 38.2866 43.1986 35.2915 44.7234 32.217C46.6906 28.2496 50.0708 24.8719 52.5941 24.3551C53.0242 24.2669 53.4718 24.3345 53.8567 24.546C54.2416 24.7574 54.5387 25.0988 54.695 25.5092C58.3857 35.2234 64.1552 42.2142 70.3956 47.9302C70.3647 44.9903 71.0591 40.6474 74.2655 37.0878C76.1317 35.0159 79.1824 33.0125 81.4011 33.1836C82.3117 33.2477 83.0188 33.9615 83.1009 34.8635C84.0993 46.1215 89.9306 53.8097 95.0779 60.5961L95.0849 60.6053C95.4638 61.1047 95.8846 61.6469 96.3275 62.2176L96.3279 62.2181C98.4964 65.0122 101.194 68.4882 102.097 70.9569L105.83 65.311C106.88 63.7491 108.405 62.5666 110.179 61.9384C111.953 61.3102 113.882 61.2697 115.681 61.8229C117.884 62.5154 119.721 64.0529 120.791 66.0983C121.861 68.1438 122.386 69.9175 121.699 72.1214C121.553 72.5897 121.226 72.9805 120.791 73.208C120.356 73.4355 119.849 73.4809 119.381 73.3343C118.912 73.1876 118.521 72.861 118.294 72.4262C118.067 71.9914 118.021 71.484 118.168 71.0157C119.006 68.3389 117.256 66.1935 114.576 65.3543C112.471 64.6953 110.142 65.521 108.91 67.3612L100.633 79.8827C100.817 81.0684 100.903 82.3085 100.88 83.6112C100.876 83.8992 100.804 84.1823 100.671 84.4377C100.538 84.6932 100.347 84.914 100.113 85.0827C99.8797 85.2513 99.61 85.3631 99.3256 85.4091C99.0412 85.4551 98.75 85.4341 98.4752 85.3477C98.0941 85.2284 97.7619 84.9887 97.5284 84.6647C97.295 84.3406 97.173 83.9496 97.1806 83.5503C97.3567 73.5625 89.6125 67.7063 79.8069 60.2973C69.7948 52.7306 58.5008 44.1926 52.0076 28.7548C50.8184 29.7048 49.2194 31.4803 48.04 33.8603C47.2863 35.3794 46.2009 38.237 47.2004 40.6233C47.2144 40.6421 47.2281 40.6612 47.2415 40.6806C47.2664 40.7132 47.2901 40.7465 47.3127 40.7805C50.5397 45.182 59.0274 54.9509 63.705 55.7326C63.9447 55.7735 64.1741 55.8613 64.3799 55.9909C64.5857 56.1204 64.764 56.2893 64.9046 56.4878C65.0452 56.6862 65.1453 56.9105 65.1992 57.1476C65.2531 57.3848 65.2598 57.6303 65.2189 57.87C65.1779 58.1098 65.0901 58.3391 64.9606 58.5449C64.831 58.7508 64.6621 58.9291 64.4637 59.0696C64.2652 59.2102 64.041 59.3103 63.8038 59.3643C63.5666 59.4182 63.3211 59.4249 63.0814 59.3839C62.7274 59.319 62.3778 59.2316 62.035 59.1222C55.82 57.1764 47.9144 47.587 45.2229 44.133C44.3419 45.0323 43.6066 46.5302 43.2785 48.2017C42.9856 49.6901 42.6373 53.4367 45.6028 56.2977C45.6982 56.3769 45.786 56.4661 45.8646 56.5642L45.9692 56.6642C47.4604 58.0925 56.7963 67.0344 64.7498 68.4299C64.996 68.4641 65.2327 68.5476 65.4459 68.6754C65.6591 68.8031 65.8444 68.9725 65.9907 69.1735C66.137 69.3744 66.2413 69.6027 66.2974 69.8449C66.3535 70.087 66.3602 70.3379 66.3172 70.5827C66.2742 70.8275 66.1823 71.0611 66.047 71.2696C65.9117 71.4781 65.7358 71.6572 65.5297 71.7962C65.3237 71.9353 65.0918 72.0313 64.8478 72.0787C64.6038 72.1261 64.3528 72.1239 64.1097 72.0722C63.0772 71.892 62.058 71.6429 61.0588 71.3264C55.5558 69.6035 49.7039 64.9988 46.2558 61.9703C45.4885 62.8068 44.8743 64.4986 45.0676 67.1227C45.2768 69.9614 46.4301 73.5133 48.8542 77.1623C53.674 84.4175 63.4885 91.9895 80.4325 94.7428C80.6634 94.7803 80.8786 94.856 81.0727 94.9623C81.7468 94.3694 82.2909 93.9408 82.4489 93.9506C82.9331 93.9807 83.3862 94.1997 83.7105 94.5606C84.0348 94.9214 84.2044 95.3952 84.1827 95.8799C84.1611 96.3645 83.95 96.8213 83.5948 97.1518L76.7465 103.966C76.5428 104.149 76.3016 104.284 76.0398 104.362C75.778 104.44 75.5023 104.46 75.2321 104.419C74.9398 104.374 46.123 100.059 34.693 99.1022C32.8779 99.6235 32.7194 101.765 32.7363 102.689C32.7811 104.816 33.8956 107.282 35.6365 107.67L36.6217 107.647C36.8022 107.643 37.0046 107.638 37.2261 107.633C40.3883 107.565 47.45 107.412 50.4626 106.655C50.9388 106.535 51.443 106.61 51.8644 106.862C52.2859 107.113 52.59 107.523 52.7098 107.999C52.8297 108.475 52.7555 108.979 52.5036 109.4C52.2516 109.822 51.8426 110.126 51.3665 110.246C47.9748 111.1 40.6386 111.263 37.3319 111.337L37.3318 111.337C37.1049 111.342 36.8971 111.346 36.7107 111.351L36.5511 111.355C36.3871 112.041 36.6554 112.916 37.033 113.612C38.1006 115.592 40.5857 117.375 43.3212 117.033C43.7038 116.91 44.1928 116.768 44.7655 116.601L44.995 116.534C45.6776 116.337 46.46 116.162 47.2954 115.976L47.2955 115.976C49.1944 115.552 51.3669 115.068 53.2619 114.115C53.4792 114.004 53.7163 113.936 53.9598 113.917C54.2032 113.898 54.448 113.927 54.6802 114.002C54.9123 114.078 55.1272 114.199 55.3124 114.358C55.4977 114.517 55.6496 114.711 55.7594 114.929C55.8692 115.147 55.9347 115.385 55.9522 115.629C55.9697 115.872 55.9389 116.117 55.8614 116.348C55.7839 116.58 55.6614 116.794 55.5009 116.978C55.3403 117.162 55.1449 117.312 54.926 117.42C52.7786 118.5 50.3994 119.046 48.3532 119.516C47.5053 119.711 46.7146 119.893 46.0211 120.094C45.5813 120.219 45.1886 120.333 44.856 120.435C44.7133 120.729 44.6888 121.266 45.44 122.231C46.9369 124.15 50.2289 125.686 51.9019 124.763C51.9526 124.726 52.0053 124.691 52.0598 124.66C52.6621 124.314 53.359 124.019 54.0685 123.718C55.1969 123.24 56.3571 122.749 57.2189 122.019C57.4037 121.856 57.619 121.733 57.8522 121.654C58.0854 121.576 58.3319 121.545 58.5772 121.564C58.8225 121.582 59.0617 121.649 59.2808 121.761C59.4999 121.872 59.6945 122.027 59.8532 122.215C60.012 122.402 60.1317 122.62 60.2053 122.855C60.279 123.089 60.3051 123.336 60.2821 123.581C60.2592 123.826 60.1876 124.064 60.0717 124.281C59.9557 124.498 59.7977 124.69 59.6068 124.845C58.1795 126.052 56.0454 126.946 54.8029 127.467L54.7136 127.504ZM98.8402 72.7137C99.0683 73.1392 99.4546 73.4579 99.9156 73.601C100.041 73.6402 100.169 73.6657 100.298 73.6776L99.2995 75.1873C96.3349 68.1479 89.5643 63.031 82.0392 57.3438L82.0392 57.3438L82.0385 57.3433L82.0159 57.3262C79.4022 55.3502 76.6977 53.3056 74.0221 51.0846C74.1424 50.8878 74.2251 50.6701 74.2654 50.4426C74.3092 50.196 74.3025 49.9431 74.2456 49.6991C73.9811 48.2281 76.1643 40.5595 76.8139 39.7973C77.6228 38.8459 78.593 38.0444 79.6801 37.4297C81.3038 48.5549 87.278 56.4356 92.1391 62.8433C92.6633 63.5347 93.1247 64.0919 93.5734 64.6337L93.5737 64.634L93.5737 64.6341C94.9594 66.3072 96.2235 67.8336 98.8402 72.7137Z" fill="url(#paint1_linear_728_64)"/>
<path fill-rule="evenodd" clip-rule="evenodd" d="M54.7136 127.504C54.8335 127.827 55.139 128.175 55.6269 128.546C57.7718 130.179 61.6768 130.723 63.0225 129.942C63.8369 129.038 67.7489 124.667 71.6358 120.203C75.6226 115.631 81.7965 113.721 87.3599 115.347C90.9766 116.44 100.084 118.14 106.937 110.506C113.955 102.68 114.768 93.0622 114.627 88.0239C114.503 84.3891 114.996 80.7595 116.084 77.2893L116.392 76.3076C116.512 75.9252 116.753 75.592 117.078 75.3583C117.127 75.3232 117.178 75.2905 117.23 75.2599C118.21 74.6871 120.534 74.8799 122.182 75.0167C122.691 75.0588 123.135 75.0957 123.455 75.1031C123.698 75.1086 123.937 75.1619 124.16 75.26C124.382 75.3581 124.583 75.499 124.751 75.6747C124.919 75.8504 125.05 76.0575 125.138 76.284C125.226 76.5106 125.268 76.7523 125.263 76.9952C125.257 77.2381 125.204 77.4776 125.106 77.6999C125.008 77.9223 124.867 78.1231 124.691 78.291C124.515 78.4589 124.308 78.5905 124.082 78.6783C123.855 78.7662 123.614 78.8086 123.371 78.803L119.506 78.7446C118.615 81.7267 118.217 84.8086 118.323 87.9129C118.48 93.515 117.566 104.202 109.69 112.985C101.414 122.202 90.5772 120.193 86.3015 118.901C82.1337 117.685 77.4673 119.152 74.424 122.643C70.0407 127.676 65.6202 132.593 65.6202 132.593C65.5373 132.687 65.4447 132.771 65.3439 132.844C63.376 134.287 60.0292 134.251 57.1017 133.335C55.7068 132.898 54.4053 132.262 53.3929 131.495C52.3057 130.67 51.5685 129.718 51.2059 128.709C48.0698 128.929 44.5054 127.049 42.5253 124.506C41.5268 123.224 41.0412 121.889 41.0653 120.648C37.7274 120.076 35.069 117.755 33.7824 115.374C32.8835 113.713 32.6109 111.995 32.9594 110.51C30.4683 108.955 29.101 105.68 29.0416 102.761C28.9657 98.9415 30.988 96.0616 34.1936 95.4211C34.3613 95.3877 34.5329 95.3775 34.7034 95.3907C45.1012 96.2264 69.8868 99.88 74.9215 100.63L77.4892 98.3244C77.4995 98.3155 77.5127 98.3036 77.5287 98.2889C60.9845 95.0897 50.8053 87.328 45.5224 79.3757C42.7769 75.2429 41.3454 71.0401 41.0784 67.4166C40.8465 64.2692 41.4893 61.2227 43.3183 59.2519L43.2667 59.2019C43.209 59.1444 43.1536 59.0847 43.1006 59.023C40.0844 56.1574 38.7912 51.851 39.6467 47.4912C40.2011 44.6674 41.5996 42.2319 43.3893 40.838C42.7456 38.2866 43.1986 35.2915 44.7234 32.217C46.6906 28.2496 50.0708 24.8719 52.5941 24.3551C53.0242 24.2669 53.4718 24.3345 53.8567 24.546C54.2416 24.7574 54.5387 25.0988 54.695 25.5092C58.3857 35.2234 64.1552 42.2142 70.3956 47.9302C70.3647 44.9903 71.0591 40.6474 74.2655 37.0878C76.1317 35.0159 79.1824 33.0125 81.4011 33.1836C82.3117 33.2477 83.0188 33.9615 83.1009 34.8635C84.0993 46.1215 89.9306 53.8097 95.0779 60.5961L95.0849 60.6053C95.4638 61.1047 95.8846 61.6469 96.3275 62.2176L96.3279 62.2181C98.4964 65.0122 101.194 68.4882 102.097 70.9569L105.83 65.311C106.88 63.7491 108.405 62.5666 110.179 61.9384C111.953 61.3102 113.882 61.2697 115.681 61.8229C117.884 62.5154 119.721 64.0529 120.791 66.0983C121.861 68.1438 122.386 69.9175 121.699 72.1214C121.553 72.5897 121.226 72.9805 120.791 73.208C120.356 73.4355 119.849 73.4809 119.381 73.3343C118.912 73.1876 118.521 72.861 118.294 72.4262C118.067 71.9914 118.021 71.484 118.168 71.0157C119.006 68.3389 117.256 66.1935 114.576 65.3543C112.471 64.6953 110.142 65.521 108.91 67.3612L100.633 79.8827C100.817 81.0684 100.903 82.3085 100.88 83.6112C100.876 83.8992 100.804 84.1823 100.671 84.4377C100.538 84.6932 100.347 84.914 100.113 85.0827C99.8797 85.2513 99.61 85.3631 99.3256 85.4091C99.0412 85.4551 98.75 85.4341 98.4752 85.3477C98.0941 85.2284 97.7619 84.9887 97.5284 84.6647C97.295 84.3406 97.173 83.9496 97.1806 83.5503C97.3567 73.5625 89.6125 67.7063 79.8069 60.2973C69.7948 52.7306 58.5008 44.1926 52.0076 28.7548C50.8184 29.7048 49.2194 31.4803 48.04 33.8603C47.2863 35.3794 46.2009 38.237 47.2004 40.6233C47.2144 40.6421 47.2281 40.6612 47.2415 40.6806C47.2664 40.7132 47.2901 40.7465 47.3127 40.7805C50.5397 45.182 59.0274 54.9509 63.705 55.7326C63.9447 55.7735 64.1741 55.8613 64.3799 55.9909C64.5857 56.1204 64.764 56.2893 64.9046 56.4878C65.0452 56.6862 65.1453 56.9105 65.1992 57.1476C65.2531 57.3848 65.2598 57.6303 65.2189 57.87C65.1779 58.1098 65.0901 58.3391 64.9606 58.5449C64.831 58.7508 64.6621 58.9291 64.4637 59.0696C64.2652 59.2102 64.041 59.3103 63.8038 59.3643C63.5666 59.4182 63.3211 59.4249 63.0814 59.3839C62.7274 59.319 62.3778 59.2316 62.035 59.1222C55.82 57.1764 47.9144 47.587 45.2229 44.133C44.3419 45.0323 43.6066 46.5302 43.2785 48.2017C42.9856 49.6901 42.6373 53.4367 45.6028 56.2977C45.6982 56.3769 45.786 56.4661 45.8646 56.5642L45.9692 56.6642C47.4604 58.0925 56.7963 67.0344 64.7498 68.4299C64.996 68.4641 65.2327 68.5476 65.4459 68.6754C65.6591 68.8031 65.8444 68.9725 65.9907 69.1735C66.137 69.3744 66.2413 69.6027 66.2974 69.8449C66.3535 70.087 66.3602 70.3379 66.3172 70.5827C66.2742 70.8275 66.1823 71.0611 66.047 71.2696C65.9117 71.4781 65.7358 71.6572 65.5297 71.7962C65.3237 71.9353 65.0918 72.0313 64.8478 72.0787C64.6038 72.1261 64.3528 72.1239 64.1097 72.0722C63.0772 71.892 62.058 71.6429 61.0588 71.3264C55.5558 69.6035 49.7039 64.9988 46.2558 61.9703C45.4885 62.8068 44.8743 64.4986 45.0676 67.1227C45.2768 69.9614 46.4301 73.5133 48.8542 77.1623C53.674 84.4175 63.4885 91.9895 80.4325 94.7428C80.6634 94.7803 80.8786 94.856 81.0727 94.9623C81.7468 94.3694 82.2909 93.9408 82.4489 93.9506C82.9331 93.9807 83.3862 94.1997 83.7105 94.5606C84.0348 94.9214 84.2044 95.3952 84.1827 95.8799C84.1611 96.3645 83.95 96.8213 83.5948 97.1518L76.7465 103.966C76.5428 104.149 76.3016 104.284 76.0398 104.362C75.778 104.44 75.5023 104.46 75.2321 104.419C74.9398 104.374 46.123 100.059 34.693 99.1022C32.8779 99.6235 32.7194 101.765 32.7363 102.689C32.7811 104.816 33.8956 107.282 35.6365 107.67L36.6217 107.647C36.8022 107.643 37.0046 107.638 37.2261 107.633C40.3883 107.565 47.45 107.412 50.4626 106.655C50.9388 106.535 51.443 106.61 51.8644 106.862C52.2859 107.113 52.59 107.523 52.7098 107.999C52.8297 108.475 52.7555 108.979 52.5036 109.4C52.2516 109.822 51.8426 110.126 51.3665 110.246C47.9748 111.1 40.6386 111.263 37.3319 111.337L37.3318 111.337C37.1049 111.342 36.8971 111.346 36.7107 111.351L36.5511 111.355C36.3871 112.041 36.6554 112.916 37.033 113.612C38.1006 115.592 40.5857 117.375 43.3212 117.033C43.7038 116.91 44.1928 116.768 44.7655 116.601L44.995 116.534C45.6776 116.337 46.46 116.162 47.2954 115.976L47.2955 115.976C49.1944 115.552 51.3669 115.068 53.2619 114.115C53.4792 114.004 53.7163 113.936 53.9598 113.917C54.2032 113.898 54.448 113.927 54.6802 114.002C54.9123 114.078 55.1272 114.199 55.3124 114.358C55.4977 114.517 55.6496 114.711 55.7594 114.929C55.8692 115.147 55.9347 115.385 55.9522 115.629C55.9697 115.872 55.9389 116.117 55.8614 116.348C55.7839 116.58 55.6614 116.794 55.5009 116.978C55.3403 117.162 55.1449 117.312 54.926 117.42C52.7786 118.5 50.3994 119.046 48.3532 119.516C47.5053 119.711 46.7146 119.893 46.0211 120.094C45.5813 120.219 45.1886 120.333 44.856 120.435C44.7133 120.729 44.6888 121.266 45.44 122.231C46.9369 124.15 50.2289 125.686 51.9019 124.763C51.9526 124.726 52.0053 124.691 52.0598 124.66C52.6621 124.314 53.359 124.019 54.0685 123.718C55.1969 123.24 56.3571 122.749 57.2189 122.019C57.4037 121.856 57.619 121.733 57.8522 121.654C58.0854 121.576 58.3319 121.545 58.5772 121.564C58.8225 121.582 59.0617 121.649 59.2808 121.761C59.4999 121.872 59.6945 122.027 59.8532 122.215C60.012 122.402 60.1317 122.62 60.2053 122.855C60.279 123.089 60.3051 123.336 60.2821 123.581C60.2592 123.826 60.1876 124.064 60.0717 124.281C59.9557 124.498 59.7977 124.69 59.6068 124.845C58.1795 126.052 56.0454 126.946 54.8029 127.467L54.7136 127.504ZM98.8402 72.7137C99.0683 73.1392 99.4546 73.4579 99.9156 73.601C100.041 73.6402 100.169 73.6657 100.298 73.6776L99.2995 75.1873C96.3349 68.1479 89.5643 63.031 82.0392 57.3438L82.0392 57.3438L82.0385 57.3433L82.0159 57.3262C79.4022 55.3502 76.6977 53.3056 74.0221 51.0846C74.1424 50.8878 74.2251 50.6701 74.2654 50.4426C74.3092 50.196 74.3025 49.9431 74.2456 49.6991C73.9811 48.2281 76.1643 40.5595 76.8139 39.7973C77.6228 38.8459 78.593 38.0444 79.6801 37.4297C81.3038 48.5549 87.278 56.4356 92.1391 62.8433C92.6633 63.5347 93.1247 64.0919 93.5734 64.6337L93.5737 64.634L93.5737 64.6341C94.9594 66.3072 96.2235 67.8336 98.8402 72.7137Z" fill="#0078AB"/>
<path fill-rule="evenodd" clip-rule="evenodd" d="M54.7136 127.504C54.8335 127.827 55.139 128.175 55.6269 128.546C57.7718 130.179 61.6768 130.723 63.0225 129.942C63.8369 129.038 67.7489 124.667 71.6358 120.203C75.6226 115.631 81.7965 113.721 87.3599 115.347C90.9766 116.44 100.084 118.14 106.937 110.506C113.955 102.68 114.768 93.0622 114.627 88.0239C114.503 84.3891 114.996 80.7595 116.084 77.2893L116.392 76.3076C116.512 75.9252 116.753 75.592 117.078 75.3583C117.127 75.3232 117.178 75.2905 117.23 75.2599C118.21 74.6871 120.534 74.8799 122.182 75.0167C122.691 75.0588 123.135 75.0957 123.455 75.1031C123.698 75.1086 123.937 75.1619 124.16 75.26C124.382 75.3581 124.583 75.499 124.751 75.6747C124.919 75.8504 125.05 76.0575 125.138 76.284C125.226 76.5106 125.268 76.7523 125.263 76.9952C125.257 77.2381 125.204 77.4776 125.106 77.6999C125.008 77.9223 124.867 78.1231 124.691 78.291C124.515 78.4589 124.308 78.5905 124.082 78.6783C123.855 78.7662 123.614 78.8086 123.371 78.803L119.506 78.7446C118.615 81.7267 118.217 84.8086 118.323 87.9129C118.48 93.515 117.566 104.202 109.69 112.985C101.414 122.202 90.5772 120.193 86.3015 118.901C82.1337 117.685 77.4673 119.152 74.424 122.643C70.0407 127.676 65.6202 132.593 65.6202 132.593C65.5373 132.687 65.4447 132.771 65.3439 132.844C63.376 134.287 60.0292 134.251 57.1017 133.335C55.7068 132.898 54.4053 132.262 53.3929 131.495C52.3057 130.67 51.5685 129.718 51.2059 128.709C48.0698 128.929 44.5054 127.049 42.5253 124.506C41.5268 123.224 41.0412 121.889 41.0653 120.648C37.7274 120.076 35.069 117.755 33.7824 115.374C32.8835 113.713 32.6109 111.995 32.9594 110.51C30.4683 108.955 29.101 105.68 29.0416 102.761C28.9657 98.9415 30.988 96.0616 34.1936 95.4211C34.3613 95.3877 34.5329 95.3775 34.7034 95.3907C45.1012 96.2264 69.8868 99.88 74.9215 100.63L77.4892 98.3244C77.4995 98.3155 77.5127 98.3036 77.5287 98.2889C60.9845 95.0897 50.8053 87.328 45.5224 79.3757C42.7769 75.2429 41.3454 71.0401 41.0784 67.4166C40.8465 64.2692 41.4893 61.2227 43.3183 59.2519L43.2667 59.2019C43.209 59.1444 43.1536 59.0847 43.1006 59.023C40.0844 56.1574 38.7912 51.851 39.6467 47.4912C40.2011 44.6674 41.5996 42.2319 43.3893 40.838C42.7456 38.2866 43.1986 35.2915 44.7234 32.217C46.6906 28.2496 50.0708 24.8719 52.5941 24.3551C53.0242 24.2669 53.4718 24.3345 53.8567 24.546C54.2416 24.7574 54.5387 25.0988 54.695 25.5092C58.3857 35.2234 64.1552 42.2142 70.3956 47.9302C70.3647 44.9903 71.0591 40.6474 74.2655 37.0878C76.1317 35.0159 79.1824 33.0125 81.4011 33.1836C82.3117 33.2477 83.0188 33.9615 83.1009 34.8635C84.0993 46.1215 89.9306 53.8097 95.0779 60.5961L95.0849 60.6053C95.4638 61.1047 95.8846 61.6469 96.3275 62.2176L96.3279 62.2181C98.4964 65.0122 101.194 68.4882 102.097 70.9569L105.83 65.311C106.88 63.7491 108.405 62.5666 110.179 61.9384C111.953 61.3102 113.882 61.2697 115.681 61.8229C117.884 62.5154 119.721 64.0529 120.791 66.0983C121.861 68.1438 122.386 69.9175 121.699 72.1214C121.553 72.5897 121.226 72.9805 120.791 73.208C120.356 73.4355 119.849 73.4809 119.381 73.3343C118.912 73.1876 118.521 72.861 118.294 72.4262C118.067 71.9914 118.021 71.484 118.168 71.0157C119.006 68.3389 117.256 66.1935 114.576 65.3543C112.471 64.6953 110.142 65.521 108.91 67.3612L100.633 79.8827C100.817 81.0684 100.903 82.3085 100.88 83.6112C100.876 83.8992 100.804 84.1823 100.671 84.4377C100.538 84.6932 100.347 84.914 100.113 85.0827C99.8797 85.2513 99.61 85.3631 99.3256 85.4091C99.0412 85.4551 98.75 85.4341 98.4752 85.3477C98.0941 85.2284 97.7619 84.9887 97.5284 84.6647C97.295 84.3406 97.173 83.9496 97.1806 83.5503C97.3567 73.5625 89.6125 67.7063 79.8069 60.2973C69.7948 52.7306 58.5008 44.1926 52.0076 28.7548C50.8184 29.7048 49.2194 31.4803 48.04 33.8603C47.2863 35.3794 46.2009 38.237 47.2004 40.6233C47.2144 40.6421 47.2281 40.6612 47.2415 40.6806C47.2664 40.7132 47.2901 40.7465 47.3127 40.7805C50.5397 45.182 59.0274 54.9509 63.705 55.7326C63.9447 55.7735 64.1741 55.8613 64.3799 55.9909C64.5857 56.1204 64.764 56.2893 64.9046 56.4878C65.0452 56.6862 65.1453 56.9105 65.1992 57.1476C65.2531 57.3848 65.2598 57.6303 65.2189 57.87C65.1779 58.1098 65.0901 58.3391 64.9606 58.5449C64.831 58.7508 64.6621 58.9291 64.4637 59.0696C64.2652 59.2102 64.041 59.3103 63.8038 59.3643C63.5666 59.4182 63.3211 59.4249 63.0814 59.3839C62.7274 59.319 62.3778 59.2316 62.035 59.1222C55.82 57.1764 47.9144 47.587 45.2229 44.133C44.3419 45.0323 43.6066 46.5302 43.2785 48.2017C42.9856 49.6901 42.6373 53.4367 45.6028 56.2977C45.6982 56.3769 45.786 56.4661 45.8646 56.5642L45.9692 56.6642C47.4604 58.0925 56.7963 67.0344 64.7498 68.4299C64.996 68.4641 65.2327 68.5476 65.4459 68.6754C65.6591 68.8031 65.8444 68.9725 65.9907 69.1735C66.137 69.3744 66.2413 69.6027 66.2974 69.8449C66.3535 70.087 66.3602 70.3379 66.3172 70.5827C66.2742 70.8275 66.1823 71.0611 66.047 71.2696C65.9117 71.4781 65.7358 71.6572 65.5297 71.7962C65.3237 71.9353 65.0918 72.0313 64.8478 72.0787C64.6038 72.1261 64.3528 72.1239 64.1097 72.0722C63.0772 71.892 62.058 71.6429 61.0588 71.3264C55.5558 69.6035 49.7039 64.9988 46.2558 61.9703C45.4885 62.8068 44.8743 64.4986 45.0676 67.1227C45.2768 69.9614 46.4301 73.5133 48.8542 77.1623C53.674 84.4175 63.4885 91.9895 80.4325 94.7428C80.6634 94.7803 80.8786 94.856 81.0727 94.9623C81.7468 94.3694 82.2909 93.9408 82.4489 93.9506C82.9331 93.9807 83.3862 94.1997 83.7105 94.5606C84.0348 94.9214 84.2044 95.3952 84.1827 95.8799C84.1611 96.3645 83.95 96.8213 83.5948 97.1518L76.7465 103.966C76.5428 104.149 76.3016 104.284 76.0398 104.362C75.778 104.44 75.5023 104.46 75.2321 104.419C74.9398 104.374 46.123 100.059 34.693 99.1022C32.8779 99.6235 32.7194 101.765 32.7363 102.689C32.7811 104.816 33.8956 107.282 35.6365 107.67L36.6217 107.647C36.8022 107.643 37.0046 107.638 37.2261 107.633C40.3883 107.565 47.45 107.412 50.4626 106.655C50.9388 106.535 51.443 106.61 51.8644 106.862C52.2859 107.113 52.59 107.523 52.7098 107.999C52.8297 108.475 52.7555 108.979 52.5036 109.4C52.2516 109.822 51.8426 110.126 51.3665 110.246C47.9748 111.1 40.6386 111.263 37.3319 111.337L37.3318 111.337C37.1049 111.342 36.8971 111.346 36.7107 111.351L36.5511 111.355C36.3871 112.041 36.6554 112.916 37.033 113.612C38.1006 115.592 40.5857 117.375 43.3212 117.033C43.7038 116.91 44.1928 116.768 44.7655 116.601L44.995 116.534C45.6776 116.337 46.46 116.162 47.2954 115.976L47.2955 115.976C49.1944 115.552 51.3669 115.068 53.2619 114.115C53.4792 114.004 53.7163 113.936 53.9598 113.917C54.2032 113.898 54.448 113.927 54.6802 114.002C54.9123 114.078 55.1272 114.199 55.3124 114.358C55.4977 114.517 55.6496 114.711 55.7594 114.929C55.8692 115.147 55.9347 115.385 55.9522 115.629C55.9697 115.872 55.9389 116.117 55.8614 116.348C55.7839 116.58 55.6614 116.794 55.5009 116.978C55.3403 117.162 55.1449 117.312 54.926 117.42C52.7786 118.5 50.3994 119.046 48.3532 119.516C47.5053 119.711 46.7146 119.893 46.0211 120.094C45.5813 120.219 45.1886 120.333 44.856 120.435C44.7133 120.729 44.6888 121.266 45.44 122.231C46.9369 124.15 50.2289 125.686 51.9019 124.763C51.9526 124.726 52.0053 124.691 52.0598 124.66C52.6621 124.314 53.359 124.019 54.0685 123.718C55.1969 123.24 56.3571 122.749 57.2189 122.019C57.4037 121.856 57.619 121.733 57.8522 121.654C58.0854 121.576 58.3319 121.545 58.5772 121.564C58.8225 121.582 59.0617 121.649 59.2808 121.761C59.4999 121.872 59.6945 122.027 59.8532 122.215C60.012 122.402 60.1317 122.62 60.2053 122.855C60.279 123.089 60.3051 123.336 60.2821 123.581C60.2592 123.826 60.1876 124.064 60.0717 124.281C59.9557 124.498 59.7977 124.69 59.6068 124.845C58.1795 126.052 56.0454 126.946 54.8029 127.467L54.7136 127.504ZM98.8402 72.7137C99.0683 73.1392 99.4546 73.4579 99.9156 73.601C100.041 73.6402 100.169 73.6657 100.298 73.6776L99.2995 75.1873C96.3349 68.1479 89.5643 63.031 82.0392 57.3438L82.0392 57.3438L82.0385 57.3433L82.0159 57.3262C79.4022 55.3502 76.6977 53.3056 74.0221 51.0846C74.1424 50.8878 74.2251 50.6701 74.2654 50.4426C74.3092 50.196 74.3025 49.9431 74.2456 49.6991C73.9811 48.2281 76.1643 40.5595 76.8139 39.7973C77.6228 38.8459 78.593 38.0444 79.6801 37.4297C81.3038 48.5549 87.278 56.4356 92.1391 62.8433C92.6633 63.5347 93.1247 64.0919 93.5734 64.6337L93.5737 64.634L93.5737 64.6341C94.9594 66.3072 96.2235 67.8336 98.8402 72.7137Z" fill="#8C8695"/>
</g>
<defs>
<filter id="filter0_d_728_64" x="27.0391" y="24.3174" width="100.225" height="113.665" filterUnits="userSpaceOnUse" color-interpolation-filters="sRGB">
<feFlood flood-opacity="0" result="BackgroundImageFix"/>
<feColorMatrix in="SourceAlpha" type="matrix" values="0 0 0 0 0 0 0 0 0 0 0 0 0 0 0 0 0 0 127 0" result="hardAlpha"/>
<feOffset dy="2"/>
<feGaussianBlur stdDeviation="1"/>
<feComposite in2="hardAlpha" operator="out"/>
<feColorMatrix type="matrix" values="0 0 0 0 0 0 0 0 0 0 0 0 0 0 0 0 0 0 0.25 0"/>
<feBlend mode="normal" in2="BackgroundImageFix" result="effect1_dropShadow_728_64"/>
<feBlend mode="normal" in="SourceGraphic" in2="effect1_dropShadow_728_64" result="shape"/>
</filter>
<linearGradient id="paint0_linear_728_64" x1="77.5029" y1="27.0601" x2="73.4053" y2="154.832" gradientUnits="userSpaceOnUse">
<stop stop-color="#2BD0FF"/>
<stop offset="1" stop-color="#008FCC"/>
</linearGradient>
<linearGradient id="paint1_linear_728_64" x1="90.657" y1="36.0288" x2="59.9165" y2="134.216" gradientUnits="userSpaceOnUse">
<stop stop-color="#00B3E6"/>
<stop offset="1" stop-color="#008FCC"/>
</linearGradient>
</defs>
</svg>
