<svg width="81" height="83" viewBox="0 0 81 83" fill="none" xmlns="http://www.w3.org/2000/svg">
<g filter="url(#filter0_d_728_82)">
<path d="M76.1807 42.6526C76.1807 41.7442 75.5685 40.9499 74.6901 40.7186C69.7429 39.4156 61.701 38.1427 53.5054 38.527C49.0654 38.7352 44.46 39.4357 40.2491 40.9578C40.3557 40.8638 40.4637 40.7695 40.573 40.6748C41.1237 40.1978 41.3714 39.459 41.2196 38.7464C41.0679 38.0338 40.5406 37.4602 39.8433 37.249C38.4494 36.8267 35.9955 36.6046 33.565 37.073C32.9942 37.183 32.4018 37.3362 31.8103 37.5441C32.1645 35.9124 32.5271 34.1711 32.8613 32.4538C33.5766 28.7766 34.2021 25.0121 34.2735 22.7113C34.8091 21.4726 35.6964 19.9103 36.7324 18.5942C37.2944 17.8801 37.8623 17.2872 38.3974 16.8645C38.9478 16.4297 39.351 16.2638 39.5921 16.2237C39.7585 16.196 39.9196 16.1475 40.0719 16.0802C40.2237 16.2041 40.4118 16.3803 40.6365 16.6228C41.7123 17.7835 43.1688 19.9549 45.0205 23.2707C45.4982 24.1261 46.5252 24.5095 47.4466 24.1764C47.7941 24.0508 48.1562 23.9224 48.5278 23.7907C49.9705 23.2792 51.5576 22.7165 53.0045 22.0621C54.8181 21.2418 56.6903 20.1619 57.9891 18.5823C59.3736 16.8984 60.0023 14.7711 59.4906 12.2177C59.0042 9.79024 57.5111 7.07983 54.9535 3.96474C54.7321 3.69508 54.444 3.48804 54.1178 3.36416C50.4207 1.95998 42.541 1.20524 33.5739 3.28575C33.194 3.37391 32.8481 3.57125 32.5788 3.85348C28.5756 8.04976 22.4572 14.7888 17.0956 21.3883C14.416 24.6866 11.9046 27.9756 9.93624 30.91C8.05327 33.7172 6.53126 36.3949 5.94204 38.5131C5.37102 39.9056 4.86265 42.068 5.03361 44.4032C5.20447 46.7369 6.06762 49.3316 8.30683 51.4101C10.2983 55.8774 15.8388 61.6827 25.9451 66.2661C36.4564 71.0332 52.048 74.5545 74.2372 73.9276C75.3194 73.8971 76.1807 73.011 76.1807 71.9284V42.6526Z" fill="white"/>
<path d="M76.1807 42.6526C76.1807 41.7442 75.5685 40.9499 74.6901 40.7186C69.7429 39.4156 61.701 38.1427 53.5054 38.527C49.0654 38.7352 44.46 39.4357 40.2491 40.9578C40.3557 40.8638 40.4637 40.7695 40.573 40.6748C41.1237 40.1978 41.3714 39.459 41.2196 38.7464C41.0679 38.0338 40.5406 37.4602 39.8433 37.249C38.4494 36.8267 35.9955 36.6046 33.565 37.073C32.9942 37.183 32.4018 37.3362 31.8103 37.5441C32.1645 35.9124 32.5271 34.1711 32.8613 32.4538C33.5766 28.7766 34.2021 25.0121 34.2735 22.7113C34.8091 21.4726 35.6964 19.9103 36.7324 18.5942C37.2944 17.8801 37.8623 17.2872 38.3974 16.8645C38.9478 16.4297 39.351 16.2638 39.5921 16.2237C39.7585 16.196 39.9196 16.1475 40.0719 16.0802C40.2237 16.2041 40.4118 16.3803 40.6365 16.6228C41.7123 17.7835 43.1688 19.9549 45.0205 23.2707C45.4982 24.1261 46.5252 24.5095 47.4466 24.1764C47.7941 24.0508 48.1562 23.9224 48.5278 23.7907C49.9705 23.2792 51.5576 22.7165 53.0045 22.0621C54.8181 21.2418 56.6903 20.1619 57.9891 18.5823C59.3736 16.8984 60.0023 14.7711 59.4906 12.2177C59.0042 9.79024 57.5111 7.07983 54.9535 3.96474C54.7321 3.69508 54.444 3.48804 54.1178 3.36416C50.4207 1.95998 42.541 1.20524 33.5739 3.28575C33.194 3.37391 32.8481 3.57125 32.5788 3.85348C28.5756 8.04976 22.4572 14.7888 17.0956 21.3883C14.416 24.6866 11.9046 27.9756 9.93624 30.91C8.05327 33.7172 6.53126 36.3949 5.94204 38.5131C5.37102 39.9056 4.86265 42.068 5.03361 44.4032C5.20447 46.7369 6.06762 49.3316 8.30683 51.4101C10.2983 55.8774 15.8388 61.6827 25.9451 66.2661C36.4564 71.0332 52.048 74.5545 74.2372 73.9276C75.3194 73.8971 76.1807 73.011 76.1807 71.9284V42.6526Z" stroke="#CCC7D7" stroke-width="4" stroke-linejoin="round"/>
<path d="M76.1807 42.6526C76.1807 41.7442 75.5685 40.9499 74.6901 40.7186C69.7429 39.4156 61.701 38.1427 53.5054 38.527C49.0654 38.7352 44.46 39.4357 40.2491 40.9578C40.3557 40.8638 40.4637 40.7695 40.573 40.6748C41.1237 40.1978 41.3714 39.459 41.2196 38.7464C41.0679 38.0338 40.5406 37.4602 39.8433 37.249C38.4494 36.8267 35.9955 36.6046 33.565 37.073C32.9942 37.183 32.4018 37.3362 31.8103 37.5441C32.1645 35.9124 32.5271 34.1711 32.8613 32.4538C33.5766 28.7766 34.2021 25.0121 34.2735 22.7113C34.8091 21.4726 35.6964 19.9103 36.7324 18.5942C37.2944 17.8801 37.8623 17.2872 38.3974 16.8645C38.9478 16.4297 39.351 16.2638 39.5921 16.2237C39.7585 16.196 39.9196 16.1475 40.0719 16.0802C40.2237 16.2041 40.4118 16.3803 40.6365 16.6228C41.7123 17.7835 43.1688 19.9549 45.0205 23.2707C45.4982 24.1261 46.5252 24.5095 47.4466 24.1764C47.7941 24.0508 48.1562 23.9224 48.5278 23.7907C49.9705 23.2792 51.5576 22.7165 53.0045 22.0621C54.8181 21.2418 56.6903 20.1619 57.9891 18.5823C59.3736 16.8984 60.0023 14.7711 59.4906 12.2177C59.0042 9.79024 57.5111 7.07983 54.9535 3.96474C54.7321 3.69508 54.444 3.48804 54.1178 3.36416C50.4207 1.95998 42.541 1.20524 33.5739 3.28575C33.194 3.37391 32.8481 3.57125 32.5788 3.85348C28.5756 8.04976 22.4572 14.7888 17.0956 21.3883C14.416 24.6866 11.9046 27.9756 9.93624 30.91C8.05327 33.7172 6.53126 36.3949 5.94204 38.5131C5.37102 39.9056 4.86265 42.068 5.03361 44.4032C5.20447 46.7369 6.06762 49.3316 8.30683 51.4101C10.2983 55.8774 15.8388 61.6827 25.9451 66.2661C36.4564 71.0332 52.048 74.5545 74.2372 73.9276C75.3194 73.8971 76.1807 73.011 76.1807 71.9284V42.6526Z" stroke="#7F8094" stroke-width="4" stroke-linejoin="round"/>
</g>
<defs>
<filter id="filter0_d_728_82" x="0.7" y="0" width="79.7807" height="82.3" filterUnits="userSpaceOnUse" color-interpolation-filters="sRGB">
<feFlood flood-opacity="0" result="BackgroundImageFix"/>
<feColorMatrix in="SourceAlpha" type="matrix" values="0 0 0 0 0 0 0 0 0 0 0 0 0 0 0 0 0 0 127 0" result="hardAlpha"/>
<feOffset dy="4"/>
<feGaussianBlur stdDeviation="1.15"/>
<feComposite in2="hardAlpha" operator="out"/>
<feColorMatrix type="matrix" values="0 0 0 0 0 0 0 0 0 0 0 0 0 0 0 0 0 0 0.25 0"/>
<feBlend mode="normal" in2="BackgroundImageFix" result="effect1_dropShadow_728_82"/>
<feBlend mode="normal" in="SourceGraphic" in2="effect1_dropShadow_728_82" result="shape"/>
</filter>
</defs>
</svg>
