<svg width="73" height="101" viewBox="0 0 73 101" fill="none" xmlns="http://www.w3.org/2000/svg">
<g filter="url(#filter0_d_728_74)">
<mask id="path-1-inside-1_728_74" fill="white">
<path d="M36.553 94L44.2731 88.3014C52.2597 82.3911 58.7477 74.6912 63.2158 65.8203C67.6839 56.9494 70.0075 47.1548 70 37.2236V13.1695C62.3765 12.7908 54.9085 10.8749 48.0452 7.53702C43.9015 5.50837 40.0238 2.97693 36.5 0C32.9762 2.97693 29.0985 5.50837 24.9548 7.53702C18.0915 10.8749 10.6235 12.7908 3.00001 13.1695V37.2236C2.99399 47.156 5.31965 56.9512 9.79009 65.8222C14.2605 74.6932 20.7511 82.3925 28.7401 88.3014L36.4603 94"/>
</mask>
<path d="M36.553 94L44.2731 88.3014C52.2597 82.3911 58.7477 74.6912 63.2158 65.8203C67.6839 56.9494 70.0075 47.1548 70 37.2236V13.1695C62.3765 12.7908 54.9085 10.8749 48.0452 7.53702C43.9015 5.50837 40.0238 2.97693 36.5 0C32.9762 2.97693 29.0985 5.50837 24.9548 7.53702C18.0915 10.8749 10.6235 12.7908 3.00001 13.1695V37.2236C2.99399 47.156 5.31965 56.9512 9.79009 65.8222C14.2605 74.6932 20.7511 82.3925 28.7401 88.3014L36.4603 94" fill="url(#paint0_linear_728_74)"/>
<path d="M36.553 94L44.2731 88.3014C52.2597 82.3911 58.7477 74.6912 63.2158 65.8203C67.6839 56.9494 70.0075 47.1548 70 37.2236V13.1695C62.3765 12.7908 54.9085 10.8749 48.0452 7.53702C43.9015 5.50837 40.0238 2.97693 36.5 0C32.9762 2.97693 29.0985 5.50837 24.9548 7.53702C18.0915 10.8749 10.6235 12.7908 3.00001 13.1695V37.2236C2.99399 47.156 5.31965 56.9512 9.79009 65.8222C14.2605 74.6932 20.7511 82.3925 28.7401 88.3014L36.4603 94" fill="#7F8094"/>
<path d="M44.2731 88.3014L44.867 89.1059L44.868 89.1052L44.2731 88.3014ZM70 37.2236H69V37.2244L70 37.2236ZM70 13.1695H71V12.2179L70.0496 12.1707L70 13.1695ZM48.0452 7.53702L47.6055 8.43517L47.6078 8.43631L48.0452 7.53702ZM36.5 0L37.1453 -0.763895L36.5 -1.30908L35.8547 -0.763895L36.5 0ZM24.9548 7.53702L25.3922 8.43631L25.3945 8.43516L24.9548 7.53702ZM3.00001 13.1695L2.9504 12.1707L2.00001 12.2179V13.1695H3.00001ZM3.00001 37.2236L4.00001 37.2242V37.2236H3.00001ZM28.7401 88.3014L28.1455 89.1054L28.1462 89.1059L28.7401 88.3014ZM37.1469 94.8046L44.867 89.1059L43.6792 87.4968L35.9591 93.1954L37.1469 94.8046ZM44.868 89.1052C52.9803 83.1019 59.5704 75.2808 64.1089 66.2701L62.3227 65.3704C57.925 74.1016 51.5392 81.6803 43.6783 87.4975L44.868 89.1052ZM64.1089 66.2701C68.6474 57.2595 71.0077 47.3106 71 37.2229L69 37.2244C69.0074 46.9991 66.7204 56.6393 62.3227 65.3704L64.1089 66.2701ZM71 37.2236V13.1695H69V37.2236H71ZM70.0496 12.1707C62.5607 11.7987 55.2246 9.91664 48.4825 6.63773L47.6078 8.43631C54.5923 11.8331 62.1923 13.7829 69.9504 14.1682L70.0496 12.1707ZM48.4849 6.63888C44.415 4.64635 40.6064 2.16 37.1453 -0.763895L35.8547 0.763895C39.4412 3.79386 43.388 6.37038 47.6055 8.43516L48.4849 6.63888ZM35.8547 -0.763895C32.3936 2.16 28.585 4.64635 24.5151 6.63888L25.3945 8.43516C29.612 6.37038 33.5587 3.79386 37.1453 0.763895L35.8547 -0.763895ZM24.5174 6.63773C17.7754 9.91664 10.4393 11.7987 2.9504 12.1707L3.04962 14.1682C10.8077 13.7829 18.4077 11.8331 25.3922 8.43631L24.5174 6.63773ZM2.00001 13.1695V37.2236H4.00001V13.1695H2.00001ZM2.00001 37.223C1.9939 47.3119 4.35621 57.2615 8.89707 66.2722L10.6831 65.3722C6.28309 56.6409 3.99408 47 4.00001 37.2242L2.00001 37.223ZM8.89707 66.2722C13.4379 75.283 20.0307 83.1035 28.1455 89.1054L29.3348 87.4974C21.4715 81.6815 15.0831 74.1034 10.6831 65.3722L8.89707 66.2722ZM28.1462 89.1059L35.8664 94.8046L37.0541 93.1954L29.334 87.4968L28.1462 89.1059Z" fill="#2E273E" mask="url(#path-1-inside-1_728_74)"/>
<path d="M44.2731 88.3014L44.867 89.1059L44.868 89.1052L44.2731 88.3014ZM70 37.2236H69V37.2244L70 37.2236ZM70 13.1695H71V12.2179L70.0496 12.1707L70 13.1695ZM48.0452 7.53702L47.6055 8.43517L47.6078 8.43631L48.0452 7.53702ZM36.5 0L37.1453 -0.763895L36.5 -1.30908L35.8547 -0.763895L36.5 0ZM24.9548 7.53702L25.3922 8.43631L25.3945 8.43516L24.9548 7.53702ZM3.00001 13.1695L2.9504 12.1707L2.00001 12.2179V13.1695H3.00001ZM3.00001 37.2236L4.00001 37.2242V37.2236H3.00001ZM28.7401 88.3014L28.1455 89.1054L28.1462 89.1059L28.7401 88.3014ZM37.1469 94.8046L44.867 89.1059L43.6792 87.4968L35.9591 93.1954L37.1469 94.8046ZM44.868 89.1052C52.9803 83.1019 59.5704 75.2808 64.1089 66.2701L62.3227 65.3704C57.925 74.1016 51.5392 81.6803 43.6783 87.4975L44.868 89.1052ZM64.1089 66.2701C68.6474 57.2595 71.0077 47.3106 71 37.2229L69 37.2244C69.0074 46.9991 66.7204 56.6393 62.3227 65.3704L64.1089 66.2701ZM71 37.2236V13.1695H69V37.2236H71ZM70.0496 12.1707C62.5607 11.7987 55.2246 9.91664 48.4825 6.63773L47.6078 8.43631C54.5923 11.8331 62.1923 13.7829 69.9504 14.1682L70.0496 12.1707ZM48.4849 6.63888C44.415 4.64635 40.6064 2.16 37.1453 -0.763895L35.8547 0.763895C39.4412 3.79386 43.388 6.37038 47.6055 8.43516L48.4849 6.63888ZM35.8547 -0.763895C32.3936 2.16 28.585 4.64635 24.5151 6.63888L25.3945 8.43516C29.612 6.37038 33.5587 3.79386 37.1453 0.763895L35.8547 -0.763895ZM24.5174 6.63773C17.7754 9.91664 10.4393 11.7987 2.9504 12.1707L3.04962 14.1682C10.8077 13.7829 18.4077 11.8331 25.3922 8.43631L24.5174 6.63773ZM2.00001 13.1695V37.2236H4.00001V13.1695H2.00001ZM2.00001 37.223C1.9939 47.3119 4.35621 57.2615 8.89707 66.2722L10.6831 65.3722C6.28309 56.6409 3.99408 47 4.00001 37.2242L2.00001 37.223ZM8.89707 66.2722C13.4379 75.283 20.0307 83.1035 28.1455 89.1054L29.3348 87.4974C21.4715 81.6815 15.0831 74.1034 10.6831 65.3722L8.89707 66.2722ZM28.1462 89.1059L35.8664 94.8046L37.0541 93.1954L29.334 87.4968L28.1462 89.1059Z" fill="#7F8094" mask="url(#path-1-inside-1_728_74)"/>
<mask id="path-3-inside-2_728_74" fill="white">
<path d="M36.6974 85.2635L43.243 80.5251C50.0145 75.6107 55.5155 69.2081 59.3038 61.8319C63.0921 54.4557 65.0623 46.3115 65.0559 38.0537V18.0525C58.5922 17.7377 52.2603 16.1446 46.4412 13.3691C42.9279 11.6823 39.6402 9.57738 36.6524 7.10205C33.6647 9.57738 30.377 11.6823 26.8637 13.3691C21.0446 16.1446 14.7127 17.7377 8.24903 18.0525V38.0537C8.24393 46.3125 10.2158 54.4573 14.0061 61.8335C17.7964 69.2098 23.2995 75.6118 30.0731 80.5251L36.6187 85.2635"/>
</mask>
<path d="M36.6974 85.2635L43.243 80.5251C50.0145 75.6107 55.5155 69.2081 59.3038 61.8319C63.0921 54.4557 65.0623 46.3115 65.0559 38.0537V18.0525C58.5922 17.7377 52.2603 16.1446 46.4412 13.3691C42.9279 11.6823 39.6402 9.57738 36.6524 7.10205C33.6647 9.57738 30.377 11.6823 26.8637 13.3691C21.0446 16.1446 14.7127 17.7377 8.24903 18.0525V38.0537C8.24393 46.3125 10.2158 54.4573 14.0061 61.8335C17.7964 69.2098 23.2995 75.6118 30.0731 80.5251L36.6187 85.2635" fill="white"/>
<path d="M43.243 80.5251L43.8294 81.3351L43.8304 81.3344L43.243 80.5251ZM65.0559 38.0537H64.0559V38.0545L65.0559 38.0537ZM65.0559 18.0525H66.0559V17.1L65.1045 17.0537L65.0559 18.0525ZM46.4412 13.3691L46.0084 14.2706L46.0107 14.2717L46.4412 13.3691ZM36.6524 7.10205L37.2904 6.332L36.6524 5.80343L36.0145 6.332L36.6524 7.10205ZM26.8637 13.3691L27.2942 14.2717L27.2965 14.2706L26.8637 13.3691ZM8.24903 18.0525L8.20038 17.0537L7.24903 17.1V18.0525H8.24903ZM8.24903 38.0537L9.24903 38.0543V38.0537H8.24903ZM30.0731 80.5251L29.486 81.3346L29.4867 81.3351L30.0731 80.5251ZM37.2838 86.0736L43.8294 81.3351L42.6566 79.715L36.111 84.4535L37.2838 86.0736ZM43.8304 81.3344C50.7277 76.3287 56.3327 69.8059 60.1934 62.2888L58.4143 61.3751C54.6983 68.6104 49.3014 74.8926 42.6556 79.7158L43.8304 81.3344ZM60.1934 62.2888C64.0541 54.7716 66.0624 46.4706 66.0559 38.0529L64.0559 38.0545C64.0621 46.1525 62.1302 54.1399 58.4143 61.3751L60.1934 62.2888ZM66.0559 38.0537V18.0525H64.0559V38.0537H66.0559ZM65.1045 17.0537C58.7727 16.7453 52.5707 15.1847 46.8717 12.4665L46.0107 14.2717C51.9499 17.1045 58.4116 18.7301 65.0072 19.0513L65.1045 17.0537ZM46.874 12.4676C43.4339 10.8159 40.2151 8.75509 37.2904 6.332L36.0145 7.8721C39.0652 10.3997 42.4219 12.5486 46.0084 14.2706L46.874 12.4676ZM36.0145 6.332C33.0898 8.75509 29.871 10.8159 26.4309 12.4676L27.2965 14.2706C30.883 12.5486 34.2397 10.3997 37.2904 7.8721L36.0145 6.332ZM26.4332 12.4665C20.7342 15.1847 14.5322 16.7453 8.20038 17.0537L8.29769 19.0513C14.8933 18.7301 21.355 17.1045 27.2942 14.2717L26.4332 12.4665ZM7.24903 18.0525V38.0537H9.24903V18.0525H7.24903ZM7.24903 38.0531C7.24383 46.4717 9.25389 54.7734 13.1166 62.2906L14.8955 61.3765C11.1776 54.1412 9.24403 46.1532 9.24903 38.0543L7.24903 38.0531ZM13.1166 62.2906C16.9794 69.8077 22.5865 76.33 29.486 81.3345L30.6603 79.7156C24.0125 74.8936 18.6135 68.6119 14.8955 61.3765L13.1166 62.2906ZM29.4867 81.3351L36.0324 86.0736L37.2051 84.4535L30.6595 79.715L29.4867 81.3351Z" fill="#2E273E" mask="url(#path-3-inside-2_728_74)"/>
<path d="M43.243 80.5251L43.8294 81.3351L43.8304 81.3344L43.243 80.5251ZM65.0559 38.0537H64.0559V38.0545L65.0559 38.0537ZM65.0559 18.0525H66.0559V17.1L65.1045 17.0537L65.0559 18.0525ZM46.4412 13.3691L46.0084 14.2706L46.0107 14.2717L46.4412 13.3691ZM36.6524 7.10205L37.2904 6.332L36.6524 5.80343L36.0145 6.332L36.6524 7.10205ZM26.8637 13.3691L27.2942 14.2717L27.2965 14.2706L26.8637 13.3691ZM8.24903 18.0525L8.20038 17.0537L7.24903 17.1V18.0525H8.24903ZM8.24903 38.0537L9.24903 38.0543V38.0537H8.24903ZM30.0731 80.5251L29.486 81.3346L29.4867 81.3351L30.0731 80.5251ZM37.2838 86.0736L43.8294 81.3351L42.6566 79.715L36.111 84.4535L37.2838 86.0736ZM43.8304 81.3344C50.7277 76.3287 56.3327 69.8059 60.1934 62.2888L58.4143 61.3751C54.6983 68.6104 49.3014 74.8926 42.6556 79.7158L43.8304 81.3344ZM60.1934 62.2888C64.0541 54.7716 66.0624 46.4706 66.0559 38.0529L64.0559 38.0545C64.0621 46.1525 62.1302 54.1399 58.4143 61.3751L60.1934 62.2888ZM66.0559 38.0537V18.0525H64.0559V38.0537H66.0559ZM65.1045 17.0537C58.7727 16.7453 52.5707 15.1847 46.8717 12.4665L46.0107 14.2717C51.9499 17.1045 58.4116 18.7301 65.0072 19.0513L65.1045 17.0537ZM46.874 12.4676C43.4339 10.8159 40.2151 8.75509 37.2904 6.332L36.0145 7.8721C39.0652 10.3997 42.4219 12.5486 46.0084 14.2706L46.874 12.4676ZM36.0145 6.332C33.0898 8.75509 29.871 10.8159 26.4309 12.4676L27.2965 14.2706C30.883 12.5486 34.2397 10.3997 37.2904 7.8721L36.0145 6.332ZM26.4332 12.4665C20.7342 15.1847 14.5322 16.7453 8.20038 17.0537L8.29769 19.0513C14.8933 18.7301 21.355 17.1045 27.2942 14.2717L26.4332 12.4665ZM7.24903 18.0525V38.0537H9.24903V18.0525H7.24903ZM7.24903 38.0531C7.24383 46.4717 9.25389 54.7734 13.1166 62.2906L14.8955 61.3765C11.1776 54.1412 9.24403 46.1532 9.24903 38.0543L7.24903 38.0531ZM13.1166 62.2906C16.9794 69.8077 22.5865 76.33 29.486 81.3345L30.6603 79.7156C24.0125 74.8936 18.6135 68.6119 14.8955 61.3765L13.1166 62.2906ZM29.4867 81.3351L36.0324 86.0736L37.2051 84.4535L30.6595 79.715L29.4867 81.3351Z" fill="#7F8094" mask="url(#path-3-inside-2_728_74)"/>
<path d="M36.1934 64.6899V33.4253" stroke="#2E273E" stroke-width="5" stroke-linecap="round"/>
<path d="M36.1934 64.6899V33.4253" stroke="#7F8094" stroke-width="5" stroke-linecap="round"/>
<path d="M34.467 63.3912C35.2397 64.7093 37.1451 64.7093 37.9178 63.3912L53.9608 36.0245C54.7424 34.6912 53.7809 33.013 52.2354 33.013H20.1494C18.6039 33.013 17.6424 34.6912 18.424 36.0245L34.467 63.3912Z" stroke="#2E273E" stroke-width="5"/>
<path d="M34.467 63.3912C35.2397 64.7093 37.1451 64.7093 37.9178 63.3912L53.9608 36.0245C54.7424 34.6912 53.7809 33.013 52.2354 33.013H20.1494C18.6039 33.013 17.6424 34.6912 18.424 36.0245L34.467 63.3912Z" stroke="#7F8094" stroke-width="5"/>
</g>
<defs>
<filter id="filter0_d_728_74" x="0.7" y="0" width="71.6" height="100.3" filterUnits="userSpaceOnUse" color-interpolation-filters="sRGB">
<feFlood flood-opacity="0" result="BackgroundImageFix"/>
<feColorMatrix in="SourceAlpha" type="matrix" values="0 0 0 0 0 0 0 0 0 0 0 0 0 0 0 0 0 0 127 0" result="hardAlpha"/>
<feOffset dy="4"/>
<feGaussianBlur stdDeviation="1.15"/>
<feComposite in2="hardAlpha" operator="out"/>
<feColorMatrix type="matrix" values="0 0 0 0 0 0 0 0 0 0 0 0 0 0 0 0 0 0 0.25 0"/>
<feBlend mode="normal" in2="BackgroundImageFix" result="effect1_dropShadow_728_74"/>
<feBlend mode="normal" in="SourceGraphic" in2="effect1_dropShadow_728_74" result="shape"/>
</filter>
<linearGradient id="paint0_linear_728_74" x1="36.2683" y1="4" x2="36.2683" y2="90" gradientUnits="userSpaceOnUse">
<stop stop-color="#00B3E6"/>
<stop offset="1" stop-color="#008FCC"/>
</linearGradient>
</defs>
</svg>
