<svg width="85" height="95" viewBox="0 0 85 95" fill="none" xmlns="http://www.w3.org/2000/svg">
<path d="M70.3493 50.5118C70.9968 51.2392 71.3438 52.2032 71.3438 53.1875V84.4688C71.3438 86.9591 70.4614 89.3724 68.8635 91.162C67.2694 92.9617 65.0696 94 62.75 94H22.2507H22.25V93L70.3493 50.5118ZM70.3493 50.5118C69.6985 49.7806 68.7891 49.3438 67.8125 49.3438M70.3493 50.5118L67.8125 49.3438M67.8125 49.3438H17.1875M67.8125 49.3438H17.1875M17.1875 49.3438C16.2109 49.3438 15.3015 49.7806 14.6507 50.5118M17.1875 49.3438L14.6507 50.5118M14.6507 50.5118C14.0032 51.2392 13.6562 52.2032 13.6562 53.1875M14.6507 50.5118L13.6562 53.1875M13.6562 53.1875V84.4682V53.1875ZM68.8657 3.83471C70.4639 5.62734 71.3438 8.03802 71.3438 10.5313V36.1247C71.3438 36.1248 71.3438 36.1249 71.3438 36.125C71.3441 37.3616 71.1275 38.5883 70.7042 39.7358C70.2808 40.8835 69.6576 41.9331 68.8653 42.822C67.2663 44.6209 65.0695 45.6562 62.75 45.6562H22.2504C22.2503 45.6562 22.2501 45.6562 22.25 45.6562C21.1041 45.6566 19.9728 45.4029 18.9219 44.9137C17.8714 44.4246 16.9252 43.7113 16.1338 42.8209C14.5359 41.0284 13.6562 38.618 13.6562 36.125V10.5316C13.6562 10.5315 13.6562 10.5314 13.6562 10.5313C13.6559 9.29468 13.8725 8.06796 14.2958 6.92042C14.7191 5.77299 15.3421 4.72361 16.1342 3.83485C17.7332 2.03558 19.9302 1 22.25 1L62.7496 1C62.7497 1 62.7499 1 62.75 1C63.8959 0.99962 65.0272 1.25331 66.0781 1.74258C67.1283 2.23158 68.0744 2.94468 68.8657 3.83471ZM68.8657 3.83471C68.8659 3.83491 68.866 3.83511 68.8662 3.83531L68.1188 4.49966L68.8657 3.83471ZM74.9734 49.3438H73.6091L74.0198 50.6448C74.27 51.4373 74.4062 52.2912 74.4062 53.1875V84.4688V85.4684L75.4059 85.4688C76.5519 85.4692 77.6833 85.2155 78.7343 84.7262C79.7846 84.2372 80.7307 83.524 81.522 82.634C83.1201 80.8414 84 78.4307 84 75.9375V58.875C84 56.3818 83.1201 53.9712 81.522 52.1785C79.923 50.3793 77.726 49.3438 75.4062 49.3438H74.9734ZM10.9802 50.6448L11.3909 49.3438H10.0266H9.59375C7.27399 49.3438 5.07694 50.3793 3.47795 52.1786C2.68588 53.0674 2.06286 54.1167 1.6396 55.2642C1.21628 56.4117 0.999662 57.6384 1 58.875C1 58.8751 1 58.8752 1 58.8753L1 75.9375C1 78.4305 1.87969 80.8409 3.47755 82.6334C4.26891 83.5238 5.21517 84.2371 6.26569 84.7262C7.31665 85.2155 8.44811 85.4692 9.59413 85.4688L10.5938 85.4684V84.4688V53.1875C10.5938 52.2912 10.7301 51.4373 10.9802 50.6448ZM27.8862 16.6054C29.0917 15.2157 30.7047 14.4324 32.375 14.3755C34.0453 14.4324 35.6583 15.2157 36.8638 16.6054C38.0792 18.0066 38.7752 19.9074 38.7752 21.9062C38.7752 23.9051 38.0792 25.8059 36.8638 27.2071C35.6583 28.5968 34.0453 29.3801 32.375 29.437C30.7047 29.3801 29.0917 28.5968 27.8862 27.2071C26.6708 25.8059 25.9748 23.9051 25.9748 21.9062C25.9748 19.9074 26.6708 18.0066 27.8862 16.6054ZM48.1362 16.6054C49.3417 15.2157 50.9547 14.4324 52.625 14.3755C54.2953 14.4324 55.9083 15.2157 57.1138 16.6054C58.3292 18.0066 59.0252 19.9074 59.0252 21.9062C59.0252 23.9051 58.3292 25.8059 57.1138 27.2071C55.9083 28.5968 54.2953 29.3801 52.625 29.437C50.9547 29.3801 49.3417 28.5968 48.1362 27.2071C46.9208 25.8059 46.2248 23.9051 46.2248 21.9062C46.2248 19.9074 46.9208 18.0066 48.1362 16.6054Z" fill="#4C50AC" stroke="#424879" stroke-width="2"/>
</svg>
